%TF.GenerationSoftware,KiCad,Pcbnew,9.0.2-9.0.2-0~ubuntu24.04.1*%
%TF.CreationDate,2026-06-08T21:27:22+02:00*%
%TF.ProjectId,g031_sht40,67303331-5f73-4687-9434-302e6b696361,0.2*%
%TF.SameCoordinates,Original*%
%TF.FileFunction,Copper,L2,Bot*%
%TF.FilePolarity,Positive*%
%FSLAX46Y46*%
G04 Gerber Fmt 4.6, Leading zero omitted, Abs format (unit mm)*
G04 Created by KiCad (PCBNEW 9.0.2-9.0.2-0~ubuntu24.04.1) date 2026-06-08 21:27:22*
%MOMM*%
%LPD*%
G01*
G04 APERTURE LIST*
G04 Aperture macros list*
%AMRoundRect*
0 Rectangle with rounded corners*
0 $1 Rounding radius*
0 $2 $3 $4 $5 $6 $7 $8 $9 X,Y pos of 4 corners*
0 Add a 4 corners polygon primitive as box body*
4,1,4,$2,$3,$4,$5,$6,$7,$8,$9,$2,$3,0*
0 Add four circle primitives for the rounded corners*
1,1,$1+$1,$2,$3*
1,1,$1+$1,$4,$5*
1,1,$1+$1,$6,$7*
1,1,$1+$1,$8,$9*
0 Add four rect primitives between the rounded corners*
20,1,$1+$1,$2,$3,$4,$5,0*
20,1,$1+$1,$4,$5,$6,$7,0*
20,1,$1+$1,$6,$7,$8,$9,0*
20,1,$1+$1,$8,$9,$2,$3,0*%
%AMFreePoly0*
4,1,6,1.000000,0.000000,0.500000,-0.750000,-0.500000,-0.750000,-0.500000,0.750000,0.500000,0.750000,1.000000,0.000000,1.000000,0.000000,$1*%
%AMFreePoly1*
4,1,6,0.500000,-0.750000,-0.650000,-0.750000,-0.150000,0.000000,-0.650000,0.750000,0.500000,0.750000,0.500000,-0.750000,0.500000,-0.750000,$1*%
G04 Aperture macros list end*
%TA.AperFunction,ComponentPad*%
%ADD10R,1.700000X1.700000*%
%TD*%
%TA.AperFunction,ComponentPad*%
%ADD11C,1.700000*%
%TD*%
%TA.AperFunction,ComponentPad*%
%ADD12R,1.650000X1.650000*%
%TD*%
%TA.AperFunction,ComponentPad*%
%ADD13C,1.650000*%
%TD*%
%TA.AperFunction,ComponentPad*%
%ADD14O,3.200000X1.900000*%
%TD*%
%TA.AperFunction,ComponentPad*%
%ADD15RoundRect,0.250000X0.550000X0.550000X-0.550000X0.550000X-0.550000X-0.550000X0.550000X-0.550000X0*%
%TD*%
%TA.AperFunction,ComponentPad*%
%ADD16C,1.600000*%
%TD*%
%TA.AperFunction,SMDPad,CuDef*%
%ADD17FreePoly0,180.000000*%
%TD*%
%TA.AperFunction,SMDPad,CuDef*%
%ADD18FreePoly1,180.000000*%
%TD*%
%TA.AperFunction,ViaPad*%
%ADD19C,0.700000*%
%TD*%
%TA.AperFunction,ViaPad*%
%ADD20C,0.600000*%
%TD*%
%TA.AperFunction,Conductor*%
%ADD21C,1.000000*%
%TD*%
%TA.AperFunction,Conductor*%
%ADD22C,0.700000*%
%TD*%
%TA.AperFunction,Conductor*%
%ADD23C,0.400000*%
%TD*%
G04 APERTURE END LIST*
D10*
%TO.P,J2,1,Pin_1*%
%TO.N,/VHV*%
X127920000Y-92000000D03*
D11*
%TO.P,J2,2,Pin_2*%
%TO.N,Net-(J2-Pin_2)*%
X130460000Y-92000000D03*
%TO.P,J2,3,Pin_3*%
%TO.N,/CAP*%
X133000000Y-92000000D03*
%TO.P,J2,4,Pin_4*%
%TO.N,/BAL*%
X135540000Y-92000000D03*
%TO.P,J2,5,Pin_5*%
%TO.N,Net-(J2-Pin_5)*%
X138080000Y-92000000D03*
%TO.P,J2,6,Pin_6*%
%TO.N,GND*%
X140620000Y-92000000D03*
%TD*%
D10*
%TO.P,J6,1,Pin_1*%
%TO.N,+3V3*%
X156690000Y-63000000D03*
D11*
%TO.P,J6,2,Pin_2*%
%TO.N,/SWDIO*%
X159230000Y-63000000D03*
%TO.P,J6,3,Pin_3*%
%TO.N,/SWCLK*%
X161770000Y-63000000D03*
%TO.P,J6,4,Pin_4*%
%TO.N,GND*%
X164310000Y-63000000D03*
%TD*%
D10*
%TO.P,J8,1,Pin_1*%
%TO.N,/EPD_VCC*%
X166000000Y-85540000D03*
D11*
%TO.P,J8,2,Pin_2*%
%TO.N,GND*%
X166000000Y-83000000D03*
%TO.P,J8,3,Pin_3*%
%TO.N,Net-(J8-Pin_3)*%
X166000000Y-80460000D03*
%TO.P,J8,4,Pin_4*%
%TO.N,Net-(J8-Pin_4)*%
X166000000Y-77920000D03*
%TO.P,J8,5,Pin_5*%
%TO.N,Net-(J8-Pin_5)*%
X166000000Y-75380000D03*
%TO.P,J8,6,Pin_6*%
%TO.N,Net-(J8-Pin_6)*%
X166000000Y-72840000D03*
%TO.P,J8,7,Pin_7*%
%TO.N,Net-(J8-Pin_7)*%
X166000000Y-70300000D03*
%TO.P,J8,8,Pin_8*%
%TO.N,Net-(J8-Pin_8)*%
X166000000Y-67760000D03*
%TD*%
D12*
%TO.P,J1,1,Pin_1*%
%TO.N,GND*%
X122000000Y-58500000D03*
D13*
%TO.P,J1,2,Pin_2*%
%TO.N,Net-(J1-Pin_2)*%
X119460000Y-58500000D03*
%TD*%
D10*
%TO.P,J5,1,Pin_1*%
%TO.N,/TX*%
X147420000Y-63000000D03*
D11*
%TO.P,J5,2,Pin_2*%
%TO.N,/RX*%
X149960000Y-63000000D03*
%TO.P,J5,3,Pin_3*%
%TO.N,GND*%
X152500000Y-63000000D03*
%TD*%
D14*
%TO.P,SW1,1,1*%
%TO.N,+3V3*%
X160500000Y-87500000D03*
X148000000Y-87500000D03*
%TO.P,SW1,2,2*%
%TO.N,Net-(U3-PA1)*%
X160500000Y-82500000D03*
X148000000Y-82500000D03*
%TD*%
D10*
%TO.P,J7,1,Pin_1*%
%TO.N,/SHT40_GND*%
X102000000Y-76500000D03*
D11*
%TO.P,J7,2,Pin_2*%
%TO.N,Net-(J7-Pin_2)*%
X102000000Y-79040000D03*
%TO.P,J7,3,Pin_3*%
%TO.N,Net-(J7-Pin_3)*%
X102000000Y-81580000D03*
%TO.P,J7,4,Pin_4*%
%TO.N,GND*%
X102000000Y-84120000D03*
%TD*%
D15*
%TO.P,C1,1*%
%TO.N,/CAP*%
X142000000Y-63500000D03*
D16*
%TO.P,C1,2*%
%TO.N,/BAL*%
X138500000Y-63500000D03*
%TD*%
D10*
%TO.P,U4,1,V\u0421\u0421*%
%TO.N,/EPD_VCC*%
X170510000Y-85500000D03*
D11*
%TO.P,U4,2,GND*%
%TO.N,GND*%
X170510000Y-82960000D03*
%TO.P,U4,3,DIN*%
%TO.N,Net-(J8-Pin_3)*%
X170510000Y-80420000D03*
%TO.P,U4,4,CLK*%
%TO.N,Net-(J8-Pin_4)*%
X170510000Y-77880000D03*
%TO.P,U4,5,~{CS}*%
%TO.N,Net-(J8-Pin_5)*%
X170510000Y-75340000D03*
%TO.P,U4,6,D/~{C}*%
%TO.N,Net-(J8-Pin_6)*%
X170510000Y-72800000D03*
%TO.P,U4,7,~{RST}*%
%TO.N,Net-(J8-Pin_7)*%
X170510000Y-70260000D03*
%TO.P,U4,8,~{BUSY}*%
%TO.N,Net-(J8-Pin_8)*%
X170510000Y-67720000D03*
%TD*%
D15*
%TO.P,C4,1*%
%TO.N,/BAL*%
X131500000Y-63500000D03*
D16*
%TO.P,C4,2*%
%TO.N,GND*%
X128000000Y-63500000D03*
%TD*%
D12*
%TO.P,J4,1,Pin_1*%
%TO.N,Net-(J1-Pin_2)*%
X119460000Y-94500000D03*
D13*
%TO.P,J4,2,Pin_2*%
%TO.N,GND*%
X122000000Y-94500000D03*
%TD*%
D10*
%TO.P,JP1,1,A*%
%TO.N,/VHV*%
X149500000Y-97000000D03*
D11*
%TO.P,JP1,2,B*%
%TO.N,+3V3*%
X152040000Y-97000000D03*
%TD*%
D10*
%TO.P,U1,1,SRC*%
%TO.N,Net-(J1-Pin_2)*%
X126385000Y-74000000D03*
D11*
%TO.P,U1,2,GND*%
%TO.N,GND*%
X126385000Y-76540000D03*
%TO.P,U1,3,VLV*%
%TO.N,Net-(J2-Pin_2)*%
X126385000Y-79080000D03*
%TO.P,U1,4,GND*%
%TO.N,GND*%
X126385000Y-81620000D03*
%TO.P,U1,5,STATUS*%
%TO.N,Net-(J2-Pin_5)*%
X126385000Y-84160000D03*
%TO.P,U1,6,GND*%
%TO.N,GND*%
X141625000Y-84160000D03*
%TO.P,U1,7,VHV*%
%TO.N,/VHV*%
X141625000Y-81620000D03*
%TO.P,U1,8,GND*%
%TO.N,GND*%
X141625000Y-79080000D03*
%TO.P,U1,9,BAL*%
%TO.N,/BAL*%
X141625000Y-76540000D03*
%TO.P,U1,10,+*%
%TO.N,/CAP*%
X141625000Y-74000000D03*
%TD*%
D10*
%TO.P,U2,1,VIN*%
%TO.N,unconnected-(U2-VIN-Pad1)*%
X107000000Y-71460000D03*
D11*
%TO.P,U2,2,3Vo*%
%TO.N,+3V3*%
X107000000Y-74000000D03*
%TO.P,U2,3,GND*%
%TO.N,/SHT40_GND*%
X107000000Y-76540000D03*
%TO.P,U2,4,SCL*%
%TO.N,Net-(J7-Pin_2)*%
X107000000Y-79080000D03*
%TO.P,U2,5,SDA*%
%TO.N,Net-(J7-Pin_3)*%
X107000000Y-81620000D03*
%TD*%
D10*
%TO.P,J3,1,Pin_1*%
%TO.N,GND*%
X136000000Y-56500000D03*
D11*
%TO.P,J3,2,Pin_2*%
%TO.N,Net-(J3-Pin_2)*%
X133460000Y-56500000D03*
%TD*%
D17*
%TO.P,JP2,1,A*%
%TO.N,Net-(JP2-A)*%
X149450000Y-68500000D03*
D18*
%TO.P,JP2,2,B*%
%TO.N,Net-(J2-Pin_5)*%
X148000000Y-68500000D03*
%TD*%
D19*
%TO.N,GND*%
X169975000Y-92643000D03*
X114975000Y-57643000D03*
X134975000Y-97643000D03*
X159000000Y-65900000D03*
X114975000Y-92643000D03*
X124975000Y-57643000D03*
X129975000Y-72643000D03*
X129975000Y-77643000D03*
X164975000Y-92643000D03*
X169975000Y-87643000D03*
X144975000Y-97643000D03*
X124975000Y-92643000D03*
X104975000Y-72643000D03*
X109975000Y-92643000D03*
X109975000Y-62643000D03*
X114975000Y-97643000D03*
X159975000Y-92643000D03*
X129975000Y-97643000D03*
X134975000Y-72643000D03*
X164975000Y-57643000D03*
X104975000Y-67643000D03*
X139975000Y-97643000D03*
X162000000Y-76000000D03*
X109975000Y-57643000D03*
X164975000Y-87643000D03*
X159975000Y-57643000D03*
X154975000Y-57643000D03*
X155100000Y-70500000D03*
X139975000Y-87643000D03*
X134975000Y-77643000D03*
X119975000Y-77643000D03*
X144975000Y-87643000D03*
D20*
X147500000Y-73500000D03*
D19*
X154975000Y-77643000D03*
X109975000Y-67643000D03*
X114975000Y-87643000D03*
X104975000Y-87643000D03*
X104975000Y-62643000D03*
X109975000Y-97643000D03*
X149975000Y-92643000D03*
X164975000Y-97643000D03*
X134200000Y-85100000D03*
X149975000Y-57643000D03*
X114975000Y-62643000D03*
X109975000Y-87643000D03*
X124975000Y-97643000D03*
X169975000Y-62643000D03*
X114975000Y-82643000D03*
X154975000Y-92643000D03*
X129975000Y-87643000D03*
X104975000Y-92643000D03*
X156700000Y-68300000D03*
D20*
%TO.N,+3V3*%
X145542000Y-71882000D03*
%TO.N,Net-(J2-Pin_5)*%
X147500000Y-68500000D03*
%TO.N,/RX*%
X152100000Y-73300000D03*
%TO.N,/TX*%
X151500000Y-72500000D03*
%TO.N,/SHT40_GND*%
X145000000Y-68500000D03*
X155425000Y-74000000D03*
%TO.N,Net-(JP2-A)*%
X150000000Y-68500000D03*
%TD*%
D21*
%TO.N,GND*%
X126385000Y-76540000D02*
X128500000Y-78655000D01*
X162000000Y-79000000D02*
X153000000Y-79000000D01*
X153000000Y-79000000D02*
X147500000Y-73500000D01*
X128000000Y-63500000D02*
X128000000Y-76127081D01*
X127587081Y-76540000D02*
X126385000Y-76540000D01*
X139085000Y-81620000D02*
X141625000Y-79080000D01*
X128000000Y-76127081D02*
X127587081Y-76540000D01*
X122000000Y-80925000D02*
X122000000Y-94500000D01*
X141625000Y-84160000D02*
X141625000Y-90995000D01*
X128500000Y-78655000D02*
X128500000Y-79505000D01*
X126385000Y-81620000D02*
X139085000Y-81620000D01*
X141625000Y-90995000D02*
X140620000Y-92000000D01*
X141625000Y-84160000D02*
X139085000Y-81620000D01*
X136000000Y-56500000D02*
X130500000Y-62000000D01*
X129500000Y-62000000D02*
X128000000Y-63500000D01*
X147500000Y-73500000D02*
X147205000Y-73500000D01*
X128000000Y-63500000D02*
X127000000Y-63500000D01*
X126385000Y-76540000D02*
X122000000Y-80925000D01*
X128500000Y-79505000D02*
X126385000Y-81620000D01*
X166000000Y-83000000D02*
X162000000Y-79000000D01*
X127000000Y-63500000D02*
X122000000Y-58500000D01*
X130500000Y-62000000D02*
X129500000Y-62000000D01*
X147205000Y-73500000D02*
X141625000Y-79080000D01*
%TO.N,+3V3*%
X145869000Y-66369000D02*
X145869000Y-61631000D01*
X145542000Y-71882000D02*
X143999000Y-70339000D01*
X143999000Y-70339000D02*
X143999000Y-68085372D01*
X148000000Y-87500000D02*
X160500000Y-87500000D01*
X145715372Y-66369000D02*
X145869000Y-66369000D01*
X155139000Y-61449000D02*
X156690000Y-63000000D01*
X143999000Y-68085372D02*
X145715372Y-66369000D01*
X145869000Y-61631000D02*
X146051000Y-61449000D01*
X146051000Y-61449000D02*
X155139000Y-61449000D01*
%TO.N,Net-(J1-Pin_2)*%
X119460000Y-67075000D02*
X119460000Y-58500000D01*
X126385000Y-74000000D02*
X119460000Y-67075000D01*
X119460000Y-94500000D02*
X119460000Y-80925000D01*
X119460000Y-80925000D02*
X126385000Y-74000000D01*
%TO.N,/BAL*%
X138500000Y-73415000D02*
X138500000Y-63500000D01*
X141625000Y-76540000D02*
X138500000Y-73415000D01*
%TO.N,/CAP*%
X142000000Y-73625000D02*
X141625000Y-74000000D01*
X142000000Y-63500000D02*
X142000000Y-73625000D01*
D22*
%TO.N,Net-(J7-Pin_2)*%
X107000000Y-79080000D02*
X102040000Y-79080000D01*
X102040000Y-79080000D02*
X102000000Y-79040000D01*
%TO.N,Net-(J7-Pin_3)*%
X107000000Y-81620000D02*
X102040000Y-81620000D01*
X102040000Y-81620000D02*
X102000000Y-81580000D01*
%TO.N,Net-(J2-Pin_5)*%
X130240000Y-84160000D02*
X126385000Y-84160000D01*
X138080000Y-92000000D02*
X130240000Y-84160000D01*
D23*
%TO.N,/RX*%
X152100000Y-73300000D02*
X152201000Y-73199000D01*
X152201000Y-65241000D02*
X149960000Y-63000000D01*
X152201000Y-73199000D02*
X152201000Y-65241000D01*
%TO.N,/TX*%
X151500000Y-66900000D02*
X147600000Y-63000000D01*
X151500000Y-72500000D02*
X151500000Y-66900000D01*
X147600000Y-63000000D02*
X147420000Y-63000000D01*
%TO.N,/SHT40_GND*%
X155425000Y-74000000D02*
X150500000Y-74000000D01*
X145000000Y-68500000D02*
X145250000Y-68750000D01*
X150500000Y-74000000D02*
X145000000Y-68500000D01*
D22*
%TO.N,Net-(U3-PA1)*%
X160500000Y-82500000D02*
X148000000Y-82500000D01*
%TD*%
%TA.AperFunction,Conductor*%
%TO.N,GND*%
G36*
X171003032Y-53500648D02*
G01*
X171336929Y-53517052D01*
X171349037Y-53518245D01*
X171452146Y-53533539D01*
X171676699Y-53566849D01*
X171688617Y-53569219D01*
X172009951Y-53649709D01*
X172021588Y-53653240D01*
X172092806Y-53678722D01*
X172333467Y-53764832D01*
X172344688Y-53769479D01*
X172644163Y-53911120D01*
X172654871Y-53916844D01*
X172938988Y-54087137D01*
X172949106Y-54093897D01*
X173215170Y-54291224D01*
X173224576Y-54298944D01*
X173470013Y-54521395D01*
X173478604Y-54529986D01*
X173665755Y-54736475D01*
X173701055Y-54775423D01*
X173708775Y-54784829D01*
X173906102Y-55050893D01*
X173912862Y-55061011D01*
X174079010Y-55338213D01*
X174083148Y-55345116D01*
X174088883Y-55355844D01*
X174206710Y-55604969D01*
X174230514Y-55655297D01*
X174235170Y-55666540D01*
X174346759Y-55978411D01*
X174350292Y-55990055D01*
X174430777Y-56311369D01*
X174433151Y-56323305D01*
X174481754Y-56650962D01*
X174482947Y-56663071D01*
X174499351Y-56996966D01*
X174499500Y-57003051D01*
X174499500Y-95996948D01*
X174499351Y-96003033D01*
X174482947Y-96336928D01*
X174481754Y-96349037D01*
X174433151Y-96676694D01*
X174430777Y-96688630D01*
X174350292Y-97009944D01*
X174346759Y-97021588D01*
X174235170Y-97333459D01*
X174230514Y-97344702D01*
X174088885Y-97644151D01*
X174083148Y-97654883D01*
X173912862Y-97938988D01*
X173906102Y-97949106D01*
X173708775Y-98215170D01*
X173701055Y-98224576D01*
X173478611Y-98470006D01*
X173470006Y-98478611D01*
X173224576Y-98701055D01*
X173215170Y-98708775D01*
X172949106Y-98906102D01*
X172938988Y-98912862D01*
X172654883Y-99083148D01*
X172644151Y-99088885D01*
X172344702Y-99230514D01*
X172333459Y-99235170D01*
X172021588Y-99346759D01*
X172009944Y-99350292D01*
X171688630Y-99430777D01*
X171676694Y-99433151D01*
X171349037Y-99481754D01*
X171336928Y-99482947D01*
X171021989Y-99498419D01*
X171003031Y-99499351D01*
X170996949Y-99499500D01*
X104003051Y-99499500D01*
X103996968Y-99499351D01*
X103976900Y-99498365D01*
X103663071Y-99482947D01*
X103650962Y-99481754D01*
X103323305Y-99433151D01*
X103311369Y-99430777D01*
X102990055Y-99350292D01*
X102978411Y-99346759D01*
X102666540Y-99235170D01*
X102655301Y-99230515D01*
X102355844Y-99088883D01*
X102345121Y-99083150D01*
X102061011Y-98912862D01*
X102050893Y-98906102D01*
X101784829Y-98708775D01*
X101775423Y-98701055D01*
X101736475Y-98665755D01*
X101529986Y-98478604D01*
X101521395Y-98470013D01*
X101298944Y-98224576D01*
X101291224Y-98215170D01*
X101153973Y-98030109D01*
X101093895Y-97949103D01*
X101087137Y-97938988D01*
X101066756Y-97904984D01*
X100916844Y-97654871D01*
X100911120Y-97644163D01*
X100769479Y-97344688D01*
X100764829Y-97333459D01*
X100743374Y-97273497D01*
X100653240Y-97021588D01*
X100649707Y-97009944D01*
X100637486Y-96961155D01*
X100569219Y-96688617D01*
X100566848Y-96676694D01*
X100564494Y-96660827D01*
X100518245Y-96349037D01*
X100517052Y-96336927D01*
X100516741Y-96330606D01*
X100500649Y-96003032D01*
X100500500Y-95996948D01*
X100500500Y-95868872D01*
X101999500Y-95868872D01*
X101999500Y-96131127D01*
X102025764Y-96330609D01*
X102033730Y-96391116D01*
X102086483Y-96587993D01*
X102101602Y-96644418D01*
X102101605Y-96644428D01*
X102201953Y-96886690D01*
X102201958Y-96886700D01*
X102333075Y-97113803D01*
X102492718Y-97321851D01*
X102492726Y-97321860D01*
X102678140Y-97507274D01*
X102678148Y-97507281D01*
X102678149Y-97507282D01*
X102726554Y-97544424D01*
X102886196Y-97666924D01*
X103113299Y-97798041D01*
X103113309Y-97798046D01*
X103355571Y-97898394D01*
X103355581Y-97898398D01*
X103608884Y-97966270D01*
X103868880Y-98000500D01*
X103868887Y-98000500D01*
X104131113Y-98000500D01*
X104131120Y-98000500D01*
X104391116Y-97966270D01*
X104644419Y-97898398D01*
X104886697Y-97798043D01*
X105113803Y-97666924D01*
X105321851Y-97507282D01*
X105321855Y-97507277D01*
X105321860Y-97507274D01*
X105507274Y-97321860D01*
X105507277Y-97321855D01*
X105507282Y-97321851D01*
X105666924Y-97113803D01*
X105755056Y-96961153D01*
X118659500Y-96961153D01*
X118659500Y-97118846D01*
X118690261Y-97273489D01*
X118690264Y-97273501D01*
X118750602Y-97419172D01*
X118750609Y-97419185D01*
X118838210Y-97550288D01*
X118838213Y-97550292D01*
X118949707Y-97661786D01*
X118949711Y-97661789D01*
X119080814Y-97749390D01*
X119080827Y-97749397D01*
X119198266Y-97798041D01*
X119226503Y-97809737D01*
X119381153Y-97840499D01*
X119381156Y-97840500D01*
X119381158Y-97840500D01*
X119538844Y-97840500D01*
X119538845Y-97840499D01*
X119693497Y-97809737D01*
X119839179Y-97749394D01*
X119970289Y-97661789D01*
X120081789Y-97550289D01*
X120169394Y-97419179D01*
X120229737Y-97273497D01*
X120260500Y-97118842D01*
X120260500Y-96961158D01*
X120260500Y-96961155D01*
X120260499Y-96961153D01*
X121199500Y-96961153D01*
X121199500Y-97118846D01*
X121230261Y-97273489D01*
X121230264Y-97273501D01*
X121290602Y-97419172D01*
X121290609Y-97419185D01*
X121378210Y-97550288D01*
X121378213Y-97550292D01*
X121489707Y-97661786D01*
X121489711Y-97661789D01*
X121620814Y-97749390D01*
X121620827Y-97749397D01*
X121738266Y-97798041D01*
X121766503Y-97809737D01*
X121921153Y-97840499D01*
X121921156Y-97840500D01*
X121921158Y-97840500D01*
X122078844Y-97840500D01*
X122078845Y-97840499D01*
X122233497Y-97809737D01*
X122379179Y-97749394D01*
X122510289Y-97661789D01*
X122621789Y-97550289D01*
X122709394Y-97419179D01*
X122769737Y-97273497D01*
X122800500Y-97118842D01*
X122800500Y-96961158D01*
X122800500Y-96961155D01*
X122800499Y-96961153D01*
X122787084Y-96893713D01*
X122769737Y-96806503D01*
X122718896Y-96683760D01*
X122709397Y-96660827D01*
X122709390Y-96660814D01*
X122621789Y-96529711D01*
X122621786Y-96529707D01*
X122510292Y-96418213D01*
X122510288Y-96418210D01*
X122379185Y-96330609D01*
X122379172Y-96330602D01*
X122233501Y-96270264D01*
X122233489Y-96270261D01*
X122078845Y-96239500D01*
X122078842Y-96239500D01*
X121921158Y-96239500D01*
X121921155Y-96239500D01*
X121766510Y-96270261D01*
X121766498Y-96270264D01*
X121620827Y-96330602D01*
X121620814Y-96330609D01*
X121489711Y-96418210D01*
X121489707Y-96418213D01*
X121378213Y-96529707D01*
X121378210Y-96529711D01*
X121290609Y-96660814D01*
X121290602Y-96660827D01*
X121230264Y-96806498D01*
X121230261Y-96806510D01*
X121199500Y-96961153D01*
X120260499Y-96961153D01*
X120247084Y-96893713D01*
X120229737Y-96806503D01*
X120178896Y-96683760D01*
X120169397Y-96660827D01*
X120169390Y-96660814D01*
X120081789Y-96529711D01*
X120081786Y-96529707D01*
X119970292Y-96418213D01*
X119970288Y-96418210D01*
X119839185Y-96330609D01*
X119839172Y-96330602D01*
X119693501Y-96270264D01*
X119693489Y-96270261D01*
X119538845Y-96239500D01*
X119538842Y-96239500D01*
X119381158Y-96239500D01*
X119381155Y-96239500D01*
X119226510Y-96270261D01*
X119226498Y-96270264D01*
X119080827Y-96330602D01*
X119080814Y-96330609D01*
X118949711Y-96418210D01*
X118949707Y-96418213D01*
X118838213Y-96529707D01*
X118838210Y-96529711D01*
X118750609Y-96660814D01*
X118750602Y-96660827D01*
X118690264Y-96806498D01*
X118690261Y-96806510D01*
X118659500Y-96961153D01*
X105755056Y-96961153D01*
X105798043Y-96886697D01*
X105898398Y-96644419D01*
X105966270Y-96391116D01*
X106000500Y-96131120D01*
X106000500Y-96102135D01*
X148149500Y-96102135D01*
X148149500Y-97897870D01*
X148149501Y-97897876D01*
X148155908Y-97957483D01*
X148206202Y-98092328D01*
X148206206Y-98092335D01*
X148292452Y-98207544D01*
X148292455Y-98207547D01*
X148407664Y-98293793D01*
X148407671Y-98293797D01*
X148542517Y-98344091D01*
X148542516Y-98344091D01*
X148549444Y-98344835D01*
X148602127Y-98350500D01*
X150397872Y-98350499D01*
X150457483Y-98344091D01*
X150592331Y-98293796D01*
X150707546Y-98207546D01*
X150793796Y-98092331D01*
X150842810Y-97960916D01*
X150884681Y-97904984D01*
X150950145Y-97880566D01*
X151018418Y-97895417D01*
X151046673Y-97916569D01*
X151160213Y-98030109D01*
X151332179Y-98155048D01*
X151332181Y-98155049D01*
X151332184Y-98155051D01*
X151521588Y-98251557D01*
X151723757Y-98317246D01*
X151933713Y-98350500D01*
X151933714Y-98350500D01*
X152146286Y-98350500D01*
X152146287Y-98350500D01*
X152356243Y-98317246D01*
X152558412Y-98251557D01*
X152747816Y-98155051D01*
X152834138Y-98092335D01*
X152919786Y-98030109D01*
X152919788Y-98030106D01*
X152919792Y-98030104D01*
X153070104Y-97879792D01*
X153070106Y-97879788D01*
X153070109Y-97879786D01*
X153195048Y-97707820D01*
X153195047Y-97707820D01*
X153195051Y-97707816D01*
X153291557Y-97518412D01*
X153357246Y-97316243D01*
X153390500Y-97106287D01*
X153390500Y-96893713D01*
X153357246Y-96683757D01*
X153291557Y-96481588D01*
X153195051Y-96292184D01*
X153195049Y-96292181D01*
X153195048Y-96292179D01*
X153070109Y-96120213D01*
X152919790Y-95969894D01*
X152913245Y-95965139D01*
X152913243Y-95965137D01*
X152780745Y-95868872D01*
X168999500Y-95868872D01*
X168999500Y-96131127D01*
X169025764Y-96330609D01*
X169033730Y-96391116D01*
X169086483Y-96587993D01*
X169101602Y-96644418D01*
X169101605Y-96644428D01*
X169201953Y-96886690D01*
X169201958Y-96886700D01*
X169333075Y-97113803D01*
X169492718Y-97321851D01*
X169492726Y-97321860D01*
X169678140Y-97507274D01*
X169678148Y-97507281D01*
X169678149Y-97507282D01*
X169726554Y-97544424D01*
X169886196Y-97666924D01*
X170113299Y-97798041D01*
X170113309Y-97798046D01*
X170355571Y-97898394D01*
X170355581Y-97898398D01*
X170608884Y-97966270D01*
X170868880Y-98000500D01*
X170868887Y-98000500D01*
X171131113Y-98000500D01*
X171131120Y-98000500D01*
X171391116Y-97966270D01*
X171644419Y-97898398D01*
X171886697Y-97798043D01*
X172113803Y-97666924D01*
X172321851Y-97507282D01*
X172321855Y-97507277D01*
X172321860Y-97507274D01*
X172507274Y-97321860D01*
X172507277Y-97321855D01*
X172507282Y-97321851D01*
X172666924Y-97113803D01*
X172798043Y-96886697D01*
X172898398Y-96644419D01*
X172966270Y-96391116D01*
X173000500Y-96131120D01*
X173000500Y-95868880D01*
X172966270Y-95608884D01*
X172898398Y-95355581D01*
X172876087Y-95301718D01*
X172798046Y-95113309D01*
X172798041Y-95113299D01*
X172666924Y-94886196D01*
X172507281Y-94678148D01*
X172507274Y-94678140D01*
X172321860Y-94492726D01*
X172321851Y-94492718D01*
X172113803Y-94333075D01*
X171886700Y-94201958D01*
X171886690Y-94201953D01*
X171644428Y-94101605D01*
X171644421Y-94101603D01*
X171644419Y-94101602D01*
X171391116Y-94033730D01*
X171333339Y-94026123D01*
X171131127Y-93999500D01*
X171131120Y-93999500D01*
X170868880Y-93999500D01*
X170868872Y-93999500D01*
X170637772Y-94029926D01*
X170608884Y-94033730D01*
X170355581Y-94101602D01*
X170355571Y-94101605D01*
X170113309Y-94201953D01*
X170113299Y-94201958D01*
X169886196Y-94333075D01*
X169678148Y-94492718D01*
X169492718Y-94678148D01*
X169333075Y-94886196D01*
X169201958Y-95113299D01*
X169201953Y-95113309D01*
X169101605Y-95355571D01*
X169101602Y-95355581D01*
X169033730Y-95608885D01*
X168999500Y-95868872D01*
X152780745Y-95868872D01*
X152747820Y-95844951D01*
X152558414Y-95748444D01*
X152558413Y-95748443D01*
X152558412Y-95748443D01*
X152356243Y-95682754D01*
X152356241Y-95682753D01*
X152356240Y-95682753D01*
X152194957Y-95657208D01*
X152146287Y-95649500D01*
X151933713Y-95649500D01*
X151885042Y-95657208D01*
X151723760Y-95682753D01*
X151521585Y-95748444D01*
X151332179Y-95844951D01*
X151160215Y-95969889D01*
X151046673Y-96083431D01*
X150985350Y-96116915D01*
X150915658Y-96111931D01*
X150859725Y-96070059D01*
X150842810Y-96039082D01*
X150793797Y-95907671D01*
X150793793Y-95907664D01*
X150707547Y-95792455D01*
X150707544Y-95792452D01*
X150592335Y-95706206D01*
X150592328Y-95706202D01*
X150457482Y-95655908D01*
X150457483Y-95655908D01*
X150397883Y-95649501D01*
X150397881Y-95649500D01*
X150397873Y-95649500D01*
X150397864Y-95649500D01*
X148602129Y-95649500D01*
X148602123Y-95649501D01*
X148542516Y-95655908D01*
X148407671Y-95706202D01*
X148407664Y-95706206D01*
X148292455Y-95792452D01*
X148292452Y-95792455D01*
X148206206Y-95907664D01*
X148206202Y-95907671D01*
X148155908Y-96042517D01*
X148149501Y-96102116D01*
X148149500Y-96102135D01*
X106000500Y-96102135D01*
X106000500Y-95868880D01*
X105966270Y-95608884D01*
X105898398Y-95355581D01*
X105876087Y-95301718D01*
X105798046Y-95113309D01*
X105798041Y-95113299D01*
X105666924Y-94886196D01*
X105507281Y-94678148D01*
X105507274Y-94678140D01*
X105321860Y-94492726D01*
X105321851Y-94492718D01*
X105113803Y-94333075D01*
X104886700Y-94201958D01*
X104886690Y-94201953D01*
X104644428Y-94101605D01*
X104644421Y-94101603D01*
X104644419Y-94101602D01*
X104391116Y-94033730D01*
X104333339Y-94026123D01*
X104131127Y-93999500D01*
X104131120Y-93999500D01*
X103868880Y-93999500D01*
X103868872Y-93999500D01*
X103637772Y-94029926D01*
X103608884Y-94033730D01*
X103355581Y-94101602D01*
X103355571Y-94101605D01*
X103113309Y-94201953D01*
X103113299Y-94201958D01*
X102886196Y-94333075D01*
X102678148Y-94492718D01*
X102492718Y-94678148D01*
X102333075Y-94886196D01*
X102201958Y-95113299D01*
X102201953Y-95113309D01*
X102101605Y-95355571D01*
X102101602Y-95355581D01*
X102033730Y-95608885D01*
X101999500Y-95868872D01*
X100500500Y-95868872D01*
X100500500Y-92878711D01*
X110649500Y-92878711D01*
X110649500Y-93121288D01*
X110681161Y-93361785D01*
X110743947Y-93596104D01*
X110810253Y-93756180D01*
X110836776Y-93820212D01*
X110958064Y-94030289D01*
X110958066Y-94030292D01*
X110958067Y-94030293D01*
X111105733Y-94222736D01*
X111105739Y-94222743D01*
X111277256Y-94394260D01*
X111277262Y-94394265D01*
X111469711Y-94541936D01*
X111679788Y-94663224D01*
X111903900Y-94756054D01*
X112138211Y-94818838D01*
X112318586Y-94842584D01*
X112378711Y-94850500D01*
X112378712Y-94850500D01*
X112621289Y-94850500D01*
X112669388Y-94844167D01*
X112861789Y-94818838D01*
X113096100Y-94756054D01*
X113320212Y-94663224D01*
X113530289Y-94541936D01*
X113722738Y-94394265D01*
X113894265Y-94222738D01*
X114041936Y-94030289D01*
X114163224Y-93820212D01*
X114256054Y-93596100D01*
X114318838Y-93361789D01*
X114350500Y-93121288D01*
X114350500Y-92878712D01*
X114318838Y-92638211D01*
X114256054Y-92403900D01*
X114163224Y-92179788D01*
X114041936Y-91969711D01*
X113894265Y-91777262D01*
X113894260Y-91777256D01*
X113722743Y-91605739D01*
X113722736Y-91605733D01*
X113530293Y-91458067D01*
X113530292Y-91458066D01*
X113530289Y-91458064D01*
X113320212Y-91336776D01*
X113320205Y-91336773D01*
X113096104Y-91243947D01*
X112861785Y-91181161D01*
X112621289Y-91149500D01*
X112621288Y-91149500D01*
X112378712Y-91149500D01*
X112378711Y-91149500D01*
X112138214Y-91181161D01*
X111903895Y-91243947D01*
X111679794Y-91336773D01*
X111679785Y-91336777D01*
X111469706Y-91458067D01*
X111277263Y-91605733D01*
X111277256Y-91605739D01*
X111105739Y-91777256D01*
X111105733Y-91777263D01*
X110958067Y-91969706D01*
X110836777Y-92179785D01*
X110836773Y-92179794D01*
X110743947Y-92403895D01*
X110681161Y-92638214D01*
X110649500Y-92878711D01*
X100500500Y-92878711D01*
X100500500Y-84656611D01*
X100520185Y-84589572D01*
X100572989Y-84543817D01*
X100642147Y-84533873D01*
X100705703Y-84562898D01*
X100742432Y-84618294D01*
X100748906Y-84638221D01*
X100845375Y-84827550D01*
X100884728Y-84881716D01*
X101517037Y-84249408D01*
X101534075Y-84312993D01*
X101599901Y-84427007D01*
X101692993Y-84520099D01*
X101807007Y-84585925D01*
X101870590Y-84602962D01*
X101238282Y-85235269D01*
X101238282Y-85235270D01*
X101292449Y-85274624D01*
X101481782Y-85371095D01*
X101683870Y-85436757D01*
X101893754Y-85470000D01*
X102106246Y-85470000D01*
X102316127Y-85436757D01*
X102316130Y-85436757D01*
X102518217Y-85371095D01*
X102707554Y-85274622D01*
X102761716Y-85235270D01*
X102761717Y-85235270D01*
X102129408Y-84602962D01*
X102192993Y-84585925D01*
X102307007Y-84520099D01*
X102400099Y-84427007D01*
X102465925Y-84312993D01*
X102482962Y-84249409D01*
X103115270Y-84881717D01*
X103115270Y-84881716D01*
X103154622Y-84827554D01*
X103251095Y-84638217D01*
X103316757Y-84436130D01*
X103316757Y-84436127D01*
X103350000Y-84226246D01*
X103350000Y-84013753D01*
X103316757Y-83803872D01*
X103316757Y-83803869D01*
X103251095Y-83601782D01*
X103154624Y-83412449D01*
X103115270Y-83358282D01*
X103115269Y-83358282D01*
X102482962Y-83990590D01*
X102465925Y-83927007D01*
X102400099Y-83812993D01*
X102307007Y-83719901D01*
X102192993Y-83654075D01*
X102129409Y-83637037D01*
X102761716Y-83004728D01*
X102707547Y-82965373D01*
X102698500Y-82960763D01*
X102647706Y-82912788D01*
X102630912Y-82844966D01*
X102653451Y-82778832D01*
X102698508Y-82739793D01*
X102707816Y-82735051D01*
X102820760Y-82652993D01*
X102879786Y-82610109D01*
X102879788Y-82610106D01*
X102879792Y-82610104D01*
X102983077Y-82506819D01*
X103044400Y-82473334D01*
X103070758Y-82470500D01*
X105889242Y-82470500D01*
X105956281Y-82490185D01*
X105976923Y-82506819D01*
X106120213Y-82650109D01*
X106292179Y-82775048D01*
X106292181Y-82775049D01*
X106292184Y-82775051D01*
X106481588Y-82871557D01*
X106683757Y-82937246D01*
X106893713Y-82970500D01*
X106893714Y-82970500D01*
X107106286Y-82970500D01*
X107106287Y-82970500D01*
X107316243Y-82937246D01*
X107518412Y-82871557D01*
X107707816Y-82775051D01*
X107762872Y-82735051D01*
X107879786Y-82650109D01*
X107879788Y-82650106D01*
X107879792Y-82650104D01*
X108030104Y-82499792D01*
X108030106Y-82499788D01*
X108030109Y-82499786D01*
X108155048Y-82327820D01*
X108155050Y-82327817D01*
X108155051Y-82327816D01*
X108251557Y-82138412D01*
X108317246Y-81936243D01*
X108350500Y-81726287D01*
X108350500Y-81513713D01*
X108317246Y-81303757D01*
X108251557Y-81101588D01*
X108155051Y-80912184D01*
X108155049Y-80912181D01*
X108155048Y-80912179D01*
X108030109Y-80740213D01*
X107879786Y-80589890D01*
X107707820Y-80464951D01*
X107699600Y-80460763D01*
X107699054Y-80460485D01*
X107648259Y-80412512D01*
X107631463Y-80344692D01*
X107653999Y-80278556D01*
X107699054Y-80239515D01*
X107707816Y-80235051D01*
X107762876Y-80195048D01*
X107879786Y-80110109D01*
X107879788Y-80110106D01*
X107879792Y-80110104D01*
X108030104Y-79959792D01*
X108030106Y-79959788D01*
X108030109Y-79959786D01*
X108155048Y-79787820D01*
X108155047Y-79787820D01*
X108155051Y-79787816D01*
X108251557Y-79598412D01*
X108317246Y-79396243D01*
X108350500Y-79186287D01*
X108350500Y-78973713D01*
X108317246Y-78763757D01*
X108251557Y-78561588D01*
X108155051Y-78372184D01*
X108155049Y-78372181D01*
X108155048Y-78372179D01*
X108030109Y-78200213D01*
X107879786Y-78049890D01*
X107707820Y-77924951D01*
X107699600Y-77920763D01*
X107699054Y-77920485D01*
X107648259Y-77872512D01*
X107631463Y-77804692D01*
X107653999Y-77738556D01*
X107699054Y-77699515D01*
X107707816Y-77695051D01*
X107816909Y-77615791D01*
X107879786Y-77570109D01*
X107879788Y-77570106D01*
X107879792Y-77570104D01*
X108030104Y-77419792D01*
X108030106Y-77419788D01*
X108030109Y-77419786D01*
X108155048Y-77247820D01*
X108155047Y-77247820D01*
X108155051Y-77247816D01*
X108251557Y-77058412D01*
X108317246Y-76856243D01*
X108350500Y-76646287D01*
X108350500Y-76433713D01*
X108317246Y-76223757D01*
X108251557Y-76021588D01*
X108155051Y-75832184D01*
X108155049Y-75832181D01*
X108155048Y-75832179D01*
X108030109Y-75660213D01*
X107879786Y-75509890D01*
X107707820Y-75384951D01*
X107706362Y-75384208D01*
X107699054Y-75380485D01*
X107648259Y-75332512D01*
X107631463Y-75264692D01*
X107653999Y-75198556D01*
X107699054Y-75159515D01*
X107707816Y-75155051D01*
X107794138Y-75092335D01*
X107879786Y-75030109D01*
X107879788Y-75030106D01*
X107879792Y-75030104D01*
X108030104Y-74879792D01*
X108030106Y-74879788D01*
X108030109Y-74879786D01*
X108139086Y-74729789D01*
X108155051Y-74707816D01*
X108251557Y-74518412D01*
X108317246Y-74316243D01*
X108350500Y-74106287D01*
X108350500Y-73893713D01*
X108317246Y-73683757D01*
X108251557Y-73481588D01*
X108155051Y-73292184D01*
X108155049Y-73292181D01*
X108155048Y-73292179D01*
X108030109Y-73120213D01*
X107916569Y-73006673D01*
X107883084Y-72945350D01*
X107888068Y-72875658D01*
X107929940Y-72819725D01*
X107960915Y-72802810D01*
X108092331Y-72753796D01*
X108207546Y-72667546D01*
X108293796Y-72552331D01*
X108344091Y-72417483D01*
X108350500Y-72357873D01*
X108350499Y-70562128D01*
X108344091Y-70502517D01*
X108323606Y-70447595D01*
X108293797Y-70367671D01*
X108293793Y-70367664D01*
X108207547Y-70252455D01*
X108207544Y-70252452D01*
X108092335Y-70166206D01*
X108092328Y-70166202D01*
X107957482Y-70115908D01*
X107957483Y-70115908D01*
X107897883Y-70109501D01*
X107897881Y-70109500D01*
X107897873Y-70109500D01*
X107897864Y-70109500D01*
X106102129Y-70109500D01*
X106102123Y-70109501D01*
X106042516Y-70115908D01*
X105907671Y-70166202D01*
X105907664Y-70166206D01*
X105792455Y-70252452D01*
X105792452Y-70252455D01*
X105706206Y-70367664D01*
X105706202Y-70367671D01*
X105655908Y-70502517D01*
X105649501Y-70562116D01*
X105649501Y-70562123D01*
X105649500Y-70562135D01*
X105649500Y-72357870D01*
X105649501Y-72357876D01*
X105655908Y-72417483D01*
X105706202Y-72552328D01*
X105706206Y-72552335D01*
X105792452Y-72667544D01*
X105792455Y-72667547D01*
X105907664Y-72753793D01*
X105907671Y-72753797D01*
X106039082Y-72802810D01*
X106095016Y-72844681D01*
X106119433Y-72910145D01*
X106104582Y-72978418D01*
X106083431Y-73006673D01*
X105969889Y-73120215D01*
X105844951Y-73292179D01*
X105748444Y-73481585D01*
X105682753Y-73683760D01*
X105651281Y-73882470D01*
X105649500Y-73893713D01*
X105649500Y-74106287D01*
X105653009Y-74128443D01*
X105681748Y-74309896D01*
X105682754Y-74316243D01*
X105745803Y-74510288D01*
X105748444Y-74518414D01*
X105844951Y-74707820D01*
X105969890Y-74879786D01*
X106120213Y-75030109D01*
X106292182Y-75155050D01*
X106300946Y-75159516D01*
X106351742Y-75207491D01*
X106368536Y-75275312D01*
X106345998Y-75341447D01*
X106300946Y-75380484D01*
X106292182Y-75384949D01*
X106120213Y-75509890D01*
X105969890Y-75660213D01*
X105844951Y-75832179D01*
X105748444Y-76021585D01*
X105682753Y-76223760D01*
X105649500Y-76433713D01*
X105649500Y-76646287D01*
X105653009Y-76668443D01*
X105682735Y-76856127D01*
X105682754Y-76856243D01*
X105729531Y-77000208D01*
X105748444Y-77058414D01*
X105844951Y-77247820D01*
X105969890Y-77419786D01*
X106120213Y-77570109D01*
X106292182Y-77695050D01*
X106300946Y-77699516D01*
X106351742Y-77747491D01*
X106368536Y-77815312D01*
X106345998Y-77881447D01*
X106300946Y-77920484D01*
X106292182Y-77924949D01*
X106120213Y-78049890D01*
X106120209Y-78049894D01*
X105976923Y-78193181D01*
X105915600Y-78226666D01*
X105889242Y-78229500D01*
X103143629Y-78229500D01*
X103112765Y-78220437D01*
X103081508Y-78212817D01*
X103078944Y-78210506D01*
X103076590Y-78209815D01*
X103053789Y-78190968D01*
X103048131Y-78185021D01*
X103030104Y-78160208D01*
X102915465Y-78045569D01*
X102914410Y-78044460D01*
X102899107Y-78014695D01*
X102883084Y-77985350D01*
X102883198Y-77983749D01*
X102882464Y-77982321D01*
X102885681Y-77949026D01*
X102888068Y-77915658D01*
X102889030Y-77914371D01*
X102889185Y-77912776D01*
X102909890Y-77886507D01*
X102929940Y-77859725D01*
X102931802Y-77858707D01*
X102932437Y-77857903D01*
X102934715Y-77857117D01*
X102960915Y-77842810D01*
X103092331Y-77793796D01*
X103207546Y-77707546D01*
X103293796Y-77592331D01*
X103344091Y-77457483D01*
X103350500Y-77397873D01*
X103350499Y-75602128D01*
X103344091Y-75542517D01*
X103331924Y-75509896D01*
X103293797Y-75407671D01*
X103293793Y-75407664D01*
X103207547Y-75292455D01*
X103207544Y-75292452D01*
X103092335Y-75206206D01*
X103092328Y-75206202D01*
X102957482Y-75155908D01*
X102957483Y-75155908D01*
X102897883Y-75149501D01*
X102897881Y-75149500D01*
X102897873Y-75149500D01*
X102897864Y-75149500D01*
X101102129Y-75149500D01*
X101102123Y-75149501D01*
X101042516Y-75155908D01*
X100907671Y-75206202D01*
X100907664Y-75206206D01*
X100792455Y-75292452D01*
X100792452Y-75292455D01*
X100723766Y-75384208D01*
X100667832Y-75426079D01*
X100598141Y-75431063D01*
X100536818Y-75397577D01*
X100503334Y-75336254D01*
X100500500Y-75309897D01*
X100500500Y-59878711D01*
X110649500Y-59878711D01*
X110649500Y-60121288D01*
X110681161Y-60361785D01*
X110743947Y-60596104D01*
X110834849Y-60815559D01*
X110836776Y-60820212D01*
X110958064Y-61030289D01*
X110958066Y-61030292D01*
X110958067Y-61030293D01*
X111105733Y-61222736D01*
X111105739Y-61222743D01*
X111277256Y-61394260D01*
X111277262Y-61394265D01*
X111469711Y-61541936D01*
X111679788Y-61663224D01*
X111903900Y-61756054D01*
X112138211Y-61818838D01*
X112318586Y-61842584D01*
X112378711Y-61850500D01*
X112378712Y-61850500D01*
X112621289Y-61850500D01*
X112669388Y-61844167D01*
X112861789Y-61818838D01*
X113096100Y-61756054D01*
X113320212Y-61663224D01*
X113530289Y-61541936D01*
X113722738Y-61394265D01*
X113894265Y-61222738D01*
X114041936Y-61030289D01*
X114163224Y-60820212D01*
X114256054Y-60596100D01*
X114318838Y-60361789D01*
X114350500Y-60121288D01*
X114350500Y-59878712D01*
X114318838Y-59638211D01*
X114256054Y-59403900D01*
X114163224Y-59179788D01*
X114041936Y-58969711D01*
X113894265Y-58777262D01*
X113894260Y-58777256D01*
X113722743Y-58605739D01*
X113722736Y-58605733D01*
X113570847Y-58489185D01*
X113530293Y-58458067D01*
X113530292Y-58458066D01*
X113530289Y-58458064D01*
X113422228Y-58395675D01*
X118134500Y-58395675D01*
X118134500Y-58604324D01*
X118167137Y-58810389D01*
X118231612Y-59008820D01*
X118318723Y-59179785D01*
X118326330Y-59194714D01*
X118435818Y-59345410D01*
X118459298Y-59411215D01*
X118459500Y-59418295D01*
X118459500Y-67173541D01*
X118465078Y-67201585D01*
X118465079Y-67201587D01*
X118465079Y-67201589D01*
X118497946Y-67366828D01*
X118497948Y-67366832D01*
X118497949Y-67366836D01*
X118508240Y-67391680D01*
X118513242Y-67403757D01*
X118573366Y-67548911D01*
X118573371Y-67548920D01*
X118682860Y-67712781D01*
X118682863Y-67712785D01*
X118826537Y-67856459D01*
X118826559Y-67856479D01*
X124882398Y-73912318D01*
X124915883Y-73973641D01*
X124910899Y-74043333D01*
X124882398Y-74087680D01*
X121797900Y-77172179D01*
X118822221Y-80147858D01*
X118822218Y-80147861D01*
X118775031Y-80195048D01*
X118682859Y-80287219D01*
X118573369Y-80451082D01*
X118573368Y-80451085D01*
X118542219Y-80526287D01*
X118504253Y-80617946D01*
X118504252Y-80617950D01*
X118497948Y-80633167D01*
X118497947Y-80633171D01*
X118459500Y-80826454D01*
X118459500Y-93121138D01*
X118439815Y-93188177D01*
X118399581Y-93225637D01*
X118399769Y-93225888D01*
X118397441Y-93227630D01*
X118394932Y-93229967D01*
X118392670Y-93231202D01*
X118277455Y-93317452D01*
X118277452Y-93317455D01*
X118191206Y-93432664D01*
X118191202Y-93432671D01*
X118140908Y-93567517D01*
X118134501Y-93627116D01*
X118134500Y-93627135D01*
X118134500Y-95372870D01*
X118134501Y-95372876D01*
X118140908Y-95432483D01*
X118191202Y-95567328D01*
X118191206Y-95567335D01*
X118277452Y-95682544D01*
X118277455Y-95682547D01*
X118392664Y-95768793D01*
X118392671Y-95768797D01*
X118527517Y-95819091D01*
X118527516Y-95819091D01*
X118534444Y-95819835D01*
X118587127Y-95825500D01*
X120332872Y-95825499D01*
X120392483Y-95819091D01*
X120527331Y-95768796D01*
X120642546Y-95682546D01*
X120728796Y-95567331D01*
X120779091Y-95432483D01*
X120785500Y-95372873D01*
X120785499Y-95354587D01*
X120788686Y-95340809D01*
X120799163Y-95322201D01*
X120805175Y-95301718D01*
X120815961Y-95292368D01*
X120822967Y-95279927D01*
X120841839Y-95269938D01*
X120857972Y-95255956D01*
X120873421Y-95253224D01*
X120884721Y-95247244D01*
X120898073Y-95248373D01*
X121476212Y-94670234D01*
X121487482Y-94712292D01*
X121559890Y-94837708D01*
X121662292Y-94940110D01*
X121787708Y-95012518D01*
X121829765Y-95023787D01*
X121256179Y-95597371D01*
X121256180Y-95597372D01*
X121305543Y-95633236D01*
X121305556Y-95633244D01*
X121491372Y-95727924D01*
X121689727Y-95792373D01*
X121895721Y-95825000D01*
X122104279Y-95825000D01*
X122310272Y-95792373D01*
X122508627Y-95727924D01*
X122694451Y-95633240D01*
X122743818Y-95597372D01*
X122743818Y-95597371D01*
X122170234Y-95023787D01*
X122212292Y-95012518D01*
X122337708Y-94940110D01*
X122440110Y-94837708D01*
X122512518Y-94712292D01*
X122523787Y-94670234D01*
X123097371Y-95243818D01*
X123097372Y-95243818D01*
X123133240Y-95194451D01*
X123227924Y-95008627D01*
X123292373Y-94810272D01*
X123325000Y-94604279D01*
X123325000Y-94395720D01*
X123292373Y-94189727D01*
X123227924Y-93991372D01*
X123133244Y-93805556D01*
X123133236Y-93805543D01*
X123097372Y-93756180D01*
X123097371Y-93756179D01*
X122523787Y-94329764D01*
X122512518Y-94287708D01*
X122440110Y-94162292D01*
X122337708Y-94059890D01*
X122212292Y-93987482D01*
X122170233Y-93976212D01*
X122743819Y-93402627D01*
X122694451Y-93366759D01*
X122508627Y-93272075D01*
X122310272Y-93207626D01*
X122104279Y-93175000D01*
X121895721Y-93175000D01*
X121689727Y-93207626D01*
X121491372Y-93272075D01*
X121305552Y-93366757D01*
X121256180Y-93402627D01*
X121829766Y-93976212D01*
X121787708Y-93987482D01*
X121662292Y-94059890D01*
X121559890Y-94162292D01*
X121487482Y-94287708D01*
X121476212Y-94329765D01*
X120896557Y-93750110D01*
X120850849Y-93740508D01*
X120801093Y-93691456D01*
X120788687Y-93659190D01*
X120785499Y-93645402D01*
X120785499Y-93627128D01*
X120779091Y-93567517D01*
X120728796Y-93432669D01*
X120728795Y-93432668D01*
X120728793Y-93432664D01*
X120642547Y-93317455D01*
X120642544Y-93317452D01*
X120527329Y-93231202D01*
X120525068Y-93229967D01*
X120523246Y-93228145D01*
X120520231Y-93225888D01*
X120520555Y-93225454D01*
X120475665Y-93180559D01*
X120460500Y-93121138D01*
X120460500Y-81390781D01*
X120480185Y-81323742D01*
X120496814Y-81303105D01*
X124894641Y-76905277D01*
X124955962Y-76871794D01*
X125025654Y-76876778D01*
X125081587Y-76918650D01*
X125100251Y-76954642D01*
X125133904Y-77058217D01*
X125230375Y-77247550D01*
X125269728Y-77301716D01*
X125902037Y-76669408D01*
X125919075Y-76732993D01*
X125984901Y-76847007D01*
X126077993Y-76940099D01*
X126192007Y-77005925D01*
X126255590Y-77022962D01*
X125623282Y-77655269D01*
X125623282Y-77655270D01*
X125677452Y-77694626D01*
X125677451Y-77694626D01*
X125686495Y-77699234D01*
X125737292Y-77747208D01*
X125754087Y-77815029D01*
X125731550Y-77881164D01*
X125686499Y-77920202D01*
X125677182Y-77924949D01*
X125505213Y-78049890D01*
X125354890Y-78200213D01*
X125229951Y-78372179D01*
X125133444Y-78561585D01*
X125067753Y-78763760D01*
X125034500Y-78973713D01*
X125034500Y-79186287D01*
X125038009Y-79208443D01*
X125067735Y-79396127D01*
X125067754Y-79396243D01*
X125114531Y-79540208D01*
X125133444Y-79598414D01*
X125229951Y-79787820D01*
X125354890Y-79959786D01*
X125505213Y-80110109D01*
X125677179Y-80235048D01*
X125677181Y-80235049D01*
X125677184Y-80235051D01*
X125686493Y-80239794D01*
X125737290Y-80287766D01*
X125754087Y-80355587D01*
X125731552Y-80421722D01*
X125686505Y-80460760D01*
X125677446Y-80465376D01*
X125677440Y-80465380D01*
X125623282Y-80504727D01*
X125623282Y-80504728D01*
X126255591Y-81137037D01*
X126192007Y-81154075D01*
X126077993Y-81219901D01*
X125984901Y-81312993D01*
X125919075Y-81427007D01*
X125902037Y-81490591D01*
X125269728Y-80858282D01*
X125269727Y-80858282D01*
X125230380Y-80912439D01*
X125133904Y-81101782D01*
X125068242Y-81303869D01*
X125068242Y-81303872D01*
X125035000Y-81513753D01*
X125035000Y-81726246D01*
X125068242Y-81936127D01*
X125068242Y-81936130D01*
X125133904Y-82138217D01*
X125230375Y-82327550D01*
X125269728Y-82381716D01*
X125902037Y-81749408D01*
X125919075Y-81812993D01*
X125984901Y-81927007D01*
X126077993Y-82020099D01*
X126192007Y-82085925D01*
X126255590Y-82102962D01*
X125623282Y-82735269D01*
X125623282Y-82735270D01*
X125677452Y-82774626D01*
X125677451Y-82774626D01*
X125686495Y-82779234D01*
X125737292Y-82827208D01*
X125754087Y-82895029D01*
X125731550Y-82961164D01*
X125686499Y-83000202D01*
X125677182Y-83004949D01*
X125505213Y-83129890D01*
X125354890Y-83280213D01*
X125229951Y-83452179D01*
X125133444Y-83641585D01*
X125067753Y-83843760D01*
X125066291Y-83852993D01*
X125034500Y-84053713D01*
X125034500Y-84266287D01*
X125038645Y-84292455D01*
X125067735Y-84476127D01*
X125067754Y-84476243D01*
X125126359Y-84656611D01*
X125133444Y-84678414D01*
X125229951Y-84867820D01*
X125354890Y-85039786D01*
X125505213Y-85190109D01*
X125677179Y-85315048D01*
X125677181Y-85315049D01*
X125677184Y-85315051D01*
X125866588Y-85411557D01*
X126068757Y-85477246D01*
X126278713Y-85510500D01*
X126278714Y-85510500D01*
X126491286Y-85510500D01*
X126491287Y-85510500D01*
X126701243Y-85477246D01*
X126903412Y-85411557D01*
X127092816Y-85315051D01*
X127147572Y-85275269D01*
X127264786Y-85190109D01*
X127264788Y-85190106D01*
X127264792Y-85190104D01*
X127408077Y-85046819D01*
X127469400Y-85013334D01*
X127495758Y-85010500D01*
X129836349Y-85010500D01*
X129903388Y-85030185D01*
X129924030Y-85046819D01*
X135341912Y-90464700D01*
X135375397Y-90526023D01*
X135370413Y-90595715D01*
X135328541Y-90651648D01*
X135273631Y-90674854D01*
X135223758Y-90682753D01*
X135021585Y-90748444D01*
X134832179Y-90844951D01*
X134660213Y-90969890D01*
X134509890Y-91120213D01*
X134384949Y-91292182D01*
X134380484Y-91300946D01*
X134332509Y-91351742D01*
X134264688Y-91368536D01*
X134198553Y-91345998D01*
X134159516Y-91300946D01*
X134155050Y-91292182D01*
X134030109Y-91120213D01*
X133879786Y-90969890D01*
X133707820Y-90844951D01*
X133518414Y-90748444D01*
X133518413Y-90748443D01*
X133518412Y-90748443D01*
X133316243Y-90682754D01*
X133316241Y-90682753D01*
X133316240Y-90682753D01*
X133154957Y-90657208D01*
X133106287Y-90649500D01*
X132893713Y-90649500D01*
X132845042Y-90657208D01*
X132683760Y-90682753D01*
X132481585Y-90748444D01*
X132292179Y-90844951D01*
X132120213Y-90969890D01*
X131969890Y-91120213D01*
X131844949Y-91292182D01*
X131840484Y-91300946D01*
X131792509Y-91351742D01*
X131724688Y-91368536D01*
X131658553Y-91345998D01*
X131619516Y-91300946D01*
X131615050Y-91292182D01*
X131490109Y-91120213D01*
X131339786Y-90969890D01*
X131167820Y-90844951D01*
X130978414Y-90748444D01*
X130978413Y-90748443D01*
X130978412Y-90748443D01*
X130776243Y-90682754D01*
X130776241Y-90682753D01*
X130776240Y-90682753D01*
X130614957Y-90657208D01*
X130566287Y-90649500D01*
X130353713Y-90649500D01*
X130305042Y-90657208D01*
X130143760Y-90682753D01*
X129941585Y-90748444D01*
X129752179Y-90844951D01*
X129580215Y-90969889D01*
X129466673Y-91083431D01*
X129405350Y-91116915D01*
X129335658Y-91111931D01*
X129279725Y-91070059D01*
X129262810Y-91039082D01*
X129213797Y-90907671D01*
X129213793Y-90907664D01*
X129127547Y-90792455D01*
X129127544Y-90792452D01*
X129012335Y-90706206D01*
X129012328Y-90706202D01*
X128877482Y-90655908D01*
X128877483Y-90655908D01*
X128817883Y-90649501D01*
X128817881Y-90649500D01*
X128817873Y-90649500D01*
X128817864Y-90649500D01*
X127022129Y-90649500D01*
X127022123Y-90649501D01*
X126962516Y-90655908D01*
X126827671Y-90706202D01*
X126827664Y-90706206D01*
X126712455Y-90792452D01*
X126712452Y-90792455D01*
X126626206Y-90907664D01*
X126626202Y-90907671D01*
X126575908Y-91042517D01*
X126569501Y-91102116D01*
X126569500Y-91102135D01*
X126569500Y-92897870D01*
X126569501Y-92897876D01*
X126575908Y-92957483D01*
X126626202Y-93092328D01*
X126626206Y-93092335D01*
X126712452Y-93207544D01*
X126712455Y-93207547D01*
X126827664Y-93293793D01*
X126827671Y-93293797D01*
X126962517Y-93344091D01*
X126962516Y-93344091D01*
X126969444Y-93344835D01*
X127022127Y-93350500D01*
X128817872Y-93350499D01*
X128877483Y-93344091D01*
X129012331Y-93293796D01*
X129127546Y-93207546D01*
X129213796Y-93092331D01*
X129262810Y-92960916D01*
X129304681Y-92904984D01*
X129370145Y-92880566D01*
X129438418Y-92895417D01*
X129466673Y-92916569D01*
X129580213Y-93030109D01*
X129752179Y-93155048D01*
X129752181Y-93155049D01*
X129752184Y-93155051D01*
X129941588Y-93251557D01*
X130143757Y-93317246D01*
X130353713Y-93350500D01*
X130353714Y-93350500D01*
X130566286Y-93350500D01*
X130566287Y-93350500D01*
X130776243Y-93317246D01*
X130978412Y-93251557D01*
X131167816Y-93155051D01*
X131254138Y-93092335D01*
X131339786Y-93030109D01*
X131339788Y-93030106D01*
X131339792Y-93030104D01*
X131490104Y-92879792D01*
X131490106Y-92879788D01*
X131490109Y-92879786D01*
X131615048Y-92707820D01*
X131615047Y-92707820D01*
X131615051Y-92707816D01*
X131619514Y-92699054D01*
X131667488Y-92648259D01*
X131735308Y-92631463D01*
X131801444Y-92653999D01*
X131840486Y-92699056D01*
X131844951Y-92707820D01*
X131969890Y-92879786D01*
X132120213Y-93030109D01*
X132292179Y-93155048D01*
X132292181Y-93155049D01*
X132292184Y-93155051D01*
X132481588Y-93251557D01*
X132683757Y-93317246D01*
X132893713Y-93350500D01*
X132893714Y-93350500D01*
X133106286Y-93350500D01*
X133106287Y-93350500D01*
X133316243Y-93317246D01*
X133518412Y-93251557D01*
X133707816Y-93155051D01*
X133794138Y-93092335D01*
X133879786Y-93030109D01*
X133879788Y-93030106D01*
X133879792Y-93030104D01*
X134030104Y-92879792D01*
X134030106Y-92879788D01*
X134030109Y-92879786D01*
X134155048Y-92707820D01*
X134155047Y-92707820D01*
X134155051Y-92707816D01*
X134159514Y-92699054D01*
X134207488Y-92648259D01*
X134275308Y-92631463D01*
X134341444Y-92653999D01*
X134380486Y-92699056D01*
X134384951Y-92707820D01*
X134509890Y-92879786D01*
X134660213Y-93030109D01*
X134832179Y-93155048D01*
X134832181Y-93155049D01*
X134832184Y-93155051D01*
X135021588Y-93251557D01*
X135223757Y-93317246D01*
X135433713Y-93350500D01*
X135433714Y-93350500D01*
X135646286Y-93350500D01*
X135646287Y-93350500D01*
X135856243Y-93317246D01*
X136058412Y-93251557D01*
X136247816Y-93155051D01*
X136334138Y-93092335D01*
X136419786Y-93030109D01*
X136419788Y-93030106D01*
X136419792Y-93030104D01*
X136570104Y-92879792D01*
X136570106Y-92879788D01*
X136570109Y-92879786D01*
X136695048Y-92707820D01*
X136695047Y-92707820D01*
X136695051Y-92707816D01*
X136699514Y-92699054D01*
X136747488Y-92648259D01*
X136815308Y-92631463D01*
X136881444Y-92653999D01*
X136920486Y-92699056D01*
X136924951Y-92707820D01*
X137049890Y-92879786D01*
X137200213Y-93030109D01*
X137372179Y-93155048D01*
X137372181Y-93155049D01*
X137372184Y-93155051D01*
X137561588Y-93251557D01*
X137763757Y-93317246D01*
X137973713Y-93350500D01*
X137973714Y-93350500D01*
X138186286Y-93350500D01*
X138186287Y-93350500D01*
X138396243Y-93317246D01*
X138598412Y-93251557D01*
X138787816Y-93155051D01*
X138874138Y-93092335D01*
X138959786Y-93030109D01*
X138959788Y-93030106D01*
X138959792Y-93030104D01*
X139110104Y-92879792D01*
X139110106Y-92879788D01*
X139110109Y-92879786D01*
X139195890Y-92761717D01*
X139235051Y-92707816D01*
X139239793Y-92698508D01*
X139287763Y-92647711D01*
X139355583Y-92630911D01*
X139421719Y-92653445D01*
X139460763Y-92698500D01*
X139465373Y-92707547D01*
X139504728Y-92761716D01*
X140137037Y-92129408D01*
X140154075Y-92192993D01*
X140219901Y-92307007D01*
X140312993Y-92400099D01*
X140427007Y-92465925D01*
X140490590Y-92482962D01*
X139858282Y-93115269D01*
X139858282Y-93115270D01*
X139912449Y-93154624D01*
X140101782Y-93251095D01*
X140303870Y-93316757D01*
X140513754Y-93350000D01*
X140726246Y-93350000D01*
X140936127Y-93316757D01*
X140936130Y-93316757D01*
X141138217Y-93251095D01*
X141327554Y-93154622D01*
X141381716Y-93115270D01*
X141381717Y-93115270D01*
X140749408Y-92482962D01*
X140812993Y-92465925D01*
X140927007Y-92400099D01*
X141020099Y-92307007D01*
X141085925Y-92192993D01*
X141102962Y-92129408D01*
X141735270Y-92761717D01*
X141735270Y-92761716D01*
X141774622Y-92707554D01*
X141871095Y-92518217D01*
X141936757Y-92316130D01*
X141936757Y-92316127D01*
X141970000Y-92106246D01*
X141970000Y-91893753D01*
X141936757Y-91683872D01*
X141936757Y-91683869D01*
X141871095Y-91481782D01*
X141774624Y-91292449D01*
X141735270Y-91238282D01*
X141735269Y-91238282D01*
X141102962Y-91870590D01*
X141085925Y-91807007D01*
X141020099Y-91692993D01*
X140927007Y-91599901D01*
X140812993Y-91534075D01*
X140749409Y-91517037D01*
X141381716Y-90884728D01*
X141327550Y-90845375D01*
X141138217Y-90748904D01*
X140936129Y-90683242D01*
X140726246Y-90650000D01*
X140513754Y-90650000D01*
X140303872Y-90683242D01*
X140303869Y-90683242D01*
X140101782Y-90748904D01*
X139912439Y-90845380D01*
X139858282Y-90884727D01*
X139858282Y-90884728D01*
X140490591Y-91517037D01*
X140427007Y-91534075D01*
X140312993Y-91599901D01*
X140219901Y-91692993D01*
X140154075Y-91807007D01*
X140137037Y-91870590D01*
X139504728Y-91238282D01*
X139504727Y-91238282D01*
X139465380Y-91292440D01*
X139465376Y-91292446D01*
X139460760Y-91301505D01*
X139412781Y-91352297D01*
X139344959Y-91369087D01*
X139278826Y-91346543D01*
X139239794Y-91301493D01*
X139235051Y-91292184D01*
X139235049Y-91292181D01*
X139235048Y-91292179D01*
X139110109Y-91120213D01*
X138959786Y-90969890D01*
X138787820Y-90844951D01*
X138598414Y-90748444D01*
X138598413Y-90748443D01*
X138598412Y-90748443D01*
X138396243Y-90682754D01*
X138396241Y-90682753D01*
X138396240Y-90682753D01*
X138234957Y-90657208D01*
X138186287Y-90649500D01*
X137983650Y-90649500D01*
X137916611Y-90629815D01*
X137895969Y-90613181D01*
X134751441Y-87468652D01*
X134668626Y-87385837D01*
X145899500Y-87385837D01*
X145899500Y-87614162D01*
X145935215Y-87839660D01*
X146005770Y-88056803D01*
X146109421Y-88260228D01*
X146243621Y-88444937D01*
X146405063Y-88606379D01*
X146589772Y-88740579D01*
X146685884Y-88789550D01*
X146793196Y-88844229D01*
X146793198Y-88844229D01*
X146793201Y-88844231D01*
X146909592Y-88882049D01*
X147010339Y-88914784D01*
X147235838Y-88950500D01*
X147235843Y-88950500D01*
X148764162Y-88950500D01*
X148989660Y-88914784D01*
X149206799Y-88844231D01*
X149410228Y-88740579D01*
X149594937Y-88606379D01*
X149664497Y-88536819D01*
X149725820Y-88503334D01*
X149752178Y-88500500D01*
X158747822Y-88500500D01*
X158814861Y-88520185D01*
X158835503Y-88536819D01*
X158905063Y-88606379D01*
X159089772Y-88740579D01*
X159185884Y-88789550D01*
X159293196Y-88844229D01*
X159293198Y-88844229D01*
X159293201Y-88844231D01*
X159409592Y-88882049D01*
X159510339Y-88914784D01*
X159735838Y-88950500D01*
X159735843Y-88950500D01*
X161264162Y-88950500D01*
X161489660Y-88914784D01*
X161706799Y-88844231D01*
X161910228Y-88740579D01*
X162094937Y-88606379D01*
X162256379Y-88444937D01*
X162390579Y-88260228D01*
X162494231Y-88056799D01*
X162564784Y-87839660D01*
X162600500Y-87614162D01*
X162600500Y-87385837D01*
X162564784Y-87160339D01*
X162494229Y-86943196D01*
X162438487Y-86833797D01*
X162390579Y-86739772D01*
X162256379Y-86555063D01*
X162094937Y-86393621D01*
X161910228Y-86259421D01*
X161706803Y-86155770D01*
X161489660Y-86085215D01*
X161264162Y-86049500D01*
X161264157Y-86049500D01*
X159735843Y-86049500D01*
X159735838Y-86049500D01*
X159510339Y-86085215D01*
X159293196Y-86155770D01*
X159089771Y-86259421D01*
X158905061Y-86393622D01*
X158905060Y-86393623D01*
X158835503Y-86463181D01*
X158774180Y-86496666D01*
X158747822Y-86499500D01*
X149752178Y-86499500D01*
X149685139Y-86479815D01*
X149664497Y-86463181D01*
X149594938Y-86393622D01*
X149410228Y-86259421D01*
X149206803Y-86155770D01*
X148989660Y-86085215D01*
X148764162Y-86049500D01*
X148764157Y-86049500D01*
X147235843Y-86049500D01*
X147235838Y-86049500D01*
X147010339Y-86085215D01*
X146793196Y-86155770D01*
X146589771Y-86259421D01*
X146405061Y-86393622D01*
X146243622Y-86555061D01*
X146109421Y-86739771D01*
X146005770Y-86943196D01*
X145935215Y-87160339D01*
X145899500Y-87385837D01*
X134668626Y-87385837D01*
X132598482Y-85315692D01*
X130782165Y-83499375D01*
X130782161Y-83499372D01*
X130642866Y-83406297D01*
X130642863Y-83406296D01*
X130508159Y-83350500D01*
X130488085Y-83342185D01*
X130488075Y-83342182D01*
X130323771Y-83309500D01*
X130323767Y-83309500D01*
X127495758Y-83309500D01*
X127428719Y-83289815D01*
X127408077Y-83273181D01*
X127264786Y-83129890D01*
X127092817Y-83004949D01*
X127083504Y-83000204D01*
X127032707Y-82952230D01*
X127015912Y-82884409D01*
X127038449Y-82818274D01*
X127083507Y-82779232D01*
X127092555Y-82774622D01*
X127146716Y-82735270D01*
X127146717Y-82735270D01*
X126514408Y-82102962D01*
X126577993Y-82085925D01*
X126692007Y-82020099D01*
X126785099Y-81927007D01*
X126850925Y-81812993D01*
X126867962Y-81749408D01*
X127500270Y-82381717D01*
X127500270Y-82381716D01*
X127539622Y-82327554D01*
X127636095Y-82138217D01*
X127701757Y-81936130D01*
X127701757Y-81936127D01*
X127735000Y-81726246D01*
X127735000Y-81513753D01*
X127701757Y-81303872D01*
X127701757Y-81303869D01*
X127636095Y-81101782D01*
X127539624Y-80912449D01*
X127500270Y-80858282D01*
X127500269Y-80858282D01*
X126867962Y-81490590D01*
X126850925Y-81427007D01*
X126785099Y-81312993D01*
X126692007Y-81219901D01*
X126577993Y-81154075D01*
X126514409Y-81137037D01*
X127146716Y-80504728D01*
X127092547Y-80465373D01*
X127092547Y-80465372D01*
X127083500Y-80460763D01*
X127032706Y-80412788D01*
X127015912Y-80344966D01*
X127038451Y-80278832D01*
X127083508Y-80239793D01*
X127092816Y-80235051D01*
X127172007Y-80177515D01*
X127264786Y-80110109D01*
X127264788Y-80110106D01*
X127264792Y-80110104D01*
X127415104Y-79959792D01*
X127415106Y-79959788D01*
X127415109Y-79959786D01*
X127540048Y-79787820D01*
X127540047Y-79787820D01*
X127540051Y-79787816D01*
X127636557Y-79598412D01*
X127702246Y-79396243D01*
X127735500Y-79186287D01*
X127735500Y-78973713D01*
X127702246Y-78763757D01*
X127636557Y-78561588D01*
X127540051Y-78372184D01*
X127540049Y-78372181D01*
X127540048Y-78372179D01*
X127415109Y-78200213D01*
X127264786Y-78049890D01*
X127092817Y-77924949D01*
X127083504Y-77920204D01*
X127032707Y-77872230D01*
X127015912Y-77804409D01*
X127038449Y-77738274D01*
X127083507Y-77699232D01*
X127092555Y-77694622D01*
X127146716Y-77655270D01*
X127146717Y-77655270D01*
X126514408Y-77022962D01*
X126577993Y-77005925D01*
X126692007Y-76940099D01*
X126785099Y-76847007D01*
X126850925Y-76732993D01*
X126867962Y-76669408D01*
X127500270Y-77301717D01*
X127500270Y-77301716D01*
X127539622Y-77247554D01*
X127636095Y-77058217D01*
X127701757Y-76856130D01*
X127701757Y-76856127D01*
X127735000Y-76646246D01*
X127735000Y-76433753D01*
X127701757Y-76223872D01*
X127701757Y-76223869D01*
X127636095Y-76021782D01*
X127539624Y-75832449D01*
X127500270Y-75778282D01*
X127500269Y-75778282D01*
X126867962Y-76410590D01*
X126850925Y-76347007D01*
X126785099Y-76232993D01*
X126692007Y-76139901D01*
X126577993Y-76074075D01*
X126514408Y-76057037D01*
X127184627Y-75386818D01*
X127245950Y-75353333D01*
X127272308Y-75350499D01*
X127282871Y-75350499D01*
X127282872Y-75350499D01*
X127342483Y-75344091D01*
X127477331Y-75293796D01*
X127592546Y-75207546D01*
X127678796Y-75092331D01*
X127729091Y-74957483D01*
X127735500Y-74897873D01*
X127735499Y-73102128D01*
X127729091Y-73042517D01*
X127726995Y-73036898D01*
X127678797Y-72907671D01*
X127678793Y-72907664D01*
X127592547Y-72792455D01*
X127592544Y-72792452D01*
X127477335Y-72706206D01*
X127477328Y-72706202D01*
X127342482Y-72655908D01*
X127342483Y-72655908D01*
X127282883Y-72649501D01*
X127282881Y-72649500D01*
X127282873Y-72649500D01*
X127282865Y-72649500D01*
X126500782Y-72649500D01*
X126433743Y-72629815D01*
X126413101Y-72613181D01*
X120496819Y-66696899D01*
X120463334Y-66635576D01*
X120460500Y-66609218D01*
X120460500Y-63397682D01*
X126700000Y-63397682D01*
X126700000Y-63602317D01*
X126732009Y-63804417D01*
X126795244Y-63999031D01*
X126888141Y-64181350D01*
X126888147Y-64181359D01*
X126920523Y-64225921D01*
X126920524Y-64225922D01*
X127600000Y-63546446D01*
X127600000Y-63552661D01*
X127627259Y-63654394D01*
X127679920Y-63745606D01*
X127754394Y-63820080D01*
X127845606Y-63872741D01*
X127947339Y-63900000D01*
X127953553Y-63900000D01*
X127274076Y-64579474D01*
X127318650Y-64611859D01*
X127500968Y-64704755D01*
X127695582Y-64767990D01*
X127897683Y-64800000D01*
X128102317Y-64800000D01*
X128304417Y-64767990D01*
X128499031Y-64704755D01*
X128681349Y-64611859D01*
X128725921Y-64579474D01*
X128046447Y-63900000D01*
X128052661Y-63900000D01*
X128154394Y-63872741D01*
X128245606Y-63820080D01*
X128320080Y-63745606D01*
X128372741Y-63654394D01*
X128400000Y-63552661D01*
X128400000Y-63546448D01*
X129079474Y-64225922D01*
X129079474Y-64225921D01*
X129111859Y-64181349D01*
X129204755Y-63999031D01*
X129267990Y-63804417D01*
X129300000Y-63602317D01*
X129300000Y-63397682D01*
X129267990Y-63195582D01*
X129204754Y-63000965D01*
X129180381Y-62953130D01*
X129180380Y-62953129D01*
X129153301Y-62899983D01*
X130199500Y-62899983D01*
X130199500Y-64100001D01*
X130199501Y-64100018D01*
X130210000Y-64202796D01*
X130210001Y-64202799D01*
X130253699Y-64334670D01*
X130265186Y-64369334D01*
X130357288Y-64518656D01*
X130481344Y-64642712D01*
X130630666Y-64734814D01*
X130797203Y-64789999D01*
X130899991Y-64800500D01*
X132100008Y-64800499D01*
X132202797Y-64789999D01*
X132369334Y-64734814D01*
X132518656Y-64642712D01*
X132642712Y-64518656D01*
X132734814Y-64369334D01*
X132789999Y-64202797D01*
X132800500Y-64100009D01*
X132800499Y-63397648D01*
X137199500Y-63397648D01*
X137199500Y-63602351D01*
X137231522Y-63804534D01*
X137294781Y-63999223D01*
X137353911Y-64115270D01*
X137387713Y-64181610D01*
X137475819Y-64302877D01*
X137499298Y-64368681D01*
X137499500Y-64375761D01*
X137499500Y-73513544D01*
X137501838Y-73525296D01*
X137502070Y-73526460D01*
X137537949Y-73706836D01*
X137541194Y-73714669D01*
X137545422Y-73724877D01*
X137545423Y-73724880D01*
X137613369Y-73888917D01*
X137722859Y-74052780D01*
X137722860Y-74052781D01*
X137722861Y-74052782D01*
X137862218Y-74192139D01*
X137862219Y-74192139D01*
X137869286Y-74199206D01*
X137869285Y-74199206D01*
X137869289Y-74199209D01*
X140238576Y-76568496D01*
X140272061Y-76629819D01*
X140274350Y-76645344D01*
X140307736Y-76856130D01*
X140307754Y-76856243D01*
X140354531Y-77000208D01*
X140373444Y-77058414D01*
X140469951Y-77247820D01*
X140594890Y-77419786D01*
X140745213Y-77570109D01*
X140917179Y-77695048D01*
X140917181Y-77695049D01*
X140917184Y-77695051D01*
X140926493Y-77699794D01*
X140977290Y-77747766D01*
X140994087Y-77815587D01*
X140971552Y-77881722D01*
X140926505Y-77920760D01*
X140917446Y-77925376D01*
X140917440Y-77925380D01*
X140863282Y-77964727D01*
X140863282Y-77964728D01*
X141495591Y-78597037D01*
X141432007Y-78614075D01*
X141317993Y-78679901D01*
X141224901Y-78772993D01*
X141159075Y-78887007D01*
X141142037Y-78950591D01*
X140509728Y-78318282D01*
X140509727Y-78318282D01*
X140470380Y-78372439D01*
X140373904Y-78561782D01*
X140308242Y-78763869D01*
X140308242Y-78763872D01*
X140275000Y-78973753D01*
X140275000Y-79186246D01*
X140308242Y-79396127D01*
X140308242Y-79396130D01*
X140373904Y-79598217D01*
X140470375Y-79787550D01*
X140509728Y-79841716D01*
X141142037Y-79209408D01*
X141159075Y-79272993D01*
X141224901Y-79387007D01*
X141317993Y-79480099D01*
X141432007Y-79545925D01*
X141495590Y-79562962D01*
X140863282Y-80195269D01*
X140863282Y-80195270D01*
X140917452Y-80234626D01*
X140917451Y-80234626D01*
X140926495Y-80239234D01*
X140977292Y-80287208D01*
X140994087Y-80355029D01*
X140971550Y-80421164D01*
X140926499Y-80460202D01*
X140917182Y-80464949D01*
X140745213Y-80589890D01*
X140594890Y-80740213D01*
X140469951Y-80912179D01*
X140373444Y-81101585D01*
X140307753Y-81303760D01*
X140274500Y-81513713D01*
X140274500Y-81726286D01*
X140307753Y-81936239D01*
X140373444Y-82138414D01*
X140469951Y-82327820D01*
X140594890Y-82499786D01*
X140745213Y-82650109D01*
X140917179Y-82775048D01*
X140917181Y-82775049D01*
X140917184Y-82775051D01*
X140926493Y-82779794D01*
X140977290Y-82827766D01*
X140994087Y-82895587D01*
X140971552Y-82961722D01*
X140926505Y-83000760D01*
X140917446Y-83005376D01*
X140917440Y-83005380D01*
X140863282Y-83044727D01*
X140863282Y-83044728D01*
X141495591Y-83677037D01*
X141432007Y-83694075D01*
X141317993Y-83759901D01*
X141224901Y-83852993D01*
X141159075Y-83967007D01*
X141142037Y-84030591D01*
X140509728Y-83398282D01*
X140509727Y-83398282D01*
X140470380Y-83452439D01*
X140373904Y-83641782D01*
X140308242Y-83843869D01*
X140308242Y-83843872D01*
X140275000Y-84053753D01*
X140275000Y-84266246D01*
X140308242Y-84476127D01*
X140308242Y-84476130D01*
X140373904Y-84678217D01*
X140470375Y-84867550D01*
X140509728Y-84921716D01*
X141142037Y-84289408D01*
X141159075Y-84352993D01*
X141224901Y-84467007D01*
X141317993Y-84560099D01*
X141432007Y-84625925D01*
X141495590Y-84642962D01*
X140863282Y-85275269D01*
X140863282Y-85275270D01*
X140917449Y-85314624D01*
X141106782Y-85411095D01*
X141308870Y-85476757D01*
X141518754Y-85510000D01*
X141731246Y-85510000D01*
X141941127Y-85476757D01*
X141941130Y-85476757D01*
X142143217Y-85411095D01*
X142332554Y-85314622D01*
X142386716Y-85275270D01*
X142386717Y-85275270D01*
X141754408Y-84642962D01*
X141817993Y-84625925D01*
X141932007Y-84560099D01*
X142025099Y-84467007D01*
X142090925Y-84352993D01*
X142107962Y-84289408D01*
X142740270Y-84921717D01*
X142740270Y-84921716D01*
X142779622Y-84867554D01*
X142876095Y-84678217D01*
X142901351Y-84600488D01*
X142941757Y-84476130D01*
X142941757Y-84476127D01*
X142975000Y-84266246D01*
X142975000Y-84053753D01*
X142941757Y-83843872D01*
X142941757Y-83843869D01*
X142876095Y-83641782D01*
X142779624Y-83452449D01*
X142740270Y-83398282D01*
X142740269Y-83398282D01*
X142107962Y-84030590D01*
X142090925Y-83967007D01*
X142025099Y-83852993D01*
X141932007Y-83759901D01*
X141817993Y-83694075D01*
X141754409Y-83677037D01*
X142386716Y-83044728D01*
X142332547Y-83005373D01*
X142323500Y-83000763D01*
X142272706Y-82952788D01*
X142255912Y-82884966D01*
X142278451Y-82818832D01*
X142323508Y-82779793D01*
X142332816Y-82775051D01*
X142458314Y-82683872D01*
X142504786Y-82650109D01*
X142504788Y-82650106D01*
X142504792Y-82650104D01*
X142655104Y-82499792D01*
X142655106Y-82499788D01*
X142655109Y-82499786D01*
X142737897Y-82385837D01*
X145899500Y-82385837D01*
X145899500Y-82614162D01*
X145935215Y-82839660D01*
X146005770Y-83056803D01*
X146054782Y-83152993D01*
X146109421Y-83260228D01*
X146243621Y-83444937D01*
X146405063Y-83606379D01*
X146589772Y-83740579D01*
X146627694Y-83759901D01*
X146793196Y-83844229D01*
X146793198Y-83844229D01*
X146793201Y-83844231D01*
X146820168Y-83852993D01*
X147010339Y-83914784D01*
X147235838Y-83950500D01*
X147235843Y-83950500D01*
X148764162Y-83950500D01*
X148989660Y-83914784D01*
X149206799Y-83844231D01*
X149207510Y-83843869D01*
X149280956Y-83806446D01*
X149410228Y-83740579D01*
X149594937Y-83606379D01*
X149756379Y-83444937D01*
X149779983Y-83412449D01*
X149787856Y-83401614D01*
X149843186Y-83358948D01*
X149888173Y-83350500D01*
X158611827Y-83350500D01*
X158678866Y-83370185D01*
X158712144Y-83401614D01*
X158729808Y-83425925D01*
X158743621Y-83444937D01*
X158905063Y-83606379D01*
X159089772Y-83740579D01*
X159127694Y-83759901D01*
X159293196Y-83844229D01*
X159293198Y-83844229D01*
X159293201Y-83844231D01*
X159320168Y-83852993D01*
X159510339Y-83914784D01*
X159735838Y-83950500D01*
X159735843Y-83950500D01*
X161264162Y-83950500D01*
X161489660Y-83914784D01*
X161706799Y-83844231D01*
X161707510Y-83843869D01*
X161780956Y-83806446D01*
X161910228Y-83740579D01*
X162094937Y-83606379D01*
X162256379Y-83444937D01*
X162390579Y-83260228D01*
X162494231Y-83056799D01*
X162546612Y-82895587D01*
X162561242Y-82850562D01*
X162561242Y-82850561D01*
X162564783Y-82839664D01*
X162564783Y-82839663D01*
X162564784Y-82839660D01*
X162588014Y-82692993D01*
X162600500Y-82614162D01*
X162600500Y-82385837D01*
X162564784Y-82160339D01*
X162494229Y-81943196D01*
X162427887Y-81812993D01*
X162390579Y-81739772D01*
X162256379Y-81555063D01*
X162094937Y-81393621D01*
X161910228Y-81259421D01*
X161706803Y-81155770D01*
X161489660Y-81085215D01*
X161264162Y-81049500D01*
X161264157Y-81049500D01*
X159735843Y-81049500D01*
X159735838Y-81049500D01*
X159510339Y-81085215D01*
X159293196Y-81155770D01*
X159089771Y-81259421D01*
X158905061Y-81393622D01*
X158743623Y-81555060D01*
X158743616Y-81555069D01*
X158712144Y-81598386D01*
X158656814Y-81641052D01*
X158611827Y-81649500D01*
X149888173Y-81649500D01*
X149821134Y-81629815D01*
X149787856Y-81598386D01*
X149756383Y-81555069D01*
X149756379Y-81555063D01*
X149594937Y-81393621D01*
X149410228Y-81259421D01*
X149206803Y-81155770D01*
X148989660Y-81085215D01*
X148764162Y-81049500D01*
X148764157Y-81049500D01*
X147235843Y-81049500D01*
X147235838Y-81049500D01*
X147010339Y-81085215D01*
X146793196Y-81155770D01*
X146589771Y-81259421D01*
X146405061Y-81393622D01*
X146243622Y-81555061D01*
X146109421Y-81739771D01*
X146005770Y-81943196D01*
X145935215Y-82160339D01*
X145899500Y-82385837D01*
X142737897Y-82385837D01*
X142780050Y-82327817D01*
X142780187Y-82327550D01*
X142780795Y-82326354D01*
X142781653Y-82324673D01*
X142825671Y-82238282D01*
X142876557Y-82138412D01*
X142942246Y-81936243D01*
X142975500Y-81726287D01*
X142975500Y-81513713D01*
X142942246Y-81303757D01*
X142876557Y-81101588D01*
X142780051Y-80912184D01*
X142780049Y-80912181D01*
X142780048Y-80912179D01*
X142655109Y-80740213D01*
X142504786Y-80589890D01*
X142332817Y-80464949D01*
X142323504Y-80460204D01*
X142272707Y-80412230D01*
X142255912Y-80344409D01*
X142278449Y-80278274D01*
X142323507Y-80239232D01*
X142332555Y-80234622D01*
X142386716Y-80195270D01*
X142386717Y-80195270D01*
X141754408Y-79562962D01*
X141817993Y-79545925D01*
X141932007Y-79480099D01*
X142025099Y-79387007D01*
X142090925Y-79272993D01*
X142107962Y-79209408D01*
X142740270Y-79841717D01*
X142740270Y-79841716D01*
X142779622Y-79787554D01*
X142876095Y-79598217D01*
X142941757Y-79396130D01*
X142941757Y-79396127D01*
X142975000Y-79186246D01*
X142975000Y-78973753D01*
X142941757Y-78763872D01*
X142941757Y-78763869D01*
X142876095Y-78561782D01*
X142779624Y-78372449D01*
X142740270Y-78318282D01*
X142740269Y-78318282D01*
X142107962Y-78950590D01*
X142090925Y-78887007D01*
X142025099Y-78772993D01*
X141932007Y-78679901D01*
X141817993Y-78614075D01*
X141754409Y-78597037D01*
X142386716Y-77964728D01*
X142332547Y-77925373D01*
X142332547Y-77925372D01*
X142323500Y-77920763D01*
X142272706Y-77872788D01*
X142255912Y-77804966D01*
X142278451Y-77738832D01*
X142323508Y-77699793D01*
X142332816Y-77695051D01*
X142441909Y-77615791D01*
X142504786Y-77570109D01*
X142504788Y-77570106D01*
X142504792Y-77570104D01*
X142655104Y-77419792D01*
X142655106Y-77419788D01*
X142655109Y-77419786D01*
X142780048Y-77247820D01*
X142780047Y-77247820D01*
X142780051Y-77247816D01*
X142876557Y-77058412D01*
X142942246Y-76856243D01*
X142975500Y-76646287D01*
X142975500Y-76433713D01*
X142942246Y-76223757D01*
X142876557Y-76021588D01*
X142780051Y-75832184D01*
X142780049Y-75832181D01*
X142780048Y-75832179D01*
X142655109Y-75660213D01*
X142504786Y-75509890D01*
X142332820Y-75384951D01*
X142331362Y-75384208D01*
X142324054Y-75380485D01*
X142273259Y-75332512D01*
X142256463Y-75264692D01*
X142278999Y-75198556D01*
X142324054Y-75159515D01*
X142332816Y-75155051D01*
X142419138Y-75092335D01*
X142504786Y-75030109D01*
X142504788Y-75030106D01*
X142504792Y-75030104D01*
X142655104Y-74879792D01*
X142655106Y-74879788D01*
X142655109Y-74879786D01*
X142764086Y-74729789D01*
X142780051Y-74707816D01*
X142876557Y-74518412D01*
X142942246Y-74316243D01*
X142975500Y-74106287D01*
X142975500Y-73893713D01*
X142975041Y-73890815D01*
X142975147Y-73885369D01*
X142974007Y-73882470D01*
X142975897Y-73847226D01*
X142992840Y-73762050D01*
X143000500Y-73723541D01*
X143000500Y-71053610D01*
X143006801Y-71032148D01*
X143008481Y-71009842D01*
X143016455Y-70999271D01*
X143020185Y-70986571D01*
X143037087Y-70971925D01*
X143050561Y-70954066D01*
X143062984Y-70949485D01*
X143072989Y-70940816D01*
X143095129Y-70937632D01*
X143116117Y-70929894D01*
X143129041Y-70932756D01*
X143142147Y-70930872D01*
X143162495Y-70940164D01*
X143184333Y-70945001D01*
X143198043Y-70956398D01*
X143205703Y-70959897D01*
X143212509Y-70966257D01*
X143219606Y-70973407D01*
X143221861Y-70976782D01*
X143361218Y-71116139D01*
X143361220Y-71116140D01*
X143368617Y-71123537D01*
X144904215Y-72659137D01*
X144904219Y-72659140D01*
X145068079Y-72768628D01*
X145068085Y-72768631D01*
X145068086Y-72768632D01*
X145250165Y-72844052D01*
X145443455Y-72882500D01*
X145443458Y-72882501D01*
X145443460Y-72882501D01*
X145640543Y-72882501D01*
X145640544Y-72882500D01*
X145833836Y-72844052D01*
X146015915Y-72768632D01*
X146179782Y-72659140D01*
X146319140Y-72519782D01*
X146428632Y-72355915D01*
X146504052Y-72173836D01*
X146542501Y-71980541D01*
X146542501Y-71783460D01*
X146542501Y-71783457D01*
X146542500Y-71783455D01*
X146522018Y-71680486D01*
X146504052Y-71590165D01*
X146445717Y-71449334D01*
X146428633Y-71408088D01*
X146428628Y-71408079D01*
X146319140Y-71244219D01*
X146319137Y-71244215D01*
X145035819Y-69960897D01*
X145021115Y-69933969D01*
X145004523Y-69908151D01*
X145003631Y-69901950D01*
X145002334Y-69899574D01*
X144999500Y-69873216D01*
X144999500Y-69789519D01*
X145019185Y-69722480D01*
X145071989Y-69676725D01*
X145141147Y-69666781D01*
X145204703Y-69695806D01*
X145211181Y-69701838D01*
X150053453Y-74544111D01*
X150053454Y-74544112D01*
X150168192Y-74620777D01*
X150292302Y-74672184D01*
X150295672Y-74673580D01*
X150295676Y-74673580D01*
X150295677Y-74673581D01*
X150431003Y-74700500D01*
X150431006Y-74700500D01*
X150431007Y-74700500D01*
X154999684Y-74700500D01*
X155047136Y-74709939D01*
X155191498Y-74769735D01*
X155191503Y-74769737D01*
X155346153Y-74800499D01*
X155346156Y-74800500D01*
X155346158Y-74800500D01*
X155503844Y-74800500D01*
X155503845Y-74800499D01*
X155658497Y-74769737D01*
X155804179Y-74709394D01*
X155935289Y-74621789D01*
X156046789Y-74510289D01*
X156134394Y-74379179D01*
X156194737Y-74233497D01*
X156225500Y-74078842D01*
X156225500Y-73921158D01*
X156225500Y-73921155D01*
X156225499Y-73921153D01*
X156220041Y-73893713D01*
X156194737Y-73766503D01*
X156192893Y-73762050D01*
X156134397Y-73620827D01*
X156134390Y-73620814D01*
X156046789Y-73489711D01*
X156046786Y-73489707D01*
X155935292Y-73378213D01*
X155935288Y-73378210D01*
X155804185Y-73290609D01*
X155804172Y-73290602D01*
X155658501Y-73230264D01*
X155658489Y-73230261D01*
X155503845Y-73199500D01*
X155503842Y-73199500D01*
X155346158Y-73199500D01*
X155346155Y-73199500D01*
X155191510Y-73230261D01*
X155191498Y-73230264D01*
X155047136Y-73290061D01*
X154999684Y-73299500D01*
X153025500Y-73299500D01*
X152958461Y-73279815D01*
X152912706Y-73227011D01*
X152901500Y-73175500D01*
X152901500Y-67653713D01*
X164649500Y-67653713D01*
X164649500Y-67866286D01*
X164676418Y-68036243D01*
X164682754Y-68076243D01*
X164744145Y-68265185D01*
X164748444Y-68278414D01*
X164844951Y-68467820D01*
X164969890Y-68639786D01*
X165120213Y-68790109D01*
X165292182Y-68915050D01*
X165300946Y-68919516D01*
X165351742Y-68967491D01*
X165368536Y-69035312D01*
X165345998Y-69101447D01*
X165300946Y-69140484D01*
X165292182Y-69144949D01*
X165120213Y-69269890D01*
X164969890Y-69420213D01*
X164844951Y-69592179D01*
X164748444Y-69781585D01*
X164682753Y-69983760D01*
X164649500Y-70193713D01*
X164649500Y-70406286D01*
X164676418Y-70576243D01*
X164682754Y-70616243D01*
X164687495Y-70630835D01*
X164748444Y-70818414D01*
X164844951Y-71007820D01*
X164969890Y-71179786D01*
X165120213Y-71330109D01*
X165292182Y-71455050D01*
X165300946Y-71459516D01*
X165351742Y-71507491D01*
X165368536Y-71575312D01*
X165345998Y-71641447D01*
X165300946Y-71680484D01*
X165292182Y-71684949D01*
X165120213Y-71809890D01*
X164969890Y-71960213D01*
X164844951Y-72132179D01*
X164748444Y-72321585D01*
X164682753Y-72523760D01*
X164649500Y-72733713D01*
X164649500Y-72946286D01*
X164677047Y-73120215D01*
X164682754Y-73156243D01*
X164729301Y-73299500D01*
X164748444Y-73358414D01*
X164844951Y-73547820D01*
X164969890Y-73719786D01*
X165120213Y-73870109D01*
X165292182Y-73995050D01*
X165300946Y-73999516D01*
X165351742Y-74047491D01*
X165368536Y-74115312D01*
X165345998Y-74181447D01*
X165300946Y-74220484D01*
X165292182Y-74224949D01*
X165120213Y-74349890D01*
X164969890Y-74500213D01*
X164844951Y-74672179D01*
X164748444Y-74861585D01*
X164682753Y-75063760D01*
X164649500Y-75273713D01*
X164649500Y-75486286D01*
X164677046Y-75660208D01*
X164682754Y-75696243D01*
X164727010Y-75832449D01*
X164748444Y-75898414D01*
X164844951Y-76087820D01*
X164969890Y-76259786D01*
X165120213Y-76410109D01*
X165292182Y-76535050D01*
X165300946Y-76539516D01*
X165351742Y-76587491D01*
X165368536Y-76655312D01*
X165345998Y-76721447D01*
X165300946Y-76760484D01*
X165292182Y-76764949D01*
X165120213Y-76889890D01*
X164969890Y-77040213D01*
X164844951Y-77212179D01*
X164748444Y-77401585D01*
X164682753Y-77603760D01*
X164649500Y-77813713D01*
X164649500Y-78026286D01*
X164680250Y-78220437D01*
X164682754Y-78236243D01*
X164727010Y-78372449D01*
X164748444Y-78438414D01*
X164844951Y-78627820D01*
X164969890Y-78799786D01*
X165120213Y-78950109D01*
X165292182Y-79075050D01*
X165300946Y-79079516D01*
X165351742Y-79127491D01*
X165368536Y-79195312D01*
X165345998Y-79261447D01*
X165300946Y-79300484D01*
X165292182Y-79304949D01*
X165120213Y-79429890D01*
X164969890Y-79580213D01*
X164844951Y-79752179D01*
X164748444Y-79941585D01*
X164682753Y-80143760D01*
X164649500Y-80353713D01*
X164649500Y-80566286D01*
X164677046Y-80740208D01*
X164682754Y-80776243D01*
X164727010Y-80912449D01*
X164748444Y-80978414D01*
X164844951Y-81167820D01*
X164969890Y-81339786D01*
X165120213Y-81490109D01*
X165292179Y-81615048D01*
X165292181Y-81615049D01*
X165292184Y-81615051D01*
X165301493Y-81619794D01*
X165352290Y-81667766D01*
X165369087Y-81735587D01*
X165346552Y-81801722D01*
X165301505Y-81840760D01*
X165292446Y-81845376D01*
X165292440Y-81845380D01*
X165238282Y-81884727D01*
X165238282Y-81884728D01*
X165870591Y-82517037D01*
X165807007Y-82534075D01*
X165692993Y-82599901D01*
X165599901Y-82692993D01*
X165534075Y-82807007D01*
X165517037Y-82870591D01*
X164884728Y-82238282D01*
X164884727Y-82238282D01*
X164845380Y-82292439D01*
X164748904Y-82481782D01*
X164683242Y-82683869D01*
X164683242Y-82683872D01*
X164650000Y-82893753D01*
X164650000Y-83106246D01*
X164683242Y-83316127D01*
X164683242Y-83316130D01*
X164748904Y-83518217D01*
X164845375Y-83707550D01*
X164884728Y-83761716D01*
X165517037Y-83129408D01*
X165534075Y-83192993D01*
X165599901Y-83307007D01*
X165692993Y-83400099D01*
X165807007Y-83465925D01*
X165870590Y-83482962D01*
X165200370Y-84153181D01*
X165139047Y-84186666D01*
X165112698Y-84189500D01*
X165102134Y-84189500D01*
X165102123Y-84189501D01*
X165042516Y-84195908D01*
X164907671Y-84246202D01*
X164907664Y-84246206D01*
X164792455Y-84332452D01*
X164792452Y-84332455D01*
X164706206Y-84447664D01*
X164706202Y-84447671D01*
X164655908Y-84582517D01*
X164652062Y-84618294D01*
X164649501Y-84642123D01*
X164649500Y-84642135D01*
X164649500Y-86437870D01*
X164649501Y-86437876D01*
X164655908Y-86497483D01*
X164706202Y-86632328D01*
X164706206Y-86632335D01*
X164792452Y-86747544D01*
X164792455Y-86747547D01*
X164907664Y-86833793D01*
X164907671Y-86833797D01*
X165042517Y-86884091D01*
X165042516Y-86884091D01*
X165049444Y-86884835D01*
X165102127Y-86890500D01*
X166897872Y-86890499D01*
X166957483Y-86884091D01*
X167092331Y-86833796D01*
X167207546Y-86747546D01*
X167293796Y-86632331D01*
X167344091Y-86497483D01*
X167350500Y-86437873D01*
X167350499Y-84642128D01*
X167344091Y-84582517D01*
X167304410Y-84476127D01*
X167293797Y-84447671D01*
X167293793Y-84447664D01*
X167207547Y-84332455D01*
X167207544Y-84332452D01*
X167092335Y-84246206D01*
X167092328Y-84246202D01*
X166957482Y-84195908D01*
X166957483Y-84195908D01*
X166897883Y-84189501D01*
X166897881Y-84189500D01*
X166897873Y-84189500D01*
X166897865Y-84189500D01*
X166887309Y-84189500D01*
X166820270Y-84169815D01*
X166799628Y-84153181D01*
X166129408Y-83482962D01*
X166192993Y-83465925D01*
X166307007Y-83400099D01*
X166400099Y-83307007D01*
X166465925Y-83192993D01*
X166482962Y-83129408D01*
X167115270Y-83761717D01*
X167115270Y-83761716D01*
X167154622Y-83707554D01*
X167251095Y-83518217D01*
X167316757Y-83316130D01*
X167316757Y-83316127D01*
X167350000Y-83106246D01*
X167350000Y-82893755D01*
X167345965Y-82868280D01*
X167345965Y-82868279D01*
X167316757Y-82683872D01*
X167316757Y-82683869D01*
X167251095Y-82481782D01*
X167154624Y-82292449D01*
X167115270Y-82238282D01*
X167115269Y-82238282D01*
X166482962Y-82870590D01*
X166465925Y-82807007D01*
X166400099Y-82692993D01*
X166307007Y-82599901D01*
X166192993Y-82534075D01*
X166129409Y-82517037D01*
X166761716Y-81884728D01*
X166707547Y-81845373D01*
X166707547Y-81845372D01*
X166698500Y-81840763D01*
X166647706Y-81792788D01*
X166630912Y-81724966D01*
X166653451Y-81658832D01*
X166698508Y-81619793D01*
X166707816Y-81615051D01*
X166847297Y-81513713D01*
X166879786Y-81490109D01*
X166879788Y-81490106D01*
X166879792Y-81490104D01*
X167030104Y-81339792D01*
X167030106Y-81339788D01*
X167030109Y-81339786D01*
X167155048Y-81167820D01*
X167155047Y-81167820D01*
X167155051Y-81167816D01*
X167251557Y-80978412D01*
X167317246Y-80776243D01*
X167350500Y-80566287D01*
X167350500Y-80353713D01*
X167317246Y-80143757D01*
X167251557Y-79941588D01*
X167155051Y-79752184D01*
X167155049Y-79752181D01*
X167155048Y-79752179D01*
X167030109Y-79580213D01*
X166879786Y-79429890D01*
X166707820Y-79304951D01*
X166707115Y-79304591D01*
X166699054Y-79300485D01*
X166648259Y-79252512D01*
X166631463Y-79184692D01*
X166653999Y-79118556D01*
X166699054Y-79079515D01*
X166707816Y-79075051D01*
X166847297Y-78973713D01*
X166879786Y-78950109D01*
X166879788Y-78950106D01*
X166879792Y-78950104D01*
X167030104Y-78799792D01*
X167030106Y-78799788D01*
X167030109Y-78799786D01*
X167155048Y-78627820D01*
X167155047Y-78627820D01*
X167155051Y-78627816D01*
X167251557Y-78438412D01*
X167317246Y-78236243D01*
X167350500Y-78026287D01*
X167350500Y-77813713D01*
X167317246Y-77603757D01*
X167251557Y-77401588D01*
X167155051Y-77212184D01*
X167155049Y-77212181D01*
X167155048Y-77212179D01*
X167030109Y-77040213D01*
X166879786Y-76889890D01*
X166707820Y-76764951D01*
X166707115Y-76764591D01*
X166699054Y-76760485D01*
X166648259Y-76712512D01*
X166631463Y-76644692D01*
X166653999Y-76578556D01*
X166699054Y-76539515D01*
X166707816Y-76535051D01*
X166847297Y-76433713D01*
X166879786Y-76410109D01*
X166879788Y-76410106D01*
X166879792Y-76410104D01*
X167030104Y-76259792D01*
X167030106Y-76259788D01*
X167030109Y-76259786D01*
X167155048Y-76087820D01*
X167155047Y-76087820D01*
X167155051Y-76087816D01*
X167251557Y-75898412D01*
X167317246Y-75696243D01*
X167350500Y-75486287D01*
X167350500Y-75273713D01*
X167317246Y-75063757D01*
X167251557Y-74861588D01*
X167155051Y-74672184D01*
X167155049Y-74672181D01*
X167155048Y-74672179D01*
X167030109Y-74500213D01*
X166879786Y-74349890D01*
X166707820Y-74224951D01*
X166707115Y-74224591D01*
X166699054Y-74220485D01*
X166648259Y-74172512D01*
X166631463Y-74104692D01*
X166653999Y-74038556D01*
X166699054Y-73999515D01*
X166707816Y-73995051D01*
X166809529Y-73921153D01*
X166879786Y-73870109D01*
X166879788Y-73870106D01*
X166879792Y-73870104D01*
X167030104Y-73719792D01*
X167030106Y-73719788D01*
X167030109Y-73719786D01*
X167155048Y-73547820D01*
X167155047Y-73547820D01*
X167155051Y-73547816D01*
X167251557Y-73358412D01*
X167317246Y-73156243D01*
X167350500Y-72946287D01*
X167350500Y-72733713D01*
X167317246Y-72523757D01*
X167251557Y-72321588D01*
X167155051Y-72132184D01*
X167155049Y-72132181D01*
X167155048Y-72132179D01*
X167030109Y-71960213D01*
X166879786Y-71809890D01*
X166707820Y-71684951D01*
X166707115Y-71684591D01*
X166699054Y-71680485D01*
X166648259Y-71632512D01*
X166631463Y-71564692D01*
X166653999Y-71498556D01*
X166699054Y-71459515D01*
X166707816Y-71455051D01*
X166762876Y-71415048D01*
X166879786Y-71330109D01*
X166879788Y-71330106D01*
X166879792Y-71330104D01*
X167030104Y-71179792D01*
X167030106Y-71179788D01*
X167030109Y-71179786D01*
X167155048Y-71007820D01*
X167155047Y-71007820D01*
X167155051Y-71007816D01*
X167251557Y-70818412D01*
X167317246Y-70616243D01*
X167350500Y-70406287D01*
X167350500Y-70193713D01*
X167317246Y-69983757D01*
X167251557Y-69781588D01*
X167155051Y-69592184D01*
X167155049Y-69592181D01*
X167155048Y-69592179D01*
X167030109Y-69420213D01*
X166879786Y-69269890D01*
X166707820Y-69144951D01*
X166707115Y-69144591D01*
X166699054Y-69140485D01*
X166648259Y-69092512D01*
X166631463Y-69024692D01*
X166653999Y-68958556D01*
X166699054Y-68919515D01*
X166707816Y-68915051D01*
X166762876Y-68875048D01*
X166879786Y-68790109D01*
X166879788Y-68790106D01*
X166879792Y-68790104D01*
X167030104Y-68639792D01*
X167030106Y-68639788D01*
X167030109Y-68639786D01*
X167155048Y-68467820D01*
X167155047Y-68467820D01*
X167155051Y-68467816D01*
X167251557Y-68278412D01*
X167317246Y-68076243D01*
X167350500Y-67866287D01*
X167350500Y-67653713D01*
X167344165Y-67613713D01*
X169159500Y-67613713D01*
X169159500Y-67826287D01*
X169192754Y-68036243D01*
X169220235Y-68120821D01*
X169258444Y-68238414D01*
X169354951Y-68427820D01*
X169479890Y-68599786D01*
X169630213Y-68750109D01*
X169802182Y-68875050D01*
X169810946Y-68879516D01*
X169861742Y-68927491D01*
X169878536Y-68995312D01*
X169855998Y-69061447D01*
X169810946Y-69100484D01*
X169802182Y-69104949D01*
X169630213Y-69229890D01*
X169479890Y-69380213D01*
X169354951Y-69552179D01*
X169258444Y-69741585D01*
X169192753Y-69943760D01*
X169159500Y-70153713D01*
X169159500Y-70366286D01*
X169192753Y-70576239D01*
X169258444Y-70778414D01*
X169354951Y-70967820D01*
X169479890Y-71139786D01*
X169630213Y-71290109D01*
X169802182Y-71415050D01*
X169810946Y-71419516D01*
X169861742Y-71467491D01*
X169878536Y-71535312D01*
X169855998Y-71601447D01*
X169810946Y-71640484D01*
X169802182Y-71644949D01*
X169630213Y-71769890D01*
X169479890Y-71920213D01*
X169354951Y-72092179D01*
X169258444Y-72281585D01*
X169192753Y-72483760D01*
X169165488Y-72655908D01*
X169159500Y-72693713D01*
X169159500Y-72906287D01*
X169169534Y-72969644D01*
X169190518Y-73102129D01*
X169192754Y-73116243D01*
X169252195Y-73299184D01*
X169258444Y-73318414D01*
X169354951Y-73507820D01*
X169479890Y-73679786D01*
X169630213Y-73830109D01*
X169802182Y-73955050D01*
X169810946Y-73959516D01*
X169861742Y-74007491D01*
X169878536Y-74075312D01*
X169855998Y-74141447D01*
X169810946Y-74180484D01*
X169802182Y-74184949D01*
X169630213Y-74309890D01*
X169479890Y-74460213D01*
X169354951Y-74632179D01*
X169258444Y-74821585D01*
X169192753Y-75023760D01*
X169186418Y-75063760D01*
X169159500Y-75233713D01*
X169159500Y-75446287D01*
X169192754Y-75656243D01*
X169249919Y-75832179D01*
X169258444Y-75858414D01*
X169354951Y-76047820D01*
X169479890Y-76219786D01*
X169630213Y-76370109D01*
X169802182Y-76495050D01*
X169810946Y-76499516D01*
X169861742Y-76547491D01*
X169878536Y-76615312D01*
X169855998Y-76681447D01*
X169810946Y-76720484D01*
X169802182Y-76724949D01*
X169630213Y-76849890D01*
X169479890Y-77000213D01*
X169354951Y-77172179D01*
X169258444Y-77361585D01*
X169192753Y-77563760D01*
X169172743Y-77690102D01*
X169159500Y-77773713D01*
X169159500Y-77986287D01*
X169164589Y-78018418D01*
X169191918Y-78190968D01*
X169192754Y-78196243D01*
X169249919Y-78372179D01*
X169258444Y-78398414D01*
X169354951Y-78587820D01*
X169479890Y-78759786D01*
X169630213Y-78910109D01*
X169802182Y-79035050D01*
X169810946Y-79039516D01*
X169861742Y-79087491D01*
X169878536Y-79155312D01*
X169855998Y-79221447D01*
X169810946Y-79260484D01*
X169802182Y-79264949D01*
X169630213Y-79389890D01*
X169479890Y-79540213D01*
X169354951Y-79712179D01*
X169258444Y-79901585D01*
X169192753Y-80103760D01*
X169159500Y-80313713D01*
X169159500Y-80526286D01*
X169189925Y-80718386D01*
X169192754Y-80736243D01*
X169249919Y-80912179D01*
X169258444Y-80938414D01*
X169354951Y-81127820D01*
X169479890Y-81299786D01*
X169630213Y-81450109D01*
X169802179Y-81575048D01*
X169802181Y-81575049D01*
X169802184Y-81575051D01*
X169811493Y-81579794D01*
X169862290Y-81627766D01*
X169879087Y-81695587D01*
X169856552Y-81761722D01*
X169811505Y-81800760D01*
X169802446Y-81805376D01*
X169802440Y-81805380D01*
X169748282Y-81844727D01*
X169748282Y-81844728D01*
X170380591Y-82477037D01*
X170317007Y-82494075D01*
X170202993Y-82559901D01*
X170109901Y-82652993D01*
X170044075Y-82767007D01*
X170027037Y-82830591D01*
X169394728Y-82198282D01*
X169394727Y-82198282D01*
X169355380Y-82252439D01*
X169258904Y-82441782D01*
X169193242Y-82643869D01*
X169193242Y-82643872D01*
X169160000Y-82853753D01*
X169160000Y-83066246D01*
X169193242Y-83276127D01*
X169193242Y-83276130D01*
X169258904Y-83478217D01*
X169355375Y-83667550D01*
X169394728Y-83721716D01*
X170027037Y-83089408D01*
X170044075Y-83152993D01*
X170109901Y-83267007D01*
X170202993Y-83360099D01*
X170317007Y-83425925D01*
X170380590Y-83442962D01*
X169710370Y-84113181D01*
X169649047Y-84146666D01*
X169622698Y-84149500D01*
X169612134Y-84149500D01*
X169612123Y-84149501D01*
X169552516Y-84155908D01*
X169417671Y-84206202D01*
X169417664Y-84206206D01*
X169302455Y-84292452D01*
X169302452Y-84292455D01*
X169216206Y-84407664D01*
X169216202Y-84407671D01*
X169165908Y-84542517D01*
X169161608Y-84582516D01*
X169159501Y-84602123D01*
X169159500Y-84602135D01*
X169159500Y-86397870D01*
X169159501Y-86397876D01*
X169165908Y-86457483D01*
X169216202Y-86592328D01*
X169216206Y-86592335D01*
X169302452Y-86707544D01*
X169302455Y-86707547D01*
X169417664Y-86793793D01*
X169417671Y-86793797D01*
X169552517Y-86844091D01*
X169552516Y-86844091D01*
X169559444Y-86844835D01*
X169612127Y-86850500D01*
X171407872Y-86850499D01*
X171467483Y-86844091D01*
X171602331Y-86793796D01*
X171717546Y-86707546D01*
X171803796Y-86592331D01*
X171854091Y-86457483D01*
X171860500Y-86397873D01*
X171860499Y-84602128D01*
X171854091Y-84542517D01*
X171829372Y-84476243D01*
X171803797Y-84407671D01*
X171803793Y-84407664D01*
X171717547Y-84292455D01*
X171717544Y-84292452D01*
X171602335Y-84206206D01*
X171602328Y-84206202D01*
X171467482Y-84155908D01*
X171467483Y-84155908D01*
X171407883Y-84149501D01*
X171407881Y-84149500D01*
X171407873Y-84149500D01*
X171407865Y-84149500D01*
X171397309Y-84149500D01*
X171330270Y-84129815D01*
X171309628Y-84113181D01*
X170639408Y-83442962D01*
X170702993Y-83425925D01*
X170817007Y-83360099D01*
X170910099Y-83267007D01*
X170975925Y-83152993D01*
X170992962Y-83089409D01*
X171625270Y-83721717D01*
X171625270Y-83721716D01*
X171664622Y-83667554D01*
X171761095Y-83478217D01*
X171826757Y-83276130D01*
X171826757Y-83276127D01*
X171860000Y-83066246D01*
X171860000Y-82853753D01*
X171826757Y-82643872D01*
X171826757Y-82643869D01*
X171761095Y-82441782D01*
X171664624Y-82252449D01*
X171625270Y-82198282D01*
X171625269Y-82198282D01*
X170992962Y-82830590D01*
X170975925Y-82767007D01*
X170910099Y-82652993D01*
X170817007Y-82559901D01*
X170702993Y-82494075D01*
X170639409Y-82477037D01*
X171271716Y-81844728D01*
X171217547Y-81805373D01*
X171217547Y-81805372D01*
X171208500Y-81800763D01*
X171157706Y-81752788D01*
X171140912Y-81684966D01*
X171163451Y-81618832D01*
X171208508Y-81579793D01*
X171217816Y-81575051D01*
X171302241Y-81513713D01*
X171389786Y-81450109D01*
X171389788Y-81450106D01*
X171389792Y-81450104D01*
X171540104Y-81299792D01*
X171540106Y-81299788D01*
X171540109Y-81299786D01*
X171665048Y-81127820D01*
X171665047Y-81127820D01*
X171665051Y-81127816D01*
X171761557Y-80938412D01*
X171827246Y-80736243D01*
X171860500Y-80526287D01*
X171860500Y-80313713D01*
X171827246Y-80103757D01*
X171761557Y-79901588D01*
X171665051Y-79712184D01*
X171665049Y-79712181D01*
X171665048Y-79712179D01*
X171540109Y-79540213D01*
X171389786Y-79389890D01*
X171217820Y-79264951D01*
X171217115Y-79264591D01*
X171209054Y-79260485D01*
X171158259Y-79212512D01*
X171141463Y-79144692D01*
X171163999Y-79078556D01*
X171209054Y-79039515D01*
X171217816Y-79035051D01*
X171302241Y-78973713D01*
X171389786Y-78910109D01*
X171389788Y-78910106D01*
X171389792Y-78910104D01*
X171540104Y-78759792D01*
X171540106Y-78759788D01*
X171540109Y-78759786D01*
X171665048Y-78587820D01*
X171665047Y-78587820D01*
X171665051Y-78587816D01*
X171761557Y-78398412D01*
X171827246Y-78196243D01*
X171860500Y-77986287D01*
X171860500Y-77773713D01*
X171827246Y-77563757D01*
X171761557Y-77361588D01*
X171665051Y-77172184D01*
X171665049Y-77172181D01*
X171665048Y-77172179D01*
X171540109Y-77000213D01*
X171389786Y-76849890D01*
X171217820Y-76724951D01*
X171217115Y-76724591D01*
X171209054Y-76720485D01*
X171158259Y-76672512D01*
X171141463Y-76604692D01*
X171163999Y-76538556D01*
X171209054Y-76499515D01*
X171217816Y-76495051D01*
X171302241Y-76433713D01*
X171389786Y-76370109D01*
X171389788Y-76370106D01*
X171389792Y-76370104D01*
X171540104Y-76219792D01*
X171540106Y-76219788D01*
X171540109Y-76219786D01*
X171665048Y-76047820D01*
X171665047Y-76047820D01*
X171665051Y-76047816D01*
X171761557Y-75858412D01*
X171827246Y-75656243D01*
X171860500Y-75446287D01*
X171860500Y-75233713D01*
X171827246Y-75023757D01*
X171761557Y-74821588D01*
X171665051Y-74632184D01*
X171665049Y-74632181D01*
X171665048Y-74632179D01*
X171540109Y-74460213D01*
X171389786Y-74309890D01*
X171217820Y-74184951D01*
X171217115Y-74184591D01*
X171209054Y-74180485D01*
X171158259Y-74132512D01*
X171141463Y-74064692D01*
X171163999Y-73998556D01*
X171209054Y-73959515D01*
X171217816Y-73955051D01*
X171264473Y-73921153D01*
X171389786Y-73830109D01*
X171389788Y-73830106D01*
X171389792Y-73830104D01*
X171540104Y-73679792D01*
X171540106Y-73679788D01*
X171540109Y-73679786D01*
X171665048Y-73507820D01*
X171665047Y-73507820D01*
X171665051Y-73507816D01*
X171761557Y-73318412D01*
X171827246Y-73116243D01*
X171860500Y-72906287D01*
X171860500Y-72693713D01*
X171827246Y-72483757D01*
X171761557Y-72281588D01*
X171665051Y-72092184D01*
X171665049Y-72092181D01*
X171665048Y-72092179D01*
X171540109Y-71920213D01*
X171389786Y-71769890D01*
X171217820Y-71644951D01*
X171217115Y-71644591D01*
X171209054Y-71640485D01*
X171158259Y-71592512D01*
X171141463Y-71524692D01*
X171163999Y-71458556D01*
X171209054Y-71419515D01*
X171217816Y-71415051D01*
X171239789Y-71399086D01*
X171389786Y-71290109D01*
X171389788Y-71290106D01*
X171389792Y-71290104D01*
X171540104Y-71139792D01*
X171540106Y-71139788D01*
X171540109Y-71139786D01*
X171665048Y-70967820D01*
X171665047Y-70967820D01*
X171665051Y-70967816D01*
X171761557Y-70778412D01*
X171827246Y-70576243D01*
X171860500Y-70366287D01*
X171860500Y-70153713D01*
X171827246Y-69943757D01*
X171761557Y-69741588D01*
X171665051Y-69552184D01*
X171665049Y-69552181D01*
X171665048Y-69552179D01*
X171540109Y-69380213D01*
X171389786Y-69229890D01*
X171217820Y-69104951D01*
X171217115Y-69104591D01*
X171209054Y-69100485D01*
X171158259Y-69052512D01*
X171141463Y-68984692D01*
X171163999Y-68918556D01*
X171209054Y-68879515D01*
X171217816Y-68875051D01*
X171239789Y-68859086D01*
X171389786Y-68750109D01*
X171389788Y-68750106D01*
X171389792Y-68750104D01*
X171540104Y-68599792D01*
X171540106Y-68599788D01*
X171540109Y-68599786D01*
X171665048Y-68427820D01*
X171665047Y-68427820D01*
X171665051Y-68427816D01*
X171761557Y-68238412D01*
X171827246Y-68036243D01*
X171860500Y-67826287D01*
X171860500Y-67613713D01*
X171827246Y-67403757D01*
X171761557Y-67201588D01*
X171665051Y-67012184D01*
X171665049Y-67012181D01*
X171665048Y-67012179D01*
X171540109Y-66840213D01*
X171389786Y-66689890D01*
X171217820Y-66564951D01*
X171028414Y-66468444D01*
X171028413Y-66468443D01*
X171028412Y-66468443D01*
X170826243Y-66402754D01*
X170826241Y-66402753D01*
X170826240Y-66402753D01*
X170664957Y-66377208D01*
X170616287Y-66369500D01*
X170403713Y-66369500D01*
X170355042Y-66377208D01*
X170193760Y-66402753D01*
X169991585Y-66468444D01*
X169802179Y-66564951D01*
X169630213Y-66689890D01*
X169479890Y-66840213D01*
X169354951Y-67012179D01*
X169258444Y-67201585D01*
X169258443Y-67201587D01*
X169258443Y-67201588D01*
X169192754Y-67403757D01*
X169159500Y-67613713D01*
X167344165Y-67613713D01*
X167317246Y-67443757D01*
X167251557Y-67241588D01*
X167155051Y-67052184D01*
X167155049Y-67052181D01*
X167155048Y-67052179D01*
X167030109Y-66880213D01*
X166879786Y-66729890D01*
X166707820Y-66604951D01*
X166518414Y-66508444D01*
X166518413Y-66508443D01*
X166518412Y-66508443D01*
X166316243Y-66442754D01*
X166316241Y-66442753D01*
X166316240Y-66442753D01*
X166154957Y-66417208D01*
X166106287Y-66409500D01*
X165893713Y-66409500D01*
X165845042Y-66417208D01*
X165683760Y-66442753D01*
X165481585Y-66508444D01*
X165292179Y-66604951D01*
X165120213Y-66729890D01*
X164969890Y-66880213D01*
X164844951Y-67052179D01*
X164748444Y-67241585D01*
X164682753Y-67443760D01*
X164649500Y-67653713D01*
X152901500Y-67653713D01*
X152901500Y-65172004D01*
X152874581Y-65036677D01*
X152874580Y-65036676D01*
X152874580Y-65036672D01*
X152874578Y-65036667D01*
X152821777Y-64909192D01*
X152745112Y-64794454D01*
X152745111Y-64794453D01*
X152512338Y-64561681D01*
X152478853Y-64500358D01*
X152483837Y-64430667D01*
X152525708Y-64374733D01*
X152591173Y-64350316D01*
X152600019Y-64350000D01*
X152606246Y-64350000D01*
X152816127Y-64316757D01*
X152816130Y-64316757D01*
X153018217Y-64251095D01*
X153207554Y-64154622D01*
X153261716Y-64115270D01*
X153261717Y-64115270D01*
X152629409Y-63482962D01*
X152692993Y-63465925D01*
X152807007Y-63400099D01*
X152900099Y-63307007D01*
X152965925Y-63192993D01*
X152982962Y-63129409D01*
X153615270Y-63761717D01*
X153615270Y-63761716D01*
X153654622Y-63707554D01*
X153751095Y-63518217D01*
X153816757Y-63316130D01*
X153816757Y-63316127D01*
X153850000Y-63106246D01*
X153850000Y-62893753D01*
X153816757Y-62683872D01*
X153816757Y-62683869D01*
X153793346Y-62611818D01*
X153791351Y-62541977D01*
X153827431Y-62482144D01*
X153890132Y-62451316D01*
X153911277Y-62449500D01*
X154673218Y-62449500D01*
X154740257Y-62469185D01*
X154760899Y-62485819D01*
X155303181Y-63028101D01*
X155336666Y-63089424D01*
X155339500Y-63115782D01*
X155339500Y-63897870D01*
X155339501Y-63897876D01*
X155345908Y-63957483D01*
X155396202Y-64092328D01*
X155396206Y-64092335D01*
X155482452Y-64207544D01*
X155482455Y-64207547D01*
X155597664Y-64293793D01*
X155597671Y-64293797D01*
X155732517Y-64344091D01*
X155732516Y-64344091D01*
X155739444Y-64344835D01*
X155792127Y-64350500D01*
X157587872Y-64350499D01*
X157647483Y-64344091D01*
X157782331Y-64293796D01*
X157897546Y-64207546D01*
X157983796Y-64092331D01*
X158032810Y-63960916D01*
X158074681Y-63904984D01*
X158140145Y-63880566D01*
X158208418Y-63895417D01*
X158236673Y-63916569D01*
X158350213Y-64030109D01*
X158522179Y-64155048D01*
X158522181Y-64155049D01*
X158522184Y-64155051D01*
X158711588Y-64251557D01*
X158913757Y-64317246D01*
X159123713Y-64350500D01*
X159123714Y-64350500D01*
X159336286Y-64350500D01*
X159336287Y-64350500D01*
X159546243Y-64317246D01*
X159748412Y-64251557D01*
X159937816Y-64155051D01*
X160013566Y-64100016D01*
X160109786Y-64030109D01*
X160109788Y-64030106D01*
X160109792Y-64030104D01*
X160260104Y-63879792D01*
X160260106Y-63879788D01*
X160260109Y-63879786D01*
X160385048Y-63707820D01*
X160385047Y-63707820D01*
X160385051Y-63707816D01*
X160389514Y-63699054D01*
X160437488Y-63648259D01*
X160505308Y-63631463D01*
X160571444Y-63653999D01*
X160610486Y-63699056D01*
X160614951Y-63707820D01*
X160739890Y-63879786D01*
X160890213Y-64030109D01*
X161062179Y-64155048D01*
X161062181Y-64155049D01*
X161062184Y-64155051D01*
X161251588Y-64251557D01*
X161453757Y-64317246D01*
X161663713Y-64350500D01*
X161663714Y-64350500D01*
X161876286Y-64350500D01*
X161876287Y-64350500D01*
X162086243Y-64317246D01*
X162288412Y-64251557D01*
X162477816Y-64155051D01*
X162553566Y-64100016D01*
X162649786Y-64030109D01*
X162649788Y-64030106D01*
X162649792Y-64030104D01*
X162800104Y-63879792D01*
X162800106Y-63879788D01*
X162800109Y-63879786D01*
X162885890Y-63761717D01*
X162925051Y-63707816D01*
X162929793Y-63698508D01*
X162977763Y-63647711D01*
X163045583Y-63630911D01*
X163111719Y-63653445D01*
X163150763Y-63698500D01*
X163155373Y-63707547D01*
X163194728Y-63761716D01*
X163827037Y-63129408D01*
X163844075Y-63192993D01*
X163909901Y-63307007D01*
X164002993Y-63400099D01*
X164117007Y-63465925D01*
X164180590Y-63482962D01*
X163548282Y-64115269D01*
X163548282Y-64115270D01*
X163602449Y-64154624D01*
X163791782Y-64251095D01*
X163993870Y-64316757D01*
X164203754Y-64350000D01*
X164416246Y-64350000D01*
X164626127Y-64316757D01*
X164626130Y-64316757D01*
X164828217Y-64251095D01*
X165017554Y-64154622D01*
X165071716Y-64115270D01*
X165071717Y-64115270D01*
X164439408Y-63482962D01*
X164502993Y-63465925D01*
X164617007Y-63400099D01*
X164710099Y-63307007D01*
X164775925Y-63192993D01*
X164792962Y-63129408D01*
X165425270Y-63761717D01*
X165425270Y-63761716D01*
X165464622Y-63707554D01*
X165561095Y-63518217D01*
X165626757Y-63316130D01*
X165626757Y-63316127D01*
X165660000Y-63106246D01*
X165660000Y-62893753D01*
X165626757Y-62683872D01*
X165626757Y-62683869D01*
X165561095Y-62481782D01*
X165464624Y-62292449D01*
X165425270Y-62238282D01*
X165425269Y-62238282D01*
X164792962Y-62870590D01*
X164775925Y-62807007D01*
X164710099Y-62692993D01*
X164617007Y-62599901D01*
X164502993Y-62534075D01*
X164439409Y-62517037D01*
X165071716Y-61884728D01*
X165017550Y-61845375D01*
X164828217Y-61748904D01*
X164626129Y-61683242D01*
X164416246Y-61650000D01*
X164203754Y-61650000D01*
X163993872Y-61683242D01*
X163993869Y-61683242D01*
X163791782Y-61748904D01*
X163602439Y-61845380D01*
X163548282Y-61884727D01*
X163548282Y-61884728D01*
X164180591Y-62517037D01*
X164117007Y-62534075D01*
X164002993Y-62599901D01*
X163909901Y-62692993D01*
X163844075Y-62807007D01*
X163827037Y-62870591D01*
X163194728Y-62238282D01*
X163194727Y-62238282D01*
X163155380Y-62292440D01*
X163155376Y-62292446D01*
X163150760Y-62301505D01*
X163102781Y-62352297D01*
X163034959Y-62369087D01*
X162968826Y-62346543D01*
X162929794Y-62301493D01*
X162925051Y-62292184D01*
X162925049Y-62292181D01*
X162925048Y-62292179D01*
X162800109Y-62120213D01*
X162649786Y-61969890D01*
X162477820Y-61844951D01*
X162288414Y-61748444D01*
X162288413Y-61748443D01*
X162288412Y-61748443D01*
X162086243Y-61682754D01*
X162086241Y-61682753D01*
X162086240Y-61682753D01*
X161924957Y-61657208D01*
X161876287Y-61649500D01*
X161663713Y-61649500D01*
X161615042Y-61657208D01*
X161453760Y-61682753D01*
X161251585Y-61748444D01*
X161062179Y-61844951D01*
X160890213Y-61969890D01*
X160739890Y-62120213D01*
X160614949Y-62292182D01*
X160610484Y-62300946D01*
X160562509Y-62351742D01*
X160494688Y-62368536D01*
X160428553Y-62345998D01*
X160389516Y-62300946D01*
X160385050Y-62292182D01*
X160260109Y-62120213D01*
X160109786Y-61969890D01*
X159937820Y-61844951D01*
X159748414Y-61748444D01*
X159748413Y-61748443D01*
X159748412Y-61748443D01*
X159546243Y-61682754D01*
X159546241Y-61682753D01*
X159546240Y-61682753D01*
X159384957Y-61657208D01*
X159336287Y-61649500D01*
X159123713Y-61649500D01*
X159075042Y-61657208D01*
X158913760Y-61682753D01*
X158711585Y-61748444D01*
X158522179Y-61844951D01*
X158350215Y-61969889D01*
X158236673Y-62083431D01*
X158175350Y-62116915D01*
X158105658Y-62111931D01*
X158049725Y-62070059D01*
X158032810Y-62039082D01*
X157983797Y-61907671D01*
X157983793Y-61907664D01*
X157897547Y-61792455D01*
X157897544Y-61792452D01*
X157782335Y-61706206D01*
X157782328Y-61706202D01*
X157647482Y-61655908D01*
X157647483Y-61655908D01*
X157587883Y-61649501D01*
X157587881Y-61649500D01*
X157587873Y-61649500D01*
X157587865Y-61649500D01*
X156805782Y-61649500D01*
X156738743Y-61629815D01*
X156718101Y-61613181D01*
X155920479Y-60815559D01*
X155920459Y-60815537D01*
X155776785Y-60671863D01*
X155776781Y-60671860D01*
X155612920Y-60562371D01*
X155612911Y-60562366D01*
X155540315Y-60532296D01*
X155484165Y-60509038D01*
X155430836Y-60486949D01*
X155430832Y-60486948D01*
X155430828Y-60486946D01*
X155334188Y-60467724D01*
X155237544Y-60448500D01*
X155237541Y-60448500D01*
X145952459Y-60448500D01*
X145952455Y-60448500D01*
X145855812Y-60467724D01*
X145759167Y-60486947D01*
X145759161Y-60486949D01*
X145705834Y-60509037D01*
X145705834Y-60509038D01*
X145660315Y-60527892D01*
X145577089Y-60562366D01*
X145577079Y-60562371D01*
X145413219Y-60671859D01*
X145343540Y-60741538D01*
X145273861Y-60811218D01*
X145273858Y-60811221D01*
X145231221Y-60853858D01*
X145231218Y-60853861D01*
X145161538Y-60923540D01*
X145091859Y-60993219D01*
X144982371Y-61157079D01*
X144982364Y-61157092D01*
X144906950Y-61339160D01*
X144906947Y-61339170D01*
X144868500Y-61532456D01*
X144868500Y-65749589D01*
X144848815Y-65816628D01*
X144832181Y-65837270D01*
X143361433Y-67308017D01*
X143361305Y-67308145D01*
X143361220Y-67308231D01*
X143361218Y-67308233D01*
X143221861Y-67447590D01*
X143219615Y-67450950D01*
X143212524Y-67458098D01*
X143186844Y-67472250D01*
X143162600Y-67488763D01*
X143156592Y-67488923D01*
X143151332Y-67491823D01*
X143122073Y-67489845D01*
X143092756Y-67490629D01*
X143087617Y-67487517D01*
X143081622Y-67487112D01*
X143058073Y-67469626D01*
X143032990Y-67454438D01*
X143030349Y-67449042D01*
X143025525Y-67445460D01*
X143015169Y-67418024D01*
X143002277Y-67391680D01*
X143001420Y-67381597D01*
X143000852Y-67380091D01*
X143001167Y-67378614D01*
X143000500Y-67370761D01*
X143000500Y-64712230D01*
X143020185Y-64645191D01*
X143036819Y-64624549D01*
X143081894Y-64579474D01*
X143142712Y-64518656D01*
X143234814Y-64369334D01*
X143289999Y-64202797D01*
X143300500Y-64100009D01*
X143300499Y-62899992D01*
X143291000Y-62807007D01*
X143289999Y-62797203D01*
X143289998Y-62797200D01*
X143255467Y-62692993D01*
X143234814Y-62630666D01*
X143142712Y-62481344D01*
X143018656Y-62357288D01*
X142869334Y-62265186D01*
X142702797Y-62210001D01*
X142702795Y-62210000D01*
X142600010Y-62199500D01*
X141399998Y-62199500D01*
X141399981Y-62199501D01*
X141297203Y-62210000D01*
X141297200Y-62210001D01*
X141130668Y-62265185D01*
X141130663Y-62265187D01*
X140981342Y-62357289D01*
X140857289Y-62481342D01*
X140765187Y-62630663D01*
X140765186Y-62630666D01*
X140710001Y-62797203D01*
X140710001Y-62797204D01*
X140710000Y-62797204D01*
X140699500Y-62899983D01*
X140699500Y-64100001D01*
X140699501Y-64100018D01*
X140710000Y-64202796D01*
X140710001Y-64202799D01*
X140765185Y-64369331D01*
X140765187Y-64369336D01*
X140857289Y-64518657D01*
X140963181Y-64624549D01*
X140996666Y-64685872D01*
X140999500Y-64712230D01*
X140999500Y-72727019D01*
X140979815Y-72794058D01*
X140931797Y-72837503D01*
X140917180Y-72844950D01*
X140745213Y-72969890D01*
X140594890Y-73120213D01*
X140469951Y-73292179D01*
X140373444Y-73481583D01*
X140339855Y-73584960D01*
X140300417Y-73642635D01*
X140236058Y-73669833D01*
X140167212Y-73657918D01*
X140134243Y-73634322D01*
X139536819Y-73036898D01*
X139503334Y-72975575D01*
X139500500Y-72949217D01*
X139500500Y-64375761D01*
X139520185Y-64308722D01*
X139524165Y-64302899D01*
X139612287Y-64181610D01*
X139705220Y-63999219D01*
X139768477Y-63804534D01*
X139800500Y-63602352D01*
X139800500Y-63397648D01*
X139779404Y-63264457D01*
X139768477Y-63195465D01*
X139726354Y-63065826D01*
X139705220Y-63000781D01*
X139705218Y-63000778D01*
X139705218Y-63000776D01*
X139653865Y-62899991D01*
X139612287Y-62818390D01*
X139580092Y-62774077D01*
X139491971Y-62652786D01*
X139347213Y-62508028D01*
X139181613Y-62387715D01*
X139181612Y-62387714D01*
X139181610Y-62387713D01*
X139111013Y-62351742D01*
X138999223Y-62294781D01*
X138804534Y-62231522D01*
X138629995Y-62203878D01*
X138602352Y-62199500D01*
X138397648Y-62199500D01*
X138373329Y-62203351D01*
X138195465Y-62231522D01*
X138000776Y-62294781D01*
X137818386Y-62387715D01*
X137652786Y-62508028D01*
X137508028Y-62652786D01*
X137387715Y-62818386D01*
X137294781Y-63000776D01*
X137231522Y-63195465D01*
X137199500Y-63397648D01*
X132800499Y-63397648D01*
X132800499Y-62899992D01*
X132791000Y-62807007D01*
X132789999Y-62797203D01*
X132789998Y-62797200D01*
X132755467Y-62692993D01*
X132734814Y-62630666D01*
X132642712Y-62481344D01*
X132518656Y-62357288D01*
X132369334Y-62265186D01*
X132202797Y-62210001D01*
X132202795Y-62210000D01*
X132100010Y-62199500D01*
X130899998Y-62199500D01*
X130899981Y-62199501D01*
X130797203Y-62210000D01*
X130797200Y-62210001D01*
X130630668Y-62265185D01*
X130630663Y-62265187D01*
X130481342Y-62357289D01*
X130357289Y-62481342D01*
X130265187Y-62630663D01*
X130265186Y-62630666D01*
X130210001Y-62797203D01*
X130210001Y-62797204D01*
X130210000Y-62797204D01*
X130199500Y-62899983D01*
X129153301Y-62899983D01*
X129111859Y-62818650D01*
X129079474Y-62774077D01*
X129079474Y-62774076D01*
X128400000Y-63453551D01*
X128400000Y-63447339D01*
X128372741Y-63345606D01*
X128320080Y-63254394D01*
X128245606Y-63179920D01*
X128154394Y-63127259D01*
X128052661Y-63100000D01*
X128046446Y-63100000D01*
X128725922Y-62420524D01*
X128725921Y-62420523D01*
X128681359Y-62388147D01*
X128681350Y-62388141D01*
X128499031Y-62295244D01*
X128304417Y-62232009D01*
X128102317Y-62200000D01*
X127897683Y-62200000D01*
X127695582Y-62232009D01*
X127500968Y-62295244D01*
X127318644Y-62388143D01*
X127274077Y-62420523D01*
X127274077Y-62420524D01*
X127953554Y-63100000D01*
X127947339Y-63100000D01*
X127845606Y-63127259D01*
X127754394Y-63179920D01*
X127679920Y-63254394D01*
X127627259Y-63345606D01*
X127600000Y-63447339D01*
X127600000Y-63453553D01*
X126920524Y-62774077D01*
X126920523Y-62774077D01*
X126888143Y-62818644D01*
X126795244Y-63000968D01*
X126732009Y-63195582D01*
X126700000Y-63397682D01*
X120460500Y-63397682D01*
X120460500Y-59527401D01*
X120480185Y-59460362D01*
X120532989Y-59414607D01*
X120602147Y-59404663D01*
X120665703Y-59433688D01*
X120700682Y-59484068D01*
X120731645Y-59567086D01*
X120731649Y-59567093D01*
X120817809Y-59682187D01*
X120817812Y-59682190D01*
X120932906Y-59768350D01*
X120932913Y-59768354D01*
X121067620Y-59818596D01*
X121067627Y-59818598D01*
X121127155Y-59824999D01*
X121127172Y-59825000D01*
X121750000Y-59825000D01*
X121750000Y-58990747D01*
X121787708Y-59012518D01*
X121927591Y-59050000D01*
X122072409Y-59050000D01*
X122212292Y-59012518D01*
X122250000Y-58990747D01*
X122250000Y-59825000D01*
X122872828Y-59825000D01*
X122872844Y-59824999D01*
X122932372Y-59818598D01*
X122932379Y-59818596D01*
X123067086Y-59768354D01*
X123067093Y-59768350D01*
X123182187Y-59682190D01*
X123182190Y-59682187D01*
X123268350Y-59567093D01*
X123268354Y-59567086D01*
X123318596Y-59432379D01*
X123318598Y-59432372D01*
X123324999Y-59372844D01*
X123325000Y-59372827D01*
X123325000Y-58750000D01*
X122490748Y-58750000D01*
X122512518Y-58712292D01*
X122550000Y-58572409D01*
X122550000Y-58427591D01*
X122512518Y-58287708D01*
X122490748Y-58250000D01*
X123325000Y-58250000D01*
X123325000Y-57627172D01*
X123324999Y-57627155D01*
X123318598Y-57567627D01*
X123318596Y-57567620D01*
X123268354Y-57432913D01*
X123268350Y-57432906D01*
X123182190Y-57317812D01*
X123182187Y-57317809D01*
X123067093Y-57231649D01*
X123067086Y-57231645D01*
X122932379Y-57181403D01*
X122932372Y-57181401D01*
X122872844Y-57175000D01*
X122250000Y-57175000D01*
X122250000Y-58009252D01*
X122212292Y-57987482D01*
X122072409Y-57950000D01*
X121927591Y-57950000D01*
X121787708Y-57987482D01*
X121750000Y-58009252D01*
X121750000Y-57175000D01*
X121127155Y-57175000D01*
X121067627Y-57181401D01*
X121067620Y-57181403D01*
X120932913Y-57231645D01*
X120932906Y-57231649D01*
X120817812Y-57317809D01*
X120817809Y-57317812D01*
X120731649Y-57432906D01*
X120731645Y-57432913D01*
X120681403Y-57567620D01*
X120679620Y-57575168D01*
X120676850Y-57574513D01*
X120655235Y-57626647D01*
X120597829Y-57666476D01*
X120528003Y-57668946D01*
X120471029Y-57636489D01*
X120323506Y-57488966D01*
X120154714Y-57366330D01*
X119968820Y-57271612D01*
X119770389Y-57207137D01*
X119564324Y-57174500D01*
X119564319Y-57174500D01*
X119355681Y-57174500D01*
X119355676Y-57174500D01*
X119149610Y-57207137D01*
X118951179Y-57271612D01*
X118765285Y-57366330D01*
X118596493Y-57488966D01*
X118596492Y-57488967D01*
X118448971Y-57636489D01*
X118448966Y-57636493D01*
X118326330Y-57805285D01*
X118231612Y-57991179D01*
X118167137Y-58189610D01*
X118134500Y-58395675D01*
X113422228Y-58395675D01*
X113320212Y-58336776D01*
X113284180Y-58321851D01*
X113096104Y-58243947D01*
X112861785Y-58181161D01*
X112621289Y-58149500D01*
X112621288Y-58149500D01*
X112378712Y-58149500D01*
X112378711Y-58149500D01*
X112138214Y-58181161D01*
X111903895Y-58243947D01*
X111679794Y-58336773D01*
X111679785Y-58336777D01*
X111469706Y-58458067D01*
X111277263Y-58605733D01*
X111277256Y-58605739D01*
X111105739Y-58777256D01*
X111105733Y-58777263D01*
X110958067Y-58969706D01*
X110836777Y-59179785D01*
X110836773Y-59179794D01*
X110743947Y-59403895D01*
X110681161Y-59638214D01*
X110649500Y-59878711D01*
X100500500Y-59878711D01*
X100500500Y-57003051D01*
X100500649Y-56996966D01*
X100506942Y-56868872D01*
X101999500Y-56868872D01*
X101999500Y-57131127D01*
X102024079Y-57317809D01*
X102033730Y-57391116D01*
X102099479Y-57636495D01*
X102101602Y-57644418D01*
X102101605Y-57644428D01*
X102201953Y-57886690D01*
X102201958Y-57886700D01*
X102333075Y-58113803D01*
X102492718Y-58321851D01*
X102492726Y-58321860D01*
X102678140Y-58507274D01*
X102678148Y-58507281D01*
X102886196Y-58666924D01*
X103113299Y-58798041D01*
X103113309Y-58798046D01*
X103355571Y-58898394D01*
X103355581Y-58898398D01*
X103608884Y-58966270D01*
X103868880Y-59000500D01*
X103868887Y-59000500D01*
X104131113Y-59000500D01*
X104131120Y-59000500D01*
X104391116Y-58966270D01*
X104644419Y-58898398D01*
X104886697Y-58798043D01*
X105113803Y-58666924D01*
X105321851Y-58507282D01*
X105321855Y-58507277D01*
X105321860Y-58507274D01*
X105507274Y-58321860D01*
X105507277Y-58321855D01*
X105507282Y-58321851D01*
X105666924Y-58113803D01*
X105798043Y-57886697D01*
X105898398Y-57644419D01*
X105966270Y-57391116D01*
X106000500Y-57131120D01*
X106000500Y-56868880D01*
X105966270Y-56608884D01*
X105898398Y-56355581D01*
X105854665Y-56250000D01*
X105798046Y-56113309D01*
X105798041Y-56113299D01*
X105696293Y-55937066D01*
X105696292Y-55937065D01*
X105666922Y-55886194D01*
X105663054Y-55881153D01*
X118659500Y-55881153D01*
X118659500Y-56038846D01*
X118690261Y-56193489D01*
X118690264Y-56193501D01*
X118750602Y-56339172D01*
X118750609Y-56339185D01*
X118838210Y-56470288D01*
X118838213Y-56470292D01*
X118949707Y-56581786D01*
X118949711Y-56581789D01*
X119080814Y-56669390D01*
X119080827Y-56669397D01*
X119137794Y-56692993D01*
X119226503Y-56729737D01*
X119381153Y-56760499D01*
X119381156Y-56760500D01*
X119381158Y-56760500D01*
X119538844Y-56760500D01*
X119538845Y-56760499D01*
X119693497Y-56729737D01*
X119839179Y-56669394D01*
X119970289Y-56581789D01*
X120081789Y-56470289D01*
X120169394Y-56339179D01*
X120229737Y-56193497D01*
X120260500Y-56038842D01*
X120260500Y-55881158D01*
X120260500Y-55881155D01*
X120260499Y-55881153D01*
X121199500Y-55881153D01*
X121199500Y-56038846D01*
X121230261Y-56193489D01*
X121230264Y-56193501D01*
X121290602Y-56339172D01*
X121290609Y-56339185D01*
X121378210Y-56470288D01*
X121378213Y-56470292D01*
X121489707Y-56581786D01*
X121489711Y-56581789D01*
X121620814Y-56669390D01*
X121620827Y-56669397D01*
X121677794Y-56692993D01*
X121766503Y-56729737D01*
X121921153Y-56760499D01*
X121921156Y-56760500D01*
X121921158Y-56760500D01*
X122078844Y-56760500D01*
X122078845Y-56760499D01*
X122233497Y-56729737D01*
X122379179Y-56669394D01*
X122510289Y-56581789D01*
X122621789Y-56470289D01*
X122672956Y-56393713D01*
X132109500Y-56393713D01*
X132109500Y-56606287D01*
X132142754Y-56816243D01*
X132159854Y-56868872D01*
X132208444Y-57018414D01*
X132304951Y-57207820D01*
X132429890Y-57379786D01*
X132580213Y-57530109D01*
X132752179Y-57655048D01*
X132752181Y-57655049D01*
X132752184Y-57655051D01*
X132941588Y-57751557D01*
X133143757Y-57817246D01*
X133353713Y-57850500D01*
X133353714Y-57850500D01*
X133566286Y-57850500D01*
X133566287Y-57850500D01*
X133776243Y-57817246D01*
X133978412Y-57751557D01*
X134167816Y-57655051D01*
X134254478Y-57592088D01*
X134339784Y-57530110D01*
X134339784Y-57530109D01*
X134339792Y-57530104D01*
X134453717Y-57416178D01*
X134515036Y-57382696D01*
X134584728Y-57387680D01*
X134640662Y-57429551D01*
X134657577Y-57460528D01*
X134706646Y-57592088D01*
X134706649Y-57592093D01*
X134792809Y-57707187D01*
X134792812Y-57707190D01*
X134907906Y-57793350D01*
X134907913Y-57793354D01*
X135042620Y-57843596D01*
X135042627Y-57843598D01*
X135102155Y-57849999D01*
X135102172Y-57850000D01*
X135750000Y-57850000D01*
X135750000Y-56933012D01*
X135807007Y-56965925D01*
X135934174Y-57000000D01*
X136065826Y-57000000D01*
X136192993Y-56965925D01*
X136250000Y-56933012D01*
X136250000Y-57850000D01*
X136897828Y-57850000D01*
X136897844Y-57849999D01*
X136957372Y-57843598D01*
X136957379Y-57843596D01*
X137092086Y-57793354D01*
X137092093Y-57793350D01*
X137207187Y-57707190D01*
X137207190Y-57707187D01*
X137293350Y-57592093D01*
X137293354Y-57592086D01*
X137343596Y-57457379D01*
X137343598Y-57457372D01*
X137349999Y-57397844D01*
X137350000Y-57397827D01*
X137350000Y-56868872D01*
X168999500Y-56868872D01*
X168999500Y-57131127D01*
X169024079Y-57317809D01*
X169033730Y-57391116D01*
X169099479Y-57636495D01*
X169101602Y-57644418D01*
X169101605Y-57644428D01*
X169201953Y-57886690D01*
X169201958Y-57886700D01*
X169333075Y-58113803D01*
X169492718Y-58321851D01*
X169492726Y-58321860D01*
X169678140Y-58507274D01*
X169678148Y-58507281D01*
X169886196Y-58666924D01*
X170113299Y-58798041D01*
X170113309Y-58798046D01*
X170355571Y-58898394D01*
X170355581Y-58898398D01*
X170608884Y-58966270D01*
X170868880Y-59000500D01*
X170868887Y-59000500D01*
X171131113Y-59000500D01*
X171131120Y-59000500D01*
X171391116Y-58966270D01*
X171644419Y-58898398D01*
X171886697Y-58798043D01*
X172113803Y-58666924D01*
X172321851Y-58507282D01*
X172321855Y-58507277D01*
X172321860Y-58507274D01*
X172507274Y-58321860D01*
X172507277Y-58321855D01*
X172507282Y-58321851D01*
X172666924Y-58113803D01*
X172798043Y-57886697D01*
X172898398Y-57644419D01*
X172966270Y-57391116D01*
X173000500Y-57131120D01*
X173000500Y-56868880D01*
X172966270Y-56608884D01*
X172898398Y-56355581D01*
X172854665Y-56250000D01*
X172798046Y-56113309D01*
X172798041Y-56113299D01*
X172666924Y-55886196D01*
X172507281Y-55678148D01*
X172507274Y-55678140D01*
X172321860Y-55492726D01*
X172321851Y-55492718D01*
X172113803Y-55333075D01*
X171886700Y-55201958D01*
X171886690Y-55201953D01*
X171644428Y-55101605D01*
X171644421Y-55101603D01*
X171644419Y-55101602D01*
X171391116Y-55033730D01*
X171333339Y-55026123D01*
X171131127Y-54999500D01*
X171131120Y-54999500D01*
X170868880Y-54999500D01*
X170868872Y-54999500D01*
X170637772Y-55029926D01*
X170608884Y-55033730D01*
X170355581Y-55101602D01*
X170355571Y-55101605D01*
X170113309Y-55201953D01*
X170113299Y-55201958D01*
X169886196Y-55333075D01*
X169678148Y-55492718D01*
X169492718Y-55678148D01*
X169333075Y-55886196D01*
X169201958Y-56113299D01*
X169201953Y-56113309D01*
X169101605Y-56355571D01*
X169101602Y-56355581D01*
X169045268Y-56565826D01*
X169033730Y-56608885D01*
X168999500Y-56868872D01*
X137350000Y-56868872D01*
X137350000Y-56750000D01*
X136433012Y-56750000D01*
X136465925Y-56692993D01*
X136500000Y-56565826D01*
X136500000Y-56434174D01*
X136465925Y-56307007D01*
X136433012Y-56250000D01*
X137350000Y-56250000D01*
X137350000Y-55602172D01*
X137349999Y-55602155D01*
X137343598Y-55542627D01*
X137343596Y-55542620D01*
X137293354Y-55407913D01*
X137293350Y-55407906D01*
X137207190Y-55292812D01*
X137207187Y-55292809D01*
X137092093Y-55206649D01*
X137092086Y-55206645D01*
X136957379Y-55156403D01*
X136957372Y-55156401D01*
X136897844Y-55150000D01*
X136250000Y-55150000D01*
X136250000Y-56066988D01*
X136192993Y-56034075D01*
X136065826Y-56000000D01*
X135934174Y-56000000D01*
X135807007Y-56034075D01*
X135750000Y-56066988D01*
X135750000Y-55150000D01*
X135102155Y-55150000D01*
X135042627Y-55156401D01*
X135042620Y-55156403D01*
X134907913Y-55206645D01*
X134907906Y-55206649D01*
X134792812Y-55292809D01*
X134792809Y-55292812D01*
X134706649Y-55407906D01*
X134706646Y-55407912D01*
X134657577Y-55539471D01*
X134615705Y-55595404D01*
X134550241Y-55619821D01*
X134481968Y-55604969D01*
X134453714Y-55583818D01*
X134339786Y-55469890D01*
X134167820Y-55344951D01*
X133978414Y-55248444D01*
X133978413Y-55248443D01*
X133978412Y-55248443D01*
X133776243Y-55182754D01*
X133776241Y-55182753D01*
X133776240Y-55182753D01*
X133614957Y-55157208D01*
X133566287Y-55149500D01*
X133353713Y-55149500D01*
X133305042Y-55157208D01*
X133143760Y-55182753D01*
X132941585Y-55248444D01*
X132752179Y-55344951D01*
X132580213Y-55469890D01*
X132429890Y-55620213D01*
X132304951Y-55792179D01*
X132208444Y-55981585D01*
X132142753Y-56183760D01*
X132109500Y-56393713D01*
X122672956Y-56393713D01*
X122709394Y-56339179D01*
X122769737Y-56193497D01*
X122800500Y-56038842D01*
X122800500Y-55881158D01*
X122800500Y-55881155D01*
X122800499Y-55881153D01*
X122769738Y-55726510D01*
X122769737Y-55726503D01*
X122725709Y-55620208D01*
X122709397Y-55580827D01*
X122709390Y-55580814D01*
X122621789Y-55449711D01*
X122621786Y-55449707D01*
X122510292Y-55338213D01*
X122510288Y-55338210D01*
X122379185Y-55250609D01*
X122379172Y-55250602D01*
X122233501Y-55190264D01*
X122233489Y-55190261D01*
X122078845Y-55159500D01*
X122078842Y-55159500D01*
X121921158Y-55159500D01*
X121921155Y-55159500D01*
X121766510Y-55190261D01*
X121766498Y-55190264D01*
X121620827Y-55250602D01*
X121620814Y-55250609D01*
X121489711Y-55338210D01*
X121489707Y-55338213D01*
X121378213Y-55449707D01*
X121378210Y-55449711D01*
X121290609Y-55580814D01*
X121290602Y-55580827D01*
X121230264Y-55726498D01*
X121230261Y-55726510D01*
X121199500Y-55881153D01*
X120260499Y-55881153D01*
X120229738Y-55726510D01*
X120229737Y-55726503D01*
X120185709Y-55620208D01*
X120169397Y-55580827D01*
X120169390Y-55580814D01*
X120081789Y-55449711D01*
X120081786Y-55449707D01*
X119970292Y-55338213D01*
X119970288Y-55338210D01*
X119839185Y-55250609D01*
X119839172Y-55250602D01*
X119693501Y-55190264D01*
X119693489Y-55190261D01*
X119538845Y-55159500D01*
X119538842Y-55159500D01*
X119381158Y-55159500D01*
X119381155Y-55159500D01*
X119226510Y-55190261D01*
X119226498Y-55190264D01*
X119080827Y-55250602D01*
X119080814Y-55250609D01*
X118949711Y-55338210D01*
X118949707Y-55338213D01*
X118838213Y-55449707D01*
X118838210Y-55449711D01*
X118750609Y-55580814D01*
X118750602Y-55580827D01*
X118690264Y-55726498D01*
X118690261Y-55726510D01*
X118659500Y-55881153D01*
X105663054Y-55881153D01*
X105544391Y-55726510D01*
X105507282Y-55678149D01*
X105507281Y-55678148D01*
X105507274Y-55678140D01*
X105321860Y-55492726D01*
X105321851Y-55492718D01*
X105113803Y-55333075D01*
X104886700Y-55201958D01*
X104886690Y-55201953D01*
X104644428Y-55101605D01*
X104644421Y-55101603D01*
X104644419Y-55101602D01*
X104391116Y-55033730D01*
X104333339Y-55026123D01*
X104131127Y-54999500D01*
X104131120Y-54999500D01*
X103868880Y-54999500D01*
X103868872Y-54999500D01*
X103637772Y-55029926D01*
X103608884Y-55033730D01*
X103355581Y-55101602D01*
X103355571Y-55101605D01*
X103113309Y-55201953D01*
X103113299Y-55201958D01*
X102886196Y-55333075D01*
X102678148Y-55492718D01*
X102492718Y-55678148D01*
X102333075Y-55886196D01*
X102201958Y-56113299D01*
X102201953Y-56113309D01*
X102101605Y-56355571D01*
X102101602Y-56355581D01*
X102045268Y-56565826D01*
X102033730Y-56608885D01*
X101999500Y-56868872D01*
X100506942Y-56868872D01*
X100507440Y-56858736D01*
X100507440Y-56858735D01*
X100516741Y-56669397D01*
X100517052Y-56663068D01*
X100518245Y-56650962D01*
X100566849Y-56323296D01*
X100569218Y-56311385D01*
X100649710Y-55990043D01*
X100653240Y-55978411D01*
X100764835Y-55666525D01*
X100769476Y-55655318D01*
X100911124Y-55355828D01*
X100916840Y-55345136D01*
X101087145Y-55060998D01*
X101093888Y-55050905D01*
X101291232Y-54784818D01*
X101298935Y-54775433D01*
X101521405Y-54529975D01*
X101529975Y-54521405D01*
X101775433Y-54298935D01*
X101784818Y-54291232D01*
X102050905Y-54093888D01*
X102060998Y-54087145D01*
X102345136Y-53916840D01*
X102355828Y-53911124D01*
X102655318Y-53769476D01*
X102666525Y-53764835D01*
X102978412Y-53653239D01*
X102990043Y-53649710D01*
X103311385Y-53569218D01*
X103323296Y-53566849D01*
X103650962Y-53518244D01*
X103663068Y-53517052D01*
X103996967Y-53500648D01*
X104003051Y-53500500D01*
X104065892Y-53500500D01*
X170934108Y-53500500D01*
X170996949Y-53500500D01*
X171003032Y-53500648D01*
G37*
%TD.AperFunction*%
%TA.AperFunction,Conductor*%
G36*
X100705703Y-82024513D02*
G01*
X100742431Y-82079908D01*
X100748444Y-82098414D01*
X100844951Y-82287820D01*
X100969890Y-82459786D01*
X101120213Y-82610109D01*
X101292179Y-82735048D01*
X101292181Y-82735049D01*
X101292184Y-82735051D01*
X101301493Y-82739794D01*
X101352290Y-82787766D01*
X101369087Y-82855587D01*
X101346552Y-82921722D01*
X101301505Y-82960760D01*
X101292446Y-82965376D01*
X101292440Y-82965380D01*
X101238282Y-83004727D01*
X101238282Y-83004728D01*
X101870591Y-83637037D01*
X101807007Y-83654075D01*
X101692993Y-83719901D01*
X101599901Y-83812993D01*
X101534075Y-83927007D01*
X101517037Y-83990591D01*
X100884728Y-83358282D01*
X100884727Y-83358282D01*
X100845380Y-83412439D01*
X100748904Y-83601782D01*
X100742431Y-83621706D01*
X100702994Y-83679381D01*
X100638635Y-83706580D01*
X100569789Y-83694665D01*
X100518313Y-83647421D01*
X100500500Y-83583388D01*
X100500500Y-82118226D01*
X100520185Y-82051187D01*
X100572989Y-82005432D01*
X100642147Y-81995488D01*
X100705703Y-82024513D01*
G37*
%TD.AperFunction*%
%TD*%
M02*
