M48
; DRILL file {KiCad 9.0.2-9.0.2-0~ubuntu24.04.1} date 2026-06-08T21:27:47+0200
; FORMAT={-:-/ absolute / metric / decimal}
; #@! TF.CreationDate,2026-06-08T21:27:47+02:00
; #@! TF.GenerationSoftware,Kicad,Pcbnew,9.0.2-9.0.2-0~ubuntu24.04.1
; #@! TF.FileFunction,Plated,1,2,PTH
FMAT,2
METRIC
; #@! TA.AperFunction,Plated,PTH,ViaDrill
T1C0.300
; #@! TA.AperFunction,Plated,PTH,ComponentDrill
T2C0.800
; #@! TA.AperFunction,Plated,PTH,ComponentDrill
T3C1.000
; #@! TA.AperFunction,Plated,PTH,ComponentDrill
T4C1.100
; #@! TA.AperFunction,Plated,PTH,ComponentDrill
T5C1.300
%
G90
G05
T1
X104.975Y-62.643
X104.975Y-67.643
X104.975Y-72.643
X104.975Y-87.643
X104.975Y-92.643
X109.975Y-57.643
X109.975Y-62.643
X109.975Y-67.643
X109.975Y-87.643
X109.975Y-92.643
X109.975Y-97.643
X114.975Y-57.643
X114.975Y-62.643
X114.975Y-82.643
X114.975Y-87.643
X114.975Y-92.643
X114.975Y-97.643
X119.975Y-77.643
X124.975Y-57.643
X124.975Y-92.643
X124.975Y-97.643
X129.975Y-72.643
X129.975Y-77.643
X129.975Y-87.643
X129.975Y-97.643
X134.2Y-85.1
X134.975Y-72.643
X134.975Y-77.643
X134.975Y-97.643
X139.975Y-87.643
X139.975Y-97.643
X144.975Y-87.643
X144.975Y-97.643
X145.0Y-68.5
X145.542Y-71.882
X147.5Y-68.5
X147.5Y-73.5
X149.975Y-57.643
X149.975Y-92.643
X150.0Y-68.5
X151.5Y-72.5
X152.1Y-73.3
X154.975Y-57.643
X154.975Y-77.643
X154.975Y-92.643
X155.1Y-70.5
X155.425Y-74.0
X156.7Y-68.3
X159.0Y-65.9
X159.975Y-57.643
X159.975Y-92.643
X162.0Y-76.0
X164.975Y-57.643
X164.975Y-87.643
X164.975Y-92.643
X164.975Y-97.643
X169.975Y-62.643
X169.975Y-87.643
X169.975Y-92.643
T2
X128.0Y-63.5
X131.5Y-63.5
X138.5Y-63.5
X142.0Y-63.5
T3
X102.0Y-76.5
X102.0Y-79.04
X102.0Y-81.58
X102.0Y-84.12
X107.0Y-71.46
X107.0Y-74.0
X107.0Y-76.54
X107.0Y-79.08
X107.0Y-81.62
X126.385Y-74.0
X126.385Y-76.54
X126.385Y-79.08
X126.385Y-81.62
X126.385Y-84.16
X127.92Y-92.0
X130.46Y-92.0
X133.0Y-92.0
X133.46Y-56.5
X135.54Y-92.0
X136.0Y-56.5
X138.08Y-92.0
X140.62Y-92.0
X141.625Y-74.0
X141.625Y-76.54
X141.625Y-79.08
X141.625Y-81.62
X141.625Y-84.16
X147.42Y-63.0
X149.5Y-97.0
X149.96Y-63.0
X152.04Y-97.0
X152.5Y-63.0
X156.69Y-63.0
X159.23Y-63.0
X161.77Y-63.0
X164.31Y-63.0
X166.0Y-67.76
X166.0Y-70.3
X166.0Y-72.84
X166.0Y-75.38
X166.0Y-77.92
X166.0Y-80.46
X166.0Y-83.0
X166.0Y-85.54
X170.51Y-67.72
X170.51Y-70.26
X170.51Y-72.8
X170.51Y-75.34
X170.51Y-77.88
X170.51Y-80.42
X170.51Y-82.96
X170.51Y-85.5
T4
X119.46Y-58.5
X119.46Y-94.5
X122.0Y-58.5
X122.0Y-94.5
T5
X148.0Y-82.5
X148.0Y-87.5
X160.5Y-82.5
X160.5Y-87.5
M30
