%TF.GenerationSoftware,KiCad,Pcbnew,9.0.2-9.0.2-0~ubuntu24.04.1*%
%TF.CreationDate,2026-06-08T21:27:22+02:00*%
%TF.ProjectId,g031_sht40,67303331-5f73-4687-9434-302e6b696361,0.2*%
%TF.SameCoordinates,Original*%
%TF.FileFunction,Copper,L1,Top*%
%TF.FilePolarity,Positive*%
%FSLAX46Y46*%
G04 Gerber Fmt 4.6, Leading zero omitted, Abs format (unit mm)*
G04 Created by KiCad (PCBNEW 9.0.2-9.0.2-0~ubuntu24.04.1) date 2026-06-08 21:27:22*
%MOMM*%
%LPD*%
G01*
G04 APERTURE LIST*
G04 Aperture macros list*
%AMRoundRect*
0 Rectangle with rounded corners*
0 $1 Rounding radius*
0 $2 $3 $4 $5 $6 $7 $8 $9 X,Y pos of 4 corners*
0 Add a 4 corners polygon primitive as box body*
4,1,4,$2,$3,$4,$5,$6,$7,$8,$9,$2,$3,0*
0 Add four circle primitives for the rounded corners*
1,1,$1+$1,$2,$3*
1,1,$1+$1,$4,$5*
1,1,$1+$1,$6,$7*
1,1,$1+$1,$8,$9*
0 Add four rect primitives between the rounded corners*
20,1,$1+$1,$2,$3,$4,$5,0*
20,1,$1+$1,$4,$5,$6,$7,0*
20,1,$1+$1,$6,$7,$8,$9,0*
20,1,$1+$1,$8,$9,$2,$3,0*%
G04 Aperture macros list end*
%TA.AperFunction,ComponentPad*%
%ADD10R,1.700000X1.700000*%
%TD*%
%TA.AperFunction,ComponentPad*%
%ADD11C,1.700000*%
%TD*%
%TA.AperFunction,SMDPad,CuDef*%
%ADD12RoundRect,0.237500X-0.237500X0.300000X-0.237500X-0.300000X0.237500X-0.300000X0.237500X0.300000X0*%
%TD*%
%TA.AperFunction,ComponentPad*%
%ADD13R,1.650000X1.650000*%
%TD*%
%TA.AperFunction,ComponentPad*%
%ADD14C,1.650000*%
%TD*%
%TA.AperFunction,ComponentPad*%
%ADD15O,3.200000X1.900000*%
%TD*%
%TA.AperFunction,SMDPad,CuDef*%
%ADD16RoundRect,0.237500X0.250000X0.237500X-0.250000X0.237500X-0.250000X-0.237500X0.250000X-0.237500X0*%
%TD*%
%TA.AperFunction,ComponentPad*%
%ADD17RoundRect,0.250000X0.550000X0.550000X-0.550000X0.550000X-0.550000X-0.550000X0.550000X-0.550000X0*%
%TD*%
%TA.AperFunction,ComponentPad*%
%ADD18C,1.600000*%
%TD*%
%TA.AperFunction,SMDPad,CuDef*%
%ADD19RoundRect,0.100000X-0.637500X-0.100000X0.637500X-0.100000X0.637500X0.100000X-0.637500X0.100000X0*%
%TD*%
%TA.AperFunction,SMDPad,CuDef*%
%ADD20RoundRect,0.237500X0.287500X0.237500X-0.287500X0.237500X-0.287500X-0.237500X0.287500X-0.237500X0*%
%TD*%
%TA.AperFunction,SMDPad,CuDef*%
%ADD21RoundRect,0.237500X0.237500X-0.250000X0.237500X0.250000X-0.237500X0.250000X-0.237500X-0.250000X0*%
%TD*%
%TA.AperFunction,SMDPad,CuDef*%
%ADD22RoundRect,0.237500X-0.250000X-0.237500X0.250000X-0.237500X0.250000X0.237500X-0.250000X0.237500X0*%
%TD*%
%TA.AperFunction,ViaPad*%
%ADD23C,0.700000*%
%TD*%
%TA.AperFunction,ViaPad*%
%ADD24C,0.600000*%
%TD*%
%TA.AperFunction,Conductor*%
%ADD25C,1.000000*%
%TD*%
%TA.AperFunction,Conductor*%
%ADD26C,0.400000*%
%TD*%
%TA.AperFunction,Conductor*%
%ADD27C,0.700000*%
%TD*%
G04 APERTURE END LIST*
D10*
%TO.P,J2,1,Pin_1*%
%TO.N,/VHV*%
X127920000Y-92000000D03*
D11*
%TO.P,J2,2,Pin_2*%
%TO.N,Net-(J2-Pin_2)*%
X130460000Y-92000000D03*
%TO.P,J2,3,Pin_3*%
%TO.N,/CAP*%
X133000000Y-92000000D03*
%TO.P,J2,4,Pin_4*%
%TO.N,/BAL*%
X135540000Y-92000000D03*
%TO.P,J2,5,Pin_5*%
%TO.N,Net-(J2-Pin_5)*%
X138080000Y-92000000D03*
%TO.P,J2,6,Pin_6*%
%TO.N,GND*%
X140620000Y-92000000D03*
%TD*%
D12*
%TO.P,C3,1*%
%TO.N,+3V3*%
X150000000Y-69775000D03*
%TO.P,C3,2*%
%TO.N,GND*%
X150000000Y-71500000D03*
%TD*%
D10*
%TO.P,J6,1,Pin_1*%
%TO.N,+3V3*%
X156690000Y-63000000D03*
D11*
%TO.P,J6,2,Pin_2*%
%TO.N,/SWDIO*%
X159230000Y-63000000D03*
%TO.P,J6,3,Pin_3*%
%TO.N,/SWCLK*%
X161770000Y-63000000D03*
%TO.P,J6,4,Pin_4*%
%TO.N,GND*%
X164310000Y-63000000D03*
%TD*%
D10*
%TO.P,J8,1,Pin_1*%
%TO.N,/EPD_VCC*%
X166000000Y-85540000D03*
D11*
%TO.P,J8,2,Pin_2*%
%TO.N,GND*%
X166000000Y-83000000D03*
%TO.P,J8,3,Pin_3*%
%TO.N,Net-(J8-Pin_3)*%
X166000000Y-80460000D03*
%TO.P,J8,4,Pin_4*%
%TO.N,Net-(J8-Pin_4)*%
X166000000Y-77920000D03*
%TO.P,J8,5,Pin_5*%
%TO.N,Net-(J8-Pin_5)*%
X166000000Y-75380000D03*
%TO.P,J8,6,Pin_6*%
%TO.N,Net-(J8-Pin_6)*%
X166000000Y-72840000D03*
%TO.P,J8,7,Pin_7*%
%TO.N,Net-(J8-Pin_7)*%
X166000000Y-70300000D03*
%TO.P,J8,8,Pin_8*%
%TO.N,Net-(J8-Pin_8)*%
X166000000Y-67760000D03*
%TD*%
D13*
%TO.P,J1,1,Pin_1*%
%TO.N,GND*%
X122000000Y-58500000D03*
D14*
%TO.P,J1,2,Pin_2*%
%TO.N,Net-(J1-Pin_2)*%
X119460000Y-58500000D03*
%TD*%
D10*
%TO.P,J5,1,Pin_1*%
%TO.N,/TX*%
X147420000Y-63000000D03*
D11*
%TO.P,J5,2,Pin_2*%
%TO.N,/RX*%
X149960000Y-63000000D03*
%TO.P,J5,3,Pin_3*%
%TO.N,GND*%
X152500000Y-63000000D03*
%TD*%
D15*
%TO.P,SW1,1,1*%
%TO.N,+3V3*%
X160500000Y-87500000D03*
X148000000Y-87500000D03*
%TO.P,SW1,2,2*%
%TO.N,Net-(U3-PA1)*%
X160500000Y-82500000D03*
X148000000Y-82500000D03*
%TD*%
D16*
%TO.P,R2,1*%
%TO.N,Net-(U3-PA1)*%
X152912500Y-76000000D03*
%TO.P,R2,2*%
%TO.N,GND*%
X151087500Y-76000000D03*
%TD*%
D10*
%TO.P,J7,1,Pin_1*%
%TO.N,/SHT40_GND*%
X102000000Y-76500000D03*
D11*
%TO.P,J7,2,Pin_2*%
%TO.N,Net-(J7-Pin_2)*%
X102000000Y-79040000D03*
%TO.P,J7,3,Pin_3*%
%TO.N,Net-(J7-Pin_3)*%
X102000000Y-81580000D03*
%TO.P,J7,4,Pin_4*%
%TO.N,GND*%
X102000000Y-84120000D03*
%TD*%
D17*
%TO.P,C1,1*%
%TO.N,/CAP*%
X142000000Y-63500000D03*
D18*
%TO.P,C1,2*%
%TO.N,/BAL*%
X138500000Y-63500000D03*
%TD*%
D19*
%TO.P,U3,1,PB7/PB8*%
%TO.N,Net-(J7-Pin_3)*%
X153275000Y-67300000D03*
%TO.P,U3,2,PB9/PC14*%
%TO.N,Net-(D1-A)*%
X153275000Y-67950000D03*
%TO.P,U3,3,PC15*%
%TO.N,Net-(JP2-A)*%
X153275000Y-68600000D03*
%TO.P,U3,4,VDD*%
%TO.N,+3V3*%
X153275000Y-69250000D03*
%TO.P,U3,5,VSS*%
%TO.N,GND*%
X153275000Y-69900000D03*
%TO.P,U3,6,PF2*%
%TO.N,unconnected-(U3-PF2-Pad6)*%
X153275000Y-70550000D03*
%TO.P,U3,7,PA0*%
%TO.N,/SHT40_GND*%
X153275000Y-71200000D03*
%TO.P,U3,8,PA1*%
%TO.N,Net-(U3-PA1)*%
X153275000Y-71850000D03*
%TO.P,U3,9,PA2*%
%TO.N,/TX*%
X153275000Y-72500000D03*
%TO.P,U3,10,PA3*%
%TO.N,/RX*%
X153275000Y-73150000D03*
%TO.P,U3,11,PA4*%
%TO.N,/EPD_VCC*%
X159000000Y-73150000D03*
%TO.P,U3,12,PA5*%
%TO.N,Net-(J8-Pin_4)*%
X159000000Y-72500000D03*
%TO.P,U3,13,PA6*%
%TO.N,Net-(J8-Pin_5)*%
X159000000Y-71850000D03*
%TO.P,U3,14,PA7*%
%TO.N,Net-(J8-Pin_3)*%
X159000000Y-71200000D03*
%TO.P,U3,15,PA8/PB0/PB1/PB2*%
%TO.N,Net-(J8-Pin_6)*%
X159000000Y-70550000D03*
%TO.P,U3,16,PA9/PA11*%
%TO.N,Net-(J8-Pin_7)*%
X159000000Y-69900000D03*
%TO.P,U3,17,PA10/PA12*%
%TO.N,Net-(J8-Pin_8)*%
X159000000Y-69250000D03*
%TO.P,U3,18,PA13*%
%TO.N,/SWDIO*%
X159000000Y-68600000D03*
%TO.P,U3,19,PA14/PA15*%
%TO.N,/SWCLK*%
X159000000Y-67950000D03*
%TO.P,U3,20,PB3/PB4/PB5/PB6*%
%TO.N,Net-(J7-Pin_2)*%
X159000000Y-67300000D03*
%TD*%
D10*
%TO.P,U4,1,V\u0421\u0421*%
%TO.N,/EPD_VCC*%
X170510000Y-85500000D03*
D11*
%TO.P,U4,2,GND*%
%TO.N,GND*%
X170510000Y-82960000D03*
%TO.P,U4,3,DIN*%
%TO.N,Net-(J8-Pin_3)*%
X170510000Y-80420000D03*
%TO.P,U4,4,CLK*%
%TO.N,Net-(J8-Pin_4)*%
X170510000Y-77880000D03*
%TO.P,U4,5,~{CS}*%
%TO.N,Net-(J8-Pin_5)*%
X170510000Y-75340000D03*
%TO.P,U4,6,D/~{C}*%
%TO.N,Net-(J8-Pin_6)*%
X170510000Y-72800000D03*
%TO.P,U4,7,~{RST}*%
%TO.N,Net-(J8-Pin_7)*%
X170510000Y-70260000D03*
%TO.P,U4,8,~{BUSY}*%
%TO.N,Net-(J8-Pin_8)*%
X170510000Y-67720000D03*
%TD*%
D20*
%TO.P,D1,1,K*%
%TO.N,Net-(D1-K)*%
X157875000Y-97500000D03*
%TO.P,D1,2,A*%
%TO.N,Net-(D1-A)*%
X156125000Y-97500000D03*
%TD*%
D21*
%TO.P,R1,1*%
%TO.N,/CAP*%
X129500000Y-57412500D03*
%TO.P,R1,2*%
%TO.N,Net-(J3-Pin_2)*%
X129500000Y-55587500D03*
%TD*%
D17*
%TO.P,C4,1*%
%TO.N,/BAL*%
X131500000Y-63500000D03*
D18*
%TO.P,C4,2*%
%TO.N,GND*%
X128000000Y-63500000D03*
%TD*%
D13*
%TO.P,J4,1,Pin_1*%
%TO.N,Net-(J1-Pin_2)*%
X119460000Y-94500000D03*
D14*
%TO.P,J4,2,Pin_2*%
%TO.N,GND*%
X122000000Y-94500000D03*
%TD*%
D10*
%TO.P,JP1,1,A*%
%TO.N,/VHV*%
X149500000Y-97000000D03*
D11*
%TO.P,JP1,2,B*%
%TO.N,+3V3*%
X152040000Y-97000000D03*
%TD*%
D10*
%TO.P,U1,1,SRC*%
%TO.N,Net-(J1-Pin_2)*%
X126385000Y-74000000D03*
D11*
%TO.P,U1,2,GND*%
%TO.N,GND*%
X126385000Y-76540000D03*
%TO.P,U1,3,VLV*%
%TO.N,Net-(J2-Pin_2)*%
X126385000Y-79080000D03*
%TO.P,U1,4,GND*%
%TO.N,GND*%
X126385000Y-81620000D03*
%TO.P,U1,5,STATUS*%
%TO.N,Net-(J2-Pin_5)*%
X126385000Y-84160000D03*
%TO.P,U1,6,GND*%
%TO.N,GND*%
X141625000Y-84160000D03*
%TO.P,U1,7,VHV*%
%TO.N,/VHV*%
X141625000Y-81620000D03*
%TO.P,U1,8,GND*%
%TO.N,GND*%
X141625000Y-79080000D03*
%TO.P,U1,9,BAL*%
%TO.N,/BAL*%
X141625000Y-76540000D03*
%TO.P,U1,10,+*%
%TO.N,/CAP*%
X141625000Y-74000000D03*
%TD*%
D22*
%TO.P,R3,1*%
%TO.N,Net-(D1-K)*%
X161087500Y-97500000D03*
%TO.P,R3,2*%
%TO.N,GND*%
X162912500Y-97500000D03*
%TD*%
D10*
%TO.P,U2,1,VIN*%
%TO.N,unconnected-(U2-VIN-Pad1)*%
X107000000Y-71460000D03*
D11*
%TO.P,U2,2,3Vo*%
%TO.N,+3V3*%
X107000000Y-74000000D03*
%TO.P,U2,3,GND*%
%TO.N,/SHT40_GND*%
X107000000Y-76540000D03*
%TO.P,U2,4,SCL*%
%TO.N,Net-(J7-Pin_2)*%
X107000000Y-79080000D03*
%TO.P,U2,5,SDA*%
%TO.N,Net-(J7-Pin_3)*%
X107000000Y-81620000D03*
%TD*%
D12*
%TO.P,C2,1*%
%TO.N,+3V3*%
X147862500Y-69775000D03*
%TO.P,C2,2*%
%TO.N,GND*%
X147862500Y-71500000D03*
%TD*%
D10*
%TO.P,J3,1,Pin_1*%
%TO.N,GND*%
X136000000Y-56500000D03*
D11*
%TO.P,J3,2,Pin_2*%
%TO.N,Net-(J3-Pin_2)*%
X133460000Y-56500000D03*
%TD*%
D23*
%TO.N,GND*%
X169975000Y-92643000D03*
X114975000Y-57643000D03*
X134975000Y-97643000D03*
X159000000Y-65900000D03*
X114975000Y-92643000D03*
X124975000Y-57643000D03*
X129975000Y-72643000D03*
X129975000Y-77643000D03*
X164975000Y-92643000D03*
X169975000Y-87643000D03*
X144975000Y-97643000D03*
X124975000Y-92643000D03*
X104975000Y-72643000D03*
X109975000Y-92643000D03*
X109975000Y-62643000D03*
X114975000Y-97643000D03*
X159975000Y-92643000D03*
X129975000Y-97643000D03*
X134975000Y-72643000D03*
X164975000Y-57643000D03*
X104975000Y-67643000D03*
X139975000Y-97643000D03*
X162000000Y-76000000D03*
X109975000Y-57643000D03*
X164975000Y-87643000D03*
X159975000Y-57643000D03*
X154975000Y-57643000D03*
X155100000Y-70500000D03*
X139975000Y-87643000D03*
X134975000Y-77643000D03*
X119975000Y-77643000D03*
X144975000Y-87643000D03*
D24*
X147500000Y-73500000D03*
D23*
X154975000Y-77643000D03*
X109975000Y-67643000D03*
X114975000Y-87643000D03*
X104975000Y-87643000D03*
X104975000Y-62643000D03*
X109975000Y-97643000D03*
X149975000Y-92643000D03*
X164975000Y-97643000D03*
X134200000Y-85100000D03*
X149975000Y-57643000D03*
X114975000Y-62643000D03*
X109975000Y-87643000D03*
X124975000Y-97643000D03*
X169975000Y-62643000D03*
X114975000Y-82643000D03*
X154975000Y-92643000D03*
X129975000Y-87643000D03*
X104975000Y-92643000D03*
X156700000Y-68300000D03*
D24*
%TO.N,+3V3*%
X145542000Y-71882000D03*
%TO.N,Net-(J2-Pin_5)*%
X147500000Y-68500000D03*
%TO.N,/RX*%
X152100000Y-73300000D03*
%TO.N,/TX*%
X151500000Y-72500000D03*
%TO.N,/SHT40_GND*%
X145000000Y-68500000D03*
X155425000Y-74000000D03*
%TO.N,Net-(JP2-A)*%
X150000000Y-68500000D03*
%TD*%
D25*
%TO.N,GND*%
X147862500Y-71500000D02*
X150000000Y-71500000D01*
X152500000Y-63000000D02*
X146000000Y-56500000D01*
D26*
X153275000Y-69900000D02*
X151600000Y-69900000D01*
X170510000Y-82960000D02*
X166040000Y-82960000D01*
D25*
X166000000Y-83000000D02*
X164797919Y-83000000D01*
X164797919Y-83000000D02*
X162912500Y-84885419D01*
X155000000Y-60500000D02*
X152500000Y-63000000D01*
X146000000Y-56500000D02*
X136000000Y-56500000D01*
X102000000Y-84120000D02*
X118805000Y-84120000D01*
X147862500Y-73137500D02*
X147500000Y-73500000D01*
X164310000Y-61797919D02*
X163012081Y-60500000D01*
X150000000Y-74912500D02*
X150000000Y-71500000D01*
X118805000Y-84120000D02*
X126385000Y-76540000D01*
X162912500Y-84885419D02*
X162912500Y-97500000D01*
D26*
X166040000Y-82960000D02*
X166000000Y-83000000D01*
D25*
X147862500Y-71500000D02*
X147862500Y-73137500D01*
X164310000Y-63000000D02*
X164310000Y-61797919D01*
X163012081Y-60500000D02*
X155000000Y-60500000D01*
X151087500Y-76000000D02*
X150000000Y-74912500D01*
D26*
X151600000Y-69900000D02*
X150000000Y-71500000D01*
D25*
%TO.N,+3V3*%
X149000000Y-69775000D02*
X150000000Y-69775000D01*
X147387500Y-69775000D02*
X147862500Y-69775000D01*
X108202081Y-74000000D02*
X107000000Y-74000000D01*
X116404081Y-65798000D02*
X108202081Y-74000000D01*
X148000000Y-87500000D02*
X152040000Y-91540000D01*
X153892000Y-65798000D02*
X116404081Y-65798000D01*
X147862500Y-69775000D02*
X149000000Y-69775000D01*
D26*
X150525000Y-69250000D02*
X150000000Y-69775000D01*
D25*
X145500000Y-85000000D02*
X145500000Y-71662500D01*
X152040000Y-91540000D02*
X152040000Y-97000000D01*
X156690000Y-63000000D02*
X153892000Y-65798000D01*
X145500000Y-71662500D02*
X147387500Y-69775000D01*
X148000000Y-87500000D02*
X145500000Y-85000000D01*
D26*
X153275000Y-69250000D02*
X150525000Y-69250000D01*
%TO.N,Net-(D1-K)*%
X161087500Y-97500000D02*
X157875000Y-97500000D01*
D27*
%TO.N,Net-(J2-Pin_2)*%
X124500000Y-80965000D02*
X126385000Y-79080000D01*
X130460000Y-92000000D02*
X124500000Y-86040000D01*
X124500000Y-86040000D02*
X124500000Y-80965000D01*
D25*
%TO.N,Net-(J3-Pin_2)*%
X132547500Y-55587500D02*
X133460000Y-56500000D01*
X129500000Y-55587500D02*
X132547500Y-55587500D01*
%TO.N,/BAL*%
X138500000Y-63500000D02*
X131500000Y-63500000D01*
D27*
X135540000Y-92000000D02*
X135540000Y-82625000D01*
X135540000Y-82625000D02*
X141625000Y-76540000D01*
%TO.N,/CAP*%
X133000000Y-92000000D02*
X133000000Y-82625000D01*
D25*
X134086500Y-61999000D02*
X129500000Y-57412500D01*
D27*
X133000000Y-82625000D02*
X141625000Y-74000000D01*
D25*
X140499000Y-61999000D02*
X134086500Y-61999000D01*
X142000000Y-63500000D02*
X140499000Y-61999000D01*
D26*
%TO.N,Net-(J7-Pin_2)*%
X159000000Y-67300000D02*
X158399000Y-66699000D01*
X119381000Y-66699000D02*
X107000000Y-79080000D01*
X158399000Y-66699000D02*
X119381000Y-66699000D01*
%TO.N,Net-(J7-Pin_3)*%
X121320000Y-67300000D02*
X107000000Y-81620000D01*
X153275000Y-67300000D02*
X121320000Y-67300000D01*
%TO.N,Net-(J8-Pin_6)*%
X166000000Y-72840000D02*
X163710000Y-70550000D01*
X166040000Y-72800000D02*
X166000000Y-72840000D01*
X170510000Y-72800000D02*
X166040000Y-72800000D01*
X163710000Y-70550000D02*
X159000000Y-70550000D01*
%TO.N,Net-(J8-Pin_3)*%
X166040000Y-80420000D02*
X166000000Y-80460000D01*
X164011266Y-80460000D02*
X157260500Y-73709234D01*
X157260500Y-73709234D02*
X157260500Y-71940766D01*
X158001266Y-71200000D02*
X159000000Y-71200000D01*
X170510000Y-80420000D02*
X166040000Y-80420000D01*
X166000000Y-80460000D02*
X164011266Y-80460000D01*
X157260500Y-71940766D02*
X158001266Y-71200000D01*
%TO.N,Net-(J8-Pin_4)*%
X170510000Y-77880000D02*
X166040000Y-77880000D01*
X166000000Y-77920000D02*
X160580000Y-72500000D01*
X166040000Y-77880000D02*
X166000000Y-77920000D01*
X160580000Y-72500000D02*
X159000000Y-72500000D01*
%TO.N,Net-(J8-Pin_7)*%
X166000000Y-70300000D02*
X165600000Y-69900000D01*
X170510000Y-70260000D02*
X166040000Y-70260000D01*
X165600000Y-69900000D02*
X159000000Y-69900000D01*
X166040000Y-70260000D02*
X166000000Y-70300000D01*
%TO.N,Net-(J8-Pin_8)*%
X170510000Y-67720000D02*
X166040000Y-67720000D01*
X166000000Y-67760000D02*
X164510000Y-69250000D01*
X166040000Y-67720000D02*
X166000000Y-67760000D01*
X164510000Y-69250000D02*
X159000000Y-69250000D01*
%TO.N,Net-(J2-Pin_5)*%
X145891364Y-68600000D02*
X143371364Y-71120000D01*
X139425000Y-71120000D02*
X126385000Y-84160000D01*
X145891364Y-68600000D02*
X147400000Y-68600000D01*
X147400000Y-68600000D02*
X147500000Y-68500000D01*
X143371364Y-71120000D02*
X139425000Y-71120000D01*
D27*
%TO.N,/VHV*%
X127920000Y-92000000D02*
X130420000Y-94500000D01*
X145000000Y-94500000D02*
X146000000Y-93500000D01*
D25*
X146000000Y-93500000D02*
X143176000Y-90676000D01*
X149500000Y-97000000D02*
X146000000Y-93500000D01*
X143176000Y-90676000D02*
X143176000Y-83171000D01*
X143176000Y-83171000D02*
X141625000Y-81620000D01*
D27*
X130420000Y-94500000D02*
X145000000Y-94500000D01*
D26*
%TO.N,/RX*%
X153275000Y-73150000D02*
X152250000Y-73150000D01*
X152250000Y-73150000D02*
X152100000Y-73300000D01*
%TO.N,/TX*%
X153275000Y-72500000D02*
X151500000Y-72500000D01*
%TO.N,/SWDIO*%
X159000000Y-68600000D02*
X159998734Y-68600000D01*
X163021000Y-65577734D02*
X163021000Y-62481818D01*
X159998734Y-68600000D02*
X163021000Y-65577734D01*
X162288182Y-61749000D02*
X160481000Y-61749000D01*
X160481000Y-61749000D02*
X159230000Y-63000000D01*
X163021000Y-62481818D02*
X162288182Y-61749000D01*
%TO.N,/SWCLK*%
X161770000Y-65978792D02*
X161770000Y-63000000D01*
X159000000Y-67950000D02*
X159798792Y-67950000D01*
X159798792Y-67950000D02*
X161770000Y-65978792D01*
%TO.N,/SHT40_GND*%
X154273734Y-71200000D02*
X155500000Y-72426266D01*
D27*
X102040000Y-76540000D02*
X102000000Y-76500000D01*
D26*
X105749000Y-77791000D02*
X107000000Y-76540000D01*
X122500000Y-68500000D02*
X108129000Y-82871000D01*
D27*
X107000000Y-76540000D02*
X102040000Y-76540000D01*
D26*
X106481818Y-82871000D02*
X105749000Y-82138182D01*
X108129000Y-82871000D02*
X106481818Y-82871000D01*
X145000000Y-68500000D02*
X122500000Y-68500000D01*
X105749000Y-82138182D02*
X105749000Y-77791000D01*
X155500000Y-74000000D02*
X155425000Y-74000000D01*
X155500000Y-72426266D02*
X155500000Y-74000000D01*
X153275000Y-71200000D02*
X154273734Y-71200000D01*
%TO.N,/EPD_VCC*%
X170510000Y-85500000D02*
X171200000Y-85500000D01*
X166518182Y-79171000D02*
X164108925Y-79171000D01*
X172200000Y-80302818D02*
X171028182Y-79131000D01*
X171028182Y-79131000D02*
X166558182Y-79131000D01*
X170260000Y-85540000D02*
X166000000Y-85540000D01*
X170510000Y-85500000D02*
X170300000Y-85500000D01*
X166558182Y-79131000D02*
X166518182Y-79171000D01*
X171200000Y-85500000D02*
X172200000Y-84500000D01*
X170300000Y-85500000D02*
X170260000Y-85540000D01*
X159000000Y-74062075D02*
X159000000Y-73150000D01*
X172200000Y-84500000D02*
X172200000Y-80302818D01*
X164108925Y-79171000D02*
X159000000Y-74062075D01*
%TO.N,Net-(J8-Pin_5)*%
X166040000Y-75340000D02*
X166000000Y-75380000D01*
X166000000Y-75380000D02*
X162470000Y-71850000D01*
X162470000Y-71850000D02*
X159000000Y-71850000D01*
X170510000Y-75340000D02*
X166040000Y-75340000D01*
D27*
%TO.N,Net-(U3-PA1)*%
X148000000Y-82500000D02*
X152912500Y-77587500D01*
D26*
X154413500Y-72189708D02*
X154073792Y-71850000D01*
X152912500Y-76000000D02*
X154413500Y-74499000D01*
X154073792Y-71850000D02*
X153275000Y-71850000D01*
X154413500Y-74499000D02*
X154413500Y-72189708D01*
D27*
X152912500Y-77587500D02*
X152912500Y-76000000D01*
D26*
%TO.N,Net-(D1-A)*%
X156125000Y-70001208D02*
X154073792Y-67950000D01*
X154073792Y-67950000D02*
X153275000Y-67950000D01*
X156125000Y-97500000D02*
X156125000Y-70001208D01*
%TO.N,Net-(JP2-A)*%
X153275000Y-68600000D02*
X150100000Y-68600000D01*
X150100000Y-68600000D02*
X150000000Y-68500000D01*
%TD*%
%TA.AperFunction,Conductor*%
%TO.N,GND*%
G36*
X171003032Y-53500648D02*
G01*
X171336929Y-53517052D01*
X171349037Y-53518245D01*
X171452146Y-53533539D01*
X171676699Y-53566849D01*
X171688617Y-53569219D01*
X172009951Y-53649709D01*
X172021588Y-53653240D01*
X172092806Y-53678722D01*
X172333467Y-53764832D01*
X172344688Y-53769479D01*
X172644163Y-53911120D01*
X172654871Y-53916844D01*
X172938988Y-54087137D01*
X172949106Y-54093897D01*
X173215170Y-54291224D01*
X173224576Y-54298944D01*
X173470013Y-54521395D01*
X173478604Y-54529986D01*
X173633485Y-54700871D01*
X173701055Y-54775423D01*
X173708775Y-54784829D01*
X173906102Y-55050893D01*
X173912862Y-55061011D01*
X174079010Y-55338213D01*
X174083148Y-55345116D01*
X174088883Y-55355844D01*
X174206710Y-55604969D01*
X174230514Y-55655297D01*
X174235170Y-55666540D01*
X174346759Y-55978411D01*
X174350292Y-55990055D01*
X174430777Y-56311369D01*
X174433151Y-56323305D01*
X174481754Y-56650962D01*
X174482947Y-56663071D01*
X174499351Y-56996966D01*
X174499500Y-57003051D01*
X174499500Y-95996948D01*
X174499351Y-96003033D01*
X174482947Y-96336928D01*
X174481754Y-96349037D01*
X174433151Y-96676694D01*
X174430777Y-96688630D01*
X174350292Y-97009944D01*
X174346759Y-97021588D01*
X174235170Y-97333459D01*
X174230514Y-97344702D01*
X174088885Y-97644151D01*
X174083148Y-97654883D01*
X173912862Y-97938988D01*
X173906102Y-97949106D01*
X173708775Y-98215170D01*
X173701055Y-98224576D01*
X173478611Y-98470006D01*
X173470006Y-98478611D01*
X173224576Y-98701055D01*
X173215170Y-98708775D01*
X172949106Y-98906102D01*
X172938988Y-98912862D01*
X172654883Y-99083148D01*
X172644151Y-99088885D01*
X172344702Y-99230514D01*
X172333459Y-99235170D01*
X172021588Y-99346759D01*
X172009944Y-99350292D01*
X171688630Y-99430777D01*
X171676694Y-99433151D01*
X171349037Y-99481754D01*
X171336928Y-99482947D01*
X171021989Y-99498419D01*
X171003031Y-99499351D01*
X170996949Y-99499500D01*
X104003051Y-99499500D01*
X103996968Y-99499351D01*
X103976900Y-99498365D01*
X103663071Y-99482947D01*
X103650962Y-99481754D01*
X103323305Y-99433151D01*
X103311369Y-99430777D01*
X102990055Y-99350292D01*
X102978411Y-99346759D01*
X102666540Y-99235170D01*
X102655301Y-99230515D01*
X102355844Y-99088883D01*
X102345121Y-99083150D01*
X102061011Y-98912862D01*
X102050893Y-98906102D01*
X101784829Y-98708775D01*
X101775423Y-98701055D01*
X101736475Y-98665755D01*
X101529986Y-98478604D01*
X101521395Y-98470013D01*
X101298944Y-98224576D01*
X101291224Y-98215170D01*
X101278515Y-98198034D01*
X101093895Y-97949103D01*
X101087137Y-97938988D01*
X101066756Y-97904984D01*
X100916844Y-97654871D01*
X100911120Y-97644163D01*
X100769479Y-97344688D01*
X100764829Y-97333459D01*
X100743374Y-97273497D01*
X100668566Y-97064421D01*
X100653240Y-97021588D01*
X100649707Y-97009944D01*
X100637486Y-96961155D01*
X100569219Y-96688617D01*
X100566848Y-96676694D01*
X100566530Y-96674553D01*
X100518245Y-96349037D01*
X100517052Y-96336927D01*
X100516741Y-96330606D01*
X100500649Y-96003032D01*
X100500500Y-95996948D01*
X100500500Y-95868872D01*
X101999500Y-95868872D01*
X101999500Y-96131127D01*
X102025764Y-96330609D01*
X102033730Y-96391116D01*
X102095606Y-96622041D01*
X102101602Y-96644418D01*
X102101605Y-96644428D01*
X102201953Y-96886690D01*
X102201958Y-96886700D01*
X102333075Y-97113803D01*
X102492718Y-97321851D01*
X102492726Y-97321860D01*
X102678140Y-97507274D01*
X102678148Y-97507281D01*
X102678149Y-97507282D01*
X102726554Y-97544424D01*
X102886196Y-97666924D01*
X103113299Y-97798041D01*
X103113309Y-97798046D01*
X103355571Y-97898394D01*
X103355581Y-97898398D01*
X103608884Y-97966270D01*
X103868880Y-98000500D01*
X103868887Y-98000500D01*
X104131113Y-98000500D01*
X104131120Y-98000500D01*
X104391116Y-97966270D01*
X104644419Y-97898398D01*
X104886697Y-97798043D01*
X105113803Y-97666924D01*
X105321851Y-97507282D01*
X105321855Y-97507277D01*
X105321860Y-97507274D01*
X105507274Y-97321860D01*
X105507277Y-97321855D01*
X105507282Y-97321851D01*
X105666924Y-97113803D01*
X105755056Y-96961153D01*
X118659500Y-96961153D01*
X118659500Y-97118846D01*
X118690261Y-97273489D01*
X118690264Y-97273501D01*
X118750602Y-97419172D01*
X118750609Y-97419185D01*
X118838210Y-97550288D01*
X118838213Y-97550292D01*
X118949707Y-97661786D01*
X118949711Y-97661789D01*
X119080814Y-97749390D01*
X119080827Y-97749397D01*
X119198266Y-97798041D01*
X119226503Y-97809737D01*
X119381153Y-97840499D01*
X119381156Y-97840500D01*
X119381158Y-97840500D01*
X119538844Y-97840500D01*
X119538845Y-97840499D01*
X119693497Y-97809737D01*
X119839179Y-97749394D01*
X119970289Y-97661789D01*
X120081789Y-97550289D01*
X120169394Y-97419179D01*
X120229737Y-97273497D01*
X120260500Y-97118842D01*
X120260500Y-96961158D01*
X120260500Y-96961155D01*
X120260499Y-96961153D01*
X121199500Y-96961153D01*
X121199500Y-97118846D01*
X121230261Y-97273489D01*
X121230264Y-97273501D01*
X121290602Y-97419172D01*
X121290609Y-97419185D01*
X121378210Y-97550288D01*
X121378213Y-97550292D01*
X121489707Y-97661786D01*
X121489711Y-97661789D01*
X121620814Y-97749390D01*
X121620827Y-97749397D01*
X121738266Y-97798041D01*
X121766503Y-97809737D01*
X121921153Y-97840499D01*
X121921156Y-97840500D01*
X121921158Y-97840500D01*
X122078844Y-97840500D01*
X122078845Y-97840499D01*
X122233497Y-97809737D01*
X122379179Y-97749394D01*
X122510289Y-97661789D01*
X122621789Y-97550289D01*
X122709394Y-97419179D01*
X122769737Y-97273497D01*
X122800500Y-97118842D01*
X122800500Y-96961158D01*
X122800500Y-96961155D01*
X122800499Y-96961153D01*
X122787084Y-96893713D01*
X122769737Y-96806503D01*
X122766836Y-96799500D01*
X122709397Y-96660827D01*
X122709390Y-96660814D01*
X122621789Y-96529711D01*
X122621786Y-96529707D01*
X122510292Y-96418213D01*
X122510288Y-96418210D01*
X122379185Y-96330609D01*
X122379172Y-96330602D01*
X122233501Y-96270264D01*
X122233489Y-96270261D01*
X122078845Y-96239500D01*
X122078842Y-96239500D01*
X121921158Y-96239500D01*
X121921155Y-96239500D01*
X121766510Y-96270261D01*
X121766498Y-96270264D01*
X121620827Y-96330602D01*
X121620814Y-96330609D01*
X121489711Y-96418210D01*
X121489707Y-96418213D01*
X121378213Y-96529707D01*
X121378210Y-96529711D01*
X121290609Y-96660814D01*
X121290602Y-96660827D01*
X121230264Y-96806498D01*
X121230261Y-96806510D01*
X121199500Y-96961153D01*
X120260499Y-96961153D01*
X120247084Y-96893713D01*
X120229737Y-96806503D01*
X120226836Y-96799500D01*
X120169397Y-96660827D01*
X120169390Y-96660814D01*
X120081789Y-96529711D01*
X120081786Y-96529707D01*
X119970292Y-96418213D01*
X119970288Y-96418210D01*
X119839185Y-96330609D01*
X119839172Y-96330602D01*
X119693501Y-96270264D01*
X119693489Y-96270261D01*
X119538845Y-96239500D01*
X119538842Y-96239500D01*
X119381158Y-96239500D01*
X119381155Y-96239500D01*
X119226510Y-96270261D01*
X119226498Y-96270264D01*
X119080827Y-96330602D01*
X119080814Y-96330609D01*
X118949711Y-96418210D01*
X118949707Y-96418213D01*
X118838213Y-96529707D01*
X118838210Y-96529711D01*
X118750609Y-96660814D01*
X118750602Y-96660827D01*
X118690264Y-96806498D01*
X118690261Y-96806510D01*
X118659500Y-96961153D01*
X105755056Y-96961153D01*
X105762369Y-96948486D01*
X105794366Y-96893066D01*
X105794722Y-96892448D01*
X105798043Y-96886697D01*
X105898398Y-96644419D01*
X105966270Y-96391116D01*
X106000500Y-96131120D01*
X106000500Y-95868880D01*
X105966270Y-95608884D01*
X105898398Y-95355581D01*
X105898394Y-95355571D01*
X105798046Y-95113309D01*
X105798041Y-95113299D01*
X105666924Y-94886196D01*
X105507281Y-94678148D01*
X105507274Y-94678140D01*
X105321860Y-94492726D01*
X105321851Y-94492718D01*
X105113803Y-94333075D01*
X104886700Y-94201958D01*
X104886690Y-94201953D01*
X104644428Y-94101605D01*
X104644421Y-94101603D01*
X104644419Y-94101602D01*
X104391116Y-94033730D01*
X104333339Y-94026123D01*
X104131127Y-93999500D01*
X104131120Y-93999500D01*
X103868880Y-93999500D01*
X103868872Y-93999500D01*
X103637772Y-94029926D01*
X103608884Y-94033730D01*
X103355581Y-94101602D01*
X103355571Y-94101605D01*
X103113309Y-94201953D01*
X103113299Y-94201958D01*
X102886196Y-94333075D01*
X102678148Y-94492718D01*
X102492718Y-94678148D01*
X102333075Y-94886196D01*
X102201958Y-95113299D01*
X102201953Y-95113309D01*
X102101605Y-95355571D01*
X102101602Y-95355581D01*
X102033730Y-95608885D01*
X101999500Y-95868872D01*
X100500500Y-95868872D01*
X100500500Y-92878711D01*
X110649500Y-92878711D01*
X110649500Y-93121288D01*
X110681161Y-93361785D01*
X110743947Y-93596104D01*
X110810253Y-93756180D01*
X110836776Y-93820212D01*
X110958064Y-94030289D01*
X110958066Y-94030292D01*
X110958067Y-94030293D01*
X111105733Y-94222736D01*
X111105739Y-94222743D01*
X111277256Y-94394260D01*
X111277262Y-94394265D01*
X111469711Y-94541936D01*
X111679788Y-94663224D01*
X111903900Y-94756054D01*
X112138211Y-94818838D01*
X112318586Y-94842584D01*
X112378711Y-94850500D01*
X112378712Y-94850500D01*
X112621289Y-94850500D01*
X112669388Y-94844167D01*
X112861789Y-94818838D01*
X113096100Y-94756054D01*
X113320212Y-94663224D01*
X113530289Y-94541936D01*
X113722738Y-94394265D01*
X113894265Y-94222738D01*
X114041936Y-94030289D01*
X114163224Y-93820212D01*
X114243199Y-93627135D01*
X118134500Y-93627135D01*
X118134500Y-95372870D01*
X118134501Y-95372876D01*
X118140908Y-95432483D01*
X118191202Y-95567328D01*
X118191206Y-95567335D01*
X118277452Y-95682544D01*
X118277455Y-95682547D01*
X118392664Y-95768793D01*
X118392671Y-95768797D01*
X118527517Y-95819091D01*
X118527516Y-95819091D01*
X118534444Y-95819835D01*
X118587127Y-95825500D01*
X120332872Y-95825499D01*
X120392483Y-95819091D01*
X120527331Y-95768796D01*
X120642546Y-95682546D01*
X120728796Y-95567331D01*
X120779091Y-95432483D01*
X120785500Y-95372873D01*
X120785499Y-95354587D01*
X120788686Y-95340809D01*
X120799163Y-95322201D01*
X120805175Y-95301718D01*
X120815961Y-95292368D01*
X120822967Y-95279927D01*
X120841839Y-95269938D01*
X120857972Y-95255956D01*
X120873421Y-95253224D01*
X120884721Y-95247244D01*
X120898073Y-95248373D01*
X121476212Y-94670234D01*
X121487482Y-94712292D01*
X121559890Y-94837708D01*
X121662292Y-94940110D01*
X121787708Y-95012518D01*
X121829765Y-95023787D01*
X121256179Y-95597371D01*
X121256180Y-95597372D01*
X121305543Y-95633236D01*
X121305556Y-95633244D01*
X121491372Y-95727924D01*
X121689727Y-95792373D01*
X121895721Y-95825000D01*
X122104279Y-95825000D01*
X122310272Y-95792373D01*
X122508627Y-95727924D01*
X122694451Y-95633240D01*
X122743818Y-95597372D01*
X122743818Y-95597371D01*
X122170234Y-95023787D01*
X122212292Y-95012518D01*
X122337708Y-94940110D01*
X122440110Y-94837708D01*
X122512518Y-94712292D01*
X122523787Y-94670234D01*
X123097371Y-95243818D01*
X123097372Y-95243818D01*
X123133240Y-95194451D01*
X123227924Y-95008627D01*
X123292373Y-94810272D01*
X123325000Y-94604279D01*
X123325000Y-94395720D01*
X123292373Y-94189727D01*
X123227924Y-93991372D01*
X123133244Y-93805556D01*
X123133236Y-93805543D01*
X123097372Y-93756180D01*
X123097371Y-93756179D01*
X122523787Y-94329764D01*
X122512518Y-94287708D01*
X122440110Y-94162292D01*
X122337708Y-94059890D01*
X122212292Y-93987482D01*
X122170233Y-93976212D01*
X122743819Y-93402627D01*
X122694451Y-93366759D01*
X122508627Y-93272075D01*
X122310272Y-93207626D01*
X122104279Y-93175000D01*
X121895721Y-93175000D01*
X121689727Y-93207626D01*
X121491372Y-93272075D01*
X121305552Y-93366757D01*
X121256180Y-93402627D01*
X121829766Y-93976212D01*
X121787708Y-93987482D01*
X121662292Y-94059890D01*
X121559890Y-94162292D01*
X121487482Y-94287708D01*
X121476212Y-94329765D01*
X120896557Y-93750110D01*
X120850849Y-93740508D01*
X120801093Y-93691456D01*
X120788687Y-93659190D01*
X120785499Y-93645402D01*
X120785499Y-93627128D01*
X120779091Y-93567517D01*
X120728796Y-93432669D01*
X120728795Y-93432668D01*
X120728793Y-93432664D01*
X120642547Y-93317455D01*
X120642544Y-93317452D01*
X120527335Y-93231206D01*
X120527328Y-93231202D01*
X120392482Y-93180908D01*
X120392483Y-93180908D01*
X120332883Y-93174501D01*
X120332881Y-93174500D01*
X120332873Y-93174500D01*
X120332864Y-93174500D01*
X118587129Y-93174500D01*
X118587123Y-93174501D01*
X118527516Y-93180908D01*
X118392671Y-93231202D01*
X118392664Y-93231206D01*
X118277455Y-93317452D01*
X118277452Y-93317455D01*
X118191206Y-93432664D01*
X118191202Y-93432671D01*
X118140908Y-93567517D01*
X118134501Y-93627116D01*
X118134500Y-93627135D01*
X114243199Y-93627135D01*
X114256054Y-93596100D01*
X114318838Y-93361789D01*
X114350500Y-93121288D01*
X114350500Y-92878712D01*
X114318838Y-92638211D01*
X114256054Y-92403900D01*
X114163224Y-92179788D01*
X114041936Y-91969711D01*
X113894265Y-91777262D01*
X113894260Y-91777256D01*
X113722743Y-91605739D01*
X113722736Y-91605733D01*
X113530293Y-91458067D01*
X113530292Y-91458066D01*
X113530289Y-91458064D01*
X113320212Y-91336776D01*
X113264707Y-91313785D01*
X113096104Y-91243947D01*
X112861785Y-91181161D01*
X112621289Y-91149500D01*
X112621288Y-91149500D01*
X112378712Y-91149500D01*
X112378711Y-91149500D01*
X112138214Y-91181161D01*
X111903895Y-91243947D01*
X111679794Y-91336773D01*
X111679785Y-91336777D01*
X111469706Y-91458067D01*
X111277263Y-91605733D01*
X111277256Y-91605739D01*
X111105739Y-91777256D01*
X111105733Y-91777263D01*
X110958067Y-91969706D01*
X110836777Y-92179785D01*
X110836773Y-92179794D01*
X110743947Y-92403895D01*
X110681161Y-92638214D01*
X110649500Y-92878711D01*
X100500500Y-92878711D01*
X100500500Y-84656611D01*
X100520185Y-84589572D01*
X100572989Y-84543817D01*
X100642147Y-84533873D01*
X100705703Y-84562898D01*
X100742432Y-84618294D01*
X100748906Y-84638221D01*
X100845375Y-84827550D01*
X100884728Y-84881716D01*
X101517037Y-84249408D01*
X101534075Y-84312993D01*
X101599901Y-84427007D01*
X101692993Y-84520099D01*
X101807007Y-84585925D01*
X101870590Y-84602962D01*
X101238282Y-85235269D01*
X101238282Y-85235270D01*
X101292449Y-85274624D01*
X101481782Y-85371095D01*
X101683870Y-85436757D01*
X101893754Y-85470000D01*
X102106246Y-85470000D01*
X102316127Y-85436757D01*
X102316130Y-85436757D01*
X102518217Y-85371095D01*
X102707554Y-85274622D01*
X102761716Y-85235270D01*
X102761717Y-85235270D01*
X102129408Y-84602962D01*
X102192993Y-84585925D01*
X102307007Y-84520099D01*
X102400099Y-84427007D01*
X102465925Y-84312993D01*
X102482962Y-84249409D01*
X103115270Y-84881717D01*
X103115270Y-84881716D01*
X103154622Y-84827554D01*
X103251095Y-84638217D01*
X103316757Y-84436130D01*
X103316757Y-84436127D01*
X103350000Y-84226246D01*
X103350000Y-84013753D01*
X103316757Y-83803872D01*
X103316757Y-83803869D01*
X103251095Y-83601782D01*
X103154624Y-83412449D01*
X103115270Y-83358282D01*
X103115269Y-83358282D01*
X102482962Y-83990590D01*
X102465925Y-83927007D01*
X102400099Y-83812993D01*
X102307007Y-83719901D01*
X102192993Y-83654075D01*
X102129409Y-83637037D01*
X102761716Y-83004728D01*
X102707547Y-82965373D01*
X102698500Y-82960763D01*
X102647706Y-82912788D01*
X102630912Y-82844966D01*
X102653451Y-82778832D01*
X102698508Y-82739793D01*
X102707816Y-82735051D01*
X102820760Y-82652993D01*
X102879786Y-82610109D01*
X102879788Y-82610106D01*
X102879792Y-82610104D01*
X103030104Y-82459792D01*
X103030106Y-82459788D01*
X103030109Y-82459786D01*
X103155048Y-82287820D01*
X103155047Y-82287820D01*
X103155051Y-82287816D01*
X103251557Y-82098412D01*
X103317246Y-81896243D01*
X103350500Y-81686287D01*
X103350500Y-81473713D01*
X103317246Y-81263757D01*
X103251557Y-81061588D01*
X103155051Y-80872184D01*
X103155049Y-80872181D01*
X103155048Y-80872179D01*
X103030109Y-80700213D01*
X102879786Y-80549890D01*
X102707820Y-80424951D01*
X102703665Y-80422834D01*
X102699054Y-80420485D01*
X102648259Y-80372512D01*
X102631463Y-80304692D01*
X102653999Y-80238556D01*
X102699054Y-80199515D01*
X102707816Y-80195051D01*
X102729789Y-80179086D01*
X102879786Y-80070109D01*
X102879788Y-80070106D01*
X102879792Y-80070104D01*
X103030104Y-79919792D01*
X103030106Y-79919788D01*
X103030109Y-79919786D01*
X103155048Y-79747820D01*
X103155047Y-79747820D01*
X103155051Y-79747816D01*
X103251557Y-79558412D01*
X103317246Y-79356243D01*
X103350500Y-79146287D01*
X103350500Y-78933713D01*
X103317246Y-78723757D01*
X103251557Y-78521588D01*
X103155051Y-78332184D01*
X103155049Y-78332181D01*
X103155048Y-78332179D01*
X103030109Y-78160213D01*
X102916569Y-78046673D01*
X102883084Y-77985350D01*
X102888068Y-77915658D01*
X102929940Y-77859725D01*
X102960915Y-77842810D01*
X103092331Y-77793796D01*
X103207546Y-77707546D01*
X103293796Y-77592331D01*
X103338987Y-77471166D01*
X103380858Y-77415234D01*
X103446322Y-77390816D01*
X103455169Y-77390500D01*
X104971098Y-77390500D01*
X105038137Y-77410185D01*
X105083892Y-77462989D01*
X105093836Y-77532147D01*
X105085659Y-77561952D01*
X105075421Y-77586667D01*
X105075418Y-77586677D01*
X105048500Y-77722004D01*
X105048500Y-77722007D01*
X105048500Y-82069188D01*
X105048500Y-82207176D01*
X105048500Y-82207178D01*
X105048499Y-82207178D01*
X105075418Y-82342504D01*
X105075421Y-82342514D01*
X105128222Y-82469989D01*
X105204887Y-82584727D01*
X106035272Y-83415112D01*
X106150008Y-83491776D01*
X106213843Y-83518217D01*
X106277489Y-83544580D01*
X106277490Y-83544580D01*
X106277495Y-83544582D01*
X106304363Y-83549925D01*
X106304369Y-83549926D01*
X106304409Y-83549934D01*
X106394755Y-83567905D01*
X106412824Y-83571500D01*
X106412825Y-83571500D01*
X108197996Y-83571500D01*
X108306457Y-83549925D01*
X108333328Y-83544580D01*
X108397069Y-83518177D01*
X108460807Y-83491777D01*
X108460808Y-83491776D01*
X108460811Y-83491775D01*
X108575543Y-83415114D01*
X122753838Y-69236819D01*
X122815161Y-69203334D01*
X122841519Y-69200500D01*
X144000845Y-69200500D01*
X144067884Y-69220185D01*
X144113639Y-69272989D01*
X144123583Y-69342147D01*
X144094558Y-69405703D01*
X144088526Y-69412181D01*
X143117526Y-70383181D01*
X143056203Y-70416666D01*
X143029845Y-70419500D01*
X139356004Y-70419500D01*
X139220677Y-70446418D01*
X139220667Y-70446421D01*
X139093192Y-70499222D01*
X138978454Y-70575887D01*
X138978453Y-70575888D01*
X127946681Y-81607661D01*
X127885358Y-81641146D01*
X127815666Y-81636162D01*
X127759733Y-81594290D01*
X127735316Y-81528826D01*
X127735000Y-81519980D01*
X127735000Y-81513753D01*
X127701757Y-81303872D01*
X127701757Y-81303869D01*
X127636095Y-81101782D01*
X127539624Y-80912449D01*
X127500270Y-80858282D01*
X127500269Y-80858282D01*
X126867962Y-81490589D01*
X126850925Y-81427007D01*
X126785099Y-81312993D01*
X126692007Y-81219901D01*
X126577993Y-81154075D01*
X126514407Y-81137036D01*
X127146716Y-80504728D01*
X127092547Y-80465373D01*
X127092547Y-80465372D01*
X127083500Y-80460763D01*
X127032706Y-80412788D01*
X127015912Y-80344966D01*
X127038451Y-80278832D01*
X127083508Y-80239793D01*
X127092816Y-80235051D01*
X127172007Y-80177515D01*
X127264786Y-80110109D01*
X127264788Y-80110106D01*
X127264792Y-80110104D01*
X127415104Y-79959792D01*
X127415106Y-79959788D01*
X127415109Y-79959786D01*
X127540048Y-79787820D01*
X127540047Y-79787820D01*
X127540051Y-79787816D01*
X127636557Y-79598412D01*
X127702246Y-79396243D01*
X127735500Y-79186287D01*
X127735500Y-78973713D01*
X127702246Y-78763757D01*
X127636557Y-78561588D01*
X127540051Y-78372184D01*
X127540049Y-78372181D01*
X127540048Y-78372179D01*
X127415109Y-78200213D01*
X127264786Y-78049890D01*
X127092817Y-77924949D01*
X127083504Y-77920204D01*
X127032707Y-77872230D01*
X127015912Y-77804409D01*
X127038449Y-77738274D01*
X127083507Y-77699232D01*
X127092555Y-77694622D01*
X127146716Y-77655270D01*
X127146717Y-77655270D01*
X126514408Y-77022962D01*
X126577993Y-77005925D01*
X126692007Y-76940099D01*
X126785099Y-76847007D01*
X126850925Y-76732993D01*
X126867962Y-76669408D01*
X127500270Y-77301717D01*
X127500270Y-77301716D01*
X127539622Y-77247554D01*
X127636095Y-77058217D01*
X127701757Y-76856130D01*
X127701757Y-76856127D01*
X127735000Y-76646246D01*
X127735000Y-76433753D01*
X127701757Y-76223872D01*
X127701757Y-76223869D01*
X127636095Y-76021782D01*
X127539624Y-75832449D01*
X127500270Y-75778282D01*
X127500269Y-75778282D01*
X126867962Y-76410590D01*
X126850925Y-76347007D01*
X126785099Y-76232993D01*
X126692007Y-76139901D01*
X126577993Y-76074075D01*
X126514409Y-76057037D01*
X127184627Y-75386818D01*
X127245950Y-75353333D01*
X127272307Y-75350499D01*
X127282872Y-75350499D01*
X127342483Y-75344091D01*
X127477331Y-75293796D01*
X127592546Y-75207546D01*
X127678796Y-75092331D01*
X127729091Y-74957483D01*
X127735500Y-74897873D01*
X127735499Y-73102128D01*
X127729091Y-73042517D01*
X127717070Y-73010288D01*
X127678797Y-72907671D01*
X127678793Y-72907664D01*
X127592547Y-72792455D01*
X127592544Y-72792452D01*
X127477335Y-72706206D01*
X127477328Y-72706202D01*
X127342482Y-72655908D01*
X127342483Y-72655908D01*
X127282883Y-72649501D01*
X127282881Y-72649500D01*
X127282873Y-72649500D01*
X127282864Y-72649500D01*
X125487129Y-72649500D01*
X125487123Y-72649501D01*
X125427516Y-72655908D01*
X125292671Y-72706202D01*
X125292664Y-72706206D01*
X125177455Y-72792452D01*
X125177452Y-72792455D01*
X125091206Y-72907664D01*
X125091202Y-72907671D01*
X125040908Y-73042517D01*
X125034501Y-73102116D01*
X125034501Y-73102123D01*
X125034500Y-73102135D01*
X125034500Y-74897870D01*
X125034501Y-74897876D01*
X125040908Y-74957483D01*
X125091202Y-75092328D01*
X125091206Y-75092335D01*
X125177452Y-75207544D01*
X125177455Y-75207547D01*
X125292664Y-75293793D01*
X125292671Y-75293797D01*
X125314571Y-75301965D01*
X125427517Y-75344091D01*
X125487127Y-75350500D01*
X125497685Y-75350499D01*
X125564723Y-75370179D01*
X125585372Y-75386818D01*
X126255591Y-76057037D01*
X126192007Y-76074075D01*
X126077993Y-76139901D01*
X125984901Y-76232993D01*
X125919075Y-76347007D01*
X125902037Y-76410591D01*
X125269728Y-75778282D01*
X125269727Y-75778282D01*
X125230380Y-75832439D01*
X125133904Y-76021782D01*
X125068242Y-76223869D01*
X125068242Y-76223872D01*
X125035000Y-76433753D01*
X125035000Y-76646246D01*
X125068242Y-76856127D01*
X125068242Y-76856130D01*
X125133904Y-77058217D01*
X125230375Y-77247550D01*
X125269728Y-77301716D01*
X125902037Y-76669408D01*
X125919075Y-76732993D01*
X125984901Y-76847007D01*
X126077993Y-76940099D01*
X126192007Y-77005925D01*
X126255590Y-77022962D01*
X125623282Y-77655269D01*
X125623282Y-77655270D01*
X125677452Y-77694626D01*
X125677451Y-77694626D01*
X125686495Y-77699234D01*
X125737292Y-77747208D01*
X125754087Y-77815029D01*
X125731550Y-77881164D01*
X125686499Y-77920202D01*
X125677182Y-77924949D01*
X125505213Y-78049890D01*
X125354890Y-78200213D01*
X125229951Y-78372179D01*
X125133444Y-78561585D01*
X125067753Y-78763760D01*
X125034500Y-78973713D01*
X125034500Y-79176348D01*
X125014815Y-79243387D01*
X124998181Y-79264029D01*
X123839375Y-80422834D01*
X123839372Y-80422838D01*
X123746297Y-80562133D01*
X123746296Y-80562136D01*
X123706610Y-80657948D01*
X123706610Y-80657949D01*
X123682184Y-80716917D01*
X123682182Y-80716925D01*
X123649500Y-80881228D01*
X123649500Y-86123771D01*
X123680006Y-86277136D01*
X123682183Y-86288080D01*
X123746297Y-86442866D01*
X123839372Y-86582161D01*
X123839375Y-86582165D01*
X127695030Y-90437819D01*
X127728515Y-90499142D01*
X127723531Y-90568834D01*
X127681659Y-90624767D01*
X127616195Y-90649184D01*
X127607349Y-90649500D01*
X127022129Y-90649500D01*
X127022123Y-90649501D01*
X126962516Y-90655908D01*
X126827671Y-90706202D01*
X126827664Y-90706206D01*
X126712455Y-90792452D01*
X126712452Y-90792455D01*
X126626206Y-90907664D01*
X126626202Y-90907671D01*
X126575908Y-91042517D01*
X126569501Y-91102116D01*
X126569500Y-91102135D01*
X126569500Y-92897870D01*
X126569501Y-92897876D01*
X126575908Y-92957483D01*
X126626202Y-93092328D01*
X126626206Y-93092335D01*
X126712452Y-93207544D01*
X126712455Y-93207547D01*
X126827664Y-93293793D01*
X126827671Y-93293797D01*
X126962517Y-93344091D01*
X126962516Y-93344091D01*
X126969444Y-93344835D01*
X127022127Y-93350500D01*
X128016348Y-93350499D01*
X128083387Y-93370183D01*
X128104029Y-93386818D01*
X129877834Y-95160624D01*
X129877838Y-95160627D01*
X130017137Y-95253704D01*
X130017139Y-95253705D01*
X130017143Y-95253707D01*
X130080447Y-95279927D01*
X130126584Y-95299037D01*
X130171918Y-95317816D01*
X130287513Y-95340809D01*
X130336228Y-95350499D01*
X130336232Y-95350500D01*
X130336233Y-95350500D01*
X145083768Y-95350500D01*
X145083769Y-95350499D01*
X145138538Y-95339605D01*
X145248074Y-95317818D01*
X145248078Y-95317816D01*
X145248082Y-95317816D01*
X145293415Y-95299037D01*
X145402863Y-95253704D01*
X145542162Y-95160627D01*
X145806254Y-94896533D01*
X145867575Y-94863050D01*
X145937267Y-94868034D01*
X145981614Y-94896534D01*
X147057932Y-95972853D01*
X148113181Y-97028102D01*
X148146666Y-97089425D01*
X148149500Y-97115783D01*
X148149500Y-97897870D01*
X148149501Y-97897876D01*
X148155908Y-97957483D01*
X148206202Y-98092328D01*
X148206206Y-98092335D01*
X148292452Y-98207544D01*
X148292455Y-98207547D01*
X148407664Y-98293793D01*
X148407671Y-98293797D01*
X148542517Y-98344091D01*
X148542516Y-98344091D01*
X148549444Y-98344835D01*
X148602127Y-98350500D01*
X150397872Y-98350499D01*
X150457483Y-98344091D01*
X150592331Y-98293796D01*
X150707546Y-98207546D01*
X150793796Y-98092331D01*
X150842810Y-97960916D01*
X150884681Y-97904984D01*
X150950145Y-97880566D01*
X151018418Y-97895417D01*
X151046673Y-97916569D01*
X151160213Y-98030109D01*
X151332179Y-98155048D01*
X151332181Y-98155049D01*
X151332184Y-98155051D01*
X151521588Y-98251557D01*
X151723757Y-98317246D01*
X151933713Y-98350500D01*
X151933714Y-98350500D01*
X152146286Y-98350500D01*
X152146287Y-98350500D01*
X152356243Y-98317246D01*
X152558412Y-98251557D01*
X152747816Y-98155051D01*
X152834138Y-98092335D01*
X152919786Y-98030109D01*
X152919788Y-98030106D01*
X152919792Y-98030104D01*
X153070104Y-97879792D01*
X153070106Y-97879788D01*
X153070109Y-97879786D01*
X153195048Y-97707820D01*
X153195047Y-97707820D01*
X153195051Y-97707816D01*
X153291557Y-97518412D01*
X153357246Y-97316243D01*
X153390500Y-97106287D01*
X153390500Y-96893713D01*
X153357246Y-96683757D01*
X153291557Y-96481588D01*
X153195051Y-96292184D01*
X153195049Y-96292181D01*
X153195048Y-96292179D01*
X153067241Y-96116266D01*
X153068108Y-96115635D01*
X153041641Y-96056581D01*
X153040500Y-96039800D01*
X153040500Y-91441456D01*
X153012661Y-91301505D01*
X153002051Y-91248165D01*
X153000303Y-91243946D01*
X152961183Y-91149500D01*
X152949052Y-91120213D01*
X152926635Y-91066091D01*
X152926628Y-91066079D01*
X152817139Y-90902218D01*
X152817136Y-90902214D01*
X152674686Y-90759764D01*
X152674655Y-90759735D01*
X150042441Y-88127521D01*
X150008956Y-88066198D01*
X150012190Y-88001524D01*
X150064784Y-87839660D01*
X150100500Y-87614162D01*
X150100500Y-87385837D01*
X150064784Y-87160339D01*
X149994229Y-86943196D01*
X149938487Y-86833797D01*
X149890579Y-86739772D01*
X149756379Y-86555063D01*
X149594937Y-86393621D01*
X149410228Y-86259421D01*
X149206803Y-86155770D01*
X148989660Y-86085215D01*
X148764162Y-86049500D01*
X148764157Y-86049500D01*
X148015782Y-86049500D01*
X147948743Y-86029815D01*
X147928101Y-86013181D01*
X146536819Y-84621899D01*
X146503334Y-84560576D01*
X146500500Y-84534218D01*
X146500500Y-83897442D01*
X146520185Y-83830403D01*
X146572989Y-83784648D01*
X146642147Y-83774704D01*
X146680792Y-83786956D01*
X146713986Y-83803869D01*
X146793196Y-83844229D01*
X146793198Y-83844229D01*
X146793201Y-83844231D01*
X146820168Y-83852993D01*
X147010339Y-83914784D01*
X147235838Y-83950500D01*
X147235843Y-83950500D01*
X148764162Y-83950500D01*
X148989660Y-83914784D01*
X149206799Y-83844231D01*
X149207510Y-83843869D01*
X149233938Y-83830403D01*
X149410228Y-83740579D01*
X149594937Y-83606379D01*
X149756379Y-83444937D01*
X149890579Y-83260228D01*
X149994231Y-83056799D01*
X150064784Y-82839660D01*
X150075017Y-82775051D01*
X150100500Y-82614162D01*
X150100500Y-82385837D01*
X150064784Y-82160339D01*
X150020651Y-82024513D01*
X149994231Y-81943201D01*
X149994228Y-81943196D01*
X149994227Y-81943191D01*
X149955930Y-81868030D01*
X149943033Y-81799361D01*
X149969309Y-81734621D01*
X149978724Y-81724063D01*
X153573126Y-78129662D01*
X153666204Y-77990363D01*
X153667893Y-77986286D01*
X153721341Y-77857249D01*
X153721342Y-77857245D01*
X153724136Y-77850500D01*
X153730316Y-77835582D01*
X153763000Y-77671267D01*
X153763000Y-76704883D01*
X153781461Y-76639787D01*
X153835908Y-76551516D01*
X153890174Y-76387753D01*
X153900500Y-76286677D01*
X153900499Y-76054018D01*
X153920183Y-75986979D01*
X153936813Y-75966342D01*
X154957614Y-74945543D01*
X155034275Y-74830811D01*
X155034279Y-74830799D01*
X155036515Y-74826617D01*
X155085471Y-74776766D01*
X155153607Y-74761297D01*
X155171606Y-74763754D01*
X155182779Y-74766123D01*
X155191503Y-74769737D01*
X155325469Y-74796384D01*
X155326225Y-74796545D01*
X155356333Y-74812781D01*
X155386602Y-74828615D01*
X155387004Y-74829322D01*
X155387722Y-74829709D01*
X155404266Y-74859635D01*
X155421176Y-74889330D01*
X155421307Y-74890460D01*
X155421527Y-74890857D01*
X155421464Y-74891803D01*
X155424500Y-74917847D01*
X155424500Y-96581792D01*
X155404815Y-96648831D01*
X155381619Y-96674415D01*
X155381757Y-96674553D01*
X155378941Y-96677368D01*
X155377407Y-96679061D01*
X155376652Y-96679657D01*
X155254659Y-96801651D01*
X155164093Y-96948481D01*
X155164091Y-96948486D01*
X155159894Y-96961153D01*
X155109826Y-97112247D01*
X155109826Y-97112248D01*
X155109825Y-97112248D01*
X155099500Y-97213315D01*
X155099500Y-97786669D01*
X155099501Y-97786687D01*
X155109825Y-97887752D01*
X155130156Y-97949106D01*
X155164092Y-98051516D01*
X155254660Y-98198350D01*
X155376650Y-98320340D01*
X155523484Y-98410908D01*
X155687247Y-98465174D01*
X155788323Y-98475500D01*
X156461676Y-98475499D01*
X156461684Y-98475498D01*
X156461687Y-98475498D01*
X156517030Y-98469844D01*
X156562753Y-98465174D01*
X156726516Y-98410908D01*
X156873350Y-98320340D01*
X156912319Y-98281371D01*
X156973642Y-98247886D01*
X157043334Y-98252870D01*
X157087681Y-98281371D01*
X157126650Y-98320340D01*
X157273484Y-98410908D01*
X157437247Y-98465174D01*
X157538323Y-98475500D01*
X158211676Y-98475499D01*
X158211684Y-98475498D01*
X158211687Y-98475498D01*
X158267030Y-98469844D01*
X158312753Y-98465174D01*
X158476516Y-98410908D01*
X158623350Y-98320340D01*
X158706871Y-98236819D01*
X158768194Y-98203334D01*
X158794552Y-98200500D01*
X160205448Y-98200500D01*
X160272487Y-98220185D01*
X160293129Y-98236819D01*
X160376650Y-98320340D01*
X160523484Y-98410908D01*
X160687247Y-98465174D01*
X160788323Y-98475500D01*
X161386676Y-98475499D01*
X161386684Y-98475498D01*
X161386687Y-98475498D01*
X161442030Y-98469844D01*
X161487753Y-98465174D01*
X161651516Y-98410908D01*
X161798350Y-98320340D01*
X161912675Y-98206014D01*
X161973994Y-98172532D01*
X162043686Y-98177516D01*
X162088034Y-98206017D01*
X162201961Y-98319944D01*
X162201965Y-98319947D01*
X162348688Y-98410448D01*
X162348699Y-98410453D01*
X162512347Y-98464680D01*
X162613351Y-98474999D01*
X163162500Y-98474999D01*
X163211640Y-98474999D01*
X163211654Y-98474998D01*
X163312652Y-98464680D01*
X163476300Y-98410453D01*
X163476311Y-98410448D01*
X163623034Y-98319947D01*
X163623038Y-98319944D01*
X163744944Y-98198038D01*
X163744947Y-98198034D01*
X163835448Y-98051311D01*
X163835453Y-98051300D01*
X163889680Y-97887652D01*
X163899999Y-97786654D01*
X163900000Y-97786641D01*
X163900000Y-97750000D01*
X163162500Y-97750000D01*
X163162500Y-98474999D01*
X162613351Y-98474999D01*
X162662499Y-98474998D01*
X162662500Y-98474998D01*
X162662500Y-97250000D01*
X163162500Y-97250000D01*
X163899999Y-97250000D01*
X163899999Y-97213360D01*
X163899998Y-97213345D01*
X163889680Y-97112347D01*
X163835453Y-96948699D01*
X163835448Y-96948688D01*
X163744947Y-96801965D01*
X163744944Y-96801961D01*
X163623038Y-96680055D01*
X163623034Y-96680052D01*
X163476311Y-96589551D01*
X163476300Y-96589546D01*
X163312652Y-96535319D01*
X163211654Y-96525000D01*
X163162500Y-96525000D01*
X163162500Y-97250000D01*
X162662500Y-97250000D01*
X162662500Y-96525000D01*
X162662499Y-96524999D01*
X162613361Y-96525000D01*
X162613343Y-96525001D01*
X162512347Y-96535319D01*
X162348699Y-96589546D01*
X162348688Y-96589551D01*
X162201965Y-96680052D01*
X162088034Y-96793983D01*
X162026711Y-96827467D01*
X161957019Y-96822483D01*
X161912672Y-96793982D01*
X161798351Y-96679661D01*
X161798350Y-96679660D01*
X161704935Y-96622041D01*
X161651518Y-96589093D01*
X161651513Y-96589091D01*
X161629486Y-96581792D01*
X161487753Y-96534826D01*
X161487751Y-96534825D01*
X161386678Y-96524500D01*
X160788330Y-96524500D01*
X160788312Y-96524501D01*
X160687247Y-96534825D01*
X160523484Y-96589092D01*
X160523481Y-96589093D01*
X160376648Y-96679661D01*
X160293129Y-96763181D01*
X160231806Y-96796666D01*
X160205448Y-96799500D01*
X158794552Y-96799500D01*
X158727513Y-96779815D01*
X158706871Y-96763181D01*
X158623351Y-96679661D01*
X158623350Y-96679660D01*
X158529935Y-96622041D01*
X158476518Y-96589093D01*
X158476513Y-96589091D01*
X158454486Y-96581792D01*
X158312753Y-96534826D01*
X158312751Y-96534825D01*
X158211678Y-96524500D01*
X157538330Y-96524500D01*
X157538312Y-96524501D01*
X157437247Y-96534825D01*
X157273484Y-96589092D01*
X157273481Y-96589093D01*
X157126648Y-96679661D01*
X157087680Y-96718629D01*
X157080473Y-96722563D01*
X157075643Y-96729202D01*
X157050262Y-96739060D01*
X157026357Y-96752114D01*
X157018165Y-96751527D01*
X157010514Y-96754500D01*
X156983830Y-96749071D01*
X156956665Y-96747128D01*
X156948326Y-96741848D01*
X156942047Y-96740571D01*
X156916338Y-96721594D01*
X156913510Y-96719804D01*
X156912909Y-96719219D01*
X156873350Y-96679660D01*
X156870394Y-96677837D01*
X156863010Y-96670649D01*
X156848862Y-96645551D01*
X156832214Y-96622041D01*
X156830786Y-96613482D01*
X156828701Y-96609783D01*
X156829079Y-96603250D01*
X156825500Y-96581792D01*
X156825500Y-95868872D01*
X168999500Y-95868872D01*
X168999500Y-96131127D01*
X169025764Y-96330609D01*
X169033730Y-96391116D01*
X169095606Y-96622041D01*
X169101602Y-96644418D01*
X169101605Y-96644428D01*
X169201953Y-96886690D01*
X169201958Y-96886700D01*
X169333075Y-97113803D01*
X169492718Y-97321851D01*
X169492726Y-97321860D01*
X169678140Y-97507274D01*
X169678148Y-97507281D01*
X169678149Y-97507282D01*
X169726554Y-97544424D01*
X169886196Y-97666924D01*
X170113299Y-97798041D01*
X170113309Y-97798046D01*
X170355571Y-97898394D01*
X170355581Y-97898398D01*
X170608884Y-97966270D01*
X170868880Y-98000500D01*
X170868887Y-98000500D01*
X171131113Y-98000500D01*
X171131120Y-98000500D01*
X171391116Y-97966270D01*
X171644419Y-97898398D01*
X171886697Y-97798043D01*
X172113803Y-97666924D01*
X172321851Y-97507282D01*
X172321855Y-97507277D01*
X172321860Y-97507274D01*
X172507274Y-97321860D01*
X172507277Y-97321855D01*
X172507282Y-97321851D01*
X172666924Y-97113803D01*
X172798043Y-96886697D01*
X172898398Y-96644419D01*
X172966270Y-96391116D01*
X173000500Y-96131120D01*
X173000500Y-95868880D01*
X172966270Y-95608884D01*
X172898398Y-95355581D01*
X172898394Y-95355571D01*
X172798046Y-95113309D01*
X172798041Y-95113299D01*
X172666924Y-94886196D01*
X172507281Y-94678148D01*
X172507274Y-94678140D01*
X172321860Y-94492726D01*
X172321851Y-94492718D01*
X172113803Y-94333075D01*
X171886700Y-94201958D01*
X171886690Y-94201953D01*
X171644428Y-94101605D01*
X171644421Y-94101603D01*
X171644419Y-94101602D01*
X171391116Y-94033730D01*
X171333339Y-94026123D01*
X171131127Y-93999500D01*
X171131120Y-93999500D01*
X170868880Y-93999500D01*
X170868872Y-93999500D01*
X170637772Y-94029926D01*
X170608884Y-94033730D01*
X170355581Y-94101602D01*
X170355571Y-94101605D01*
X170113309Y-94201953D01*
X170113299Y-94201958D01*
X169886196Y-94333075D01*
X169678148Y-94492718D01*
X169492718Y-94678148D01*
X169333075Y-94886196D01*
X169201958Y-95113299D01*
X169201953Y-95113309D01*
X169101605Y-95355571D01*
X169101602Y-95355581D01*
X169033730Y-95608885D01*
X168999500Y-95868872D01*
X156825500Y-95868872D01*
X156825500Y-87385837D01*
X158399500Y-87385837D01*
X158399500Y-87614162D01*
X158435215Y-87839660D01*
X158505770Y-88056803D01*
X158609421Y-88260228D01*
X158743621Y-88444937D01*
X158905063Y-88606379D01*
X159089772Y-88740579D01*
X159185884Y-88789550D01*
X159293196Y-88844229D01*
X159293198Y-88844229D01*
X159293201Y-88844231D01*
X159409592Y-88882049D01*
X159510339Y-88914784D01*
X159735838Y-88950500D01*
X159735843Y-88950500D01*
X161264162Y-88950500D01*
X161489660Y-88914784D01*
X161706799Y-88844231D01*
X161910228Y-88740579D01*
X162094937Y-88606379D01*
X162256379Y-88444937D01*
X162390579Y-88260228D01*
X162494231Y-88056799D01*
X162564784Y-87839660D01*
X162600500Y-87614162D01*
X162600500Y-87385837D01*
X162564784Y-87160339D01*
X162494229Y-86943196D01*
X162438487Y-86833797D01*
X162390579Y-86739772D01*
X162256379Y-86555063D01*
X162094937Y-86393621D01*
X161910228Y-86259421D01*
X161706803Y-86155770D01*
X161489660Y-86085215D01*
X161264162Y-86049500D01*
X161264157Y-86049500D01*
X159735843Y-86049500D01*
X159735838Y-86049500D01*
X159510339Y-86085215D01*
X159293196Y-86155770D01*
X159089771Y-86259421D01*
X158905061Y-86393622D01*
X158743622Y-86555061D01*
X158609421Y-86739771D01*
X158505770Y-86943196D01*
X158435215Y-87160339D01*
X158399500Y-87385837D01*
X156825500Y-87385837D01*
X156825500Y-82385837D01*
X158399500Y-82385837D01*
X158399500Y-82614162D01*
X158435215Y-82839660D01*
X158505770Y-83056803D01*
X158554782Y-83152993D01*
X158609421Y-83260228D01*
X158743621Y-83444937D01*
X158905063Y-83606379D01*
X159089772Y-83740579D01*
X159180794Y-83786957D01*
X159293196Y-83844229D01*
X159293198Y-83844229D01*
X159293201Y-83844231D01*
X159320168Y-83852993D01*
X159510339Y-83914784D01*
X159735838Y-83950500D01*
X159735843Y-83950500D01*
X161264162Y-83950500D01*
X161489660Y-83914784D01*
X161706799Y-83844231D01*
X161707510Y-83843869D01*
X161733938Y-83830403D01*
X161910228Y-83740579D01*
X162094937Y-83606379D01*
X162256379Y-83444937D01*
X162390579Y-83260228D01*
X162494231Y-83056799D01*
X162547208Y-82893753D01*
X162561242Y-82850562D01*
X162561242Y-82850561D01*
X162564783Y-82839664D01*
X162564783Y-82839663D01*
X162564784Y-82839660D01*
X162583184Y-82723481D01*
X162600500Y-82614162D01*
X162600500Y-82385837D01*
X162564784Y-82160339D01*
X162494229Y-81943196D01*
X162427887Y-81812993D01*
X162390579Y-81739772D01*
X162256379Y-81555063D01*
X162094937Y-81393621D01*
X161910228Y-81259421D01*
X161844514Y-81225938D01*
X161706803Y-81155770D01*
X161489660Y-81085215D01*
X161264162Y-81049500D01*
X161264157Y-81049500D01*
X159735843Y-81049500D01*
X159735838Y-81049500D01*
X159510339Y-81085215D01*
X159293196Y-81155770D01*
X159089771Y-81259421D01*
X158905061Y-81393622D01*
X158743622Y-81555061D01*
X158609421Y-81739771D01*
X158505770Y-81943196D01*
X158435215Y-82160339D01*
X158399500Y-82385837D01*
X156825500Y-82385837D01*
X156825500Y-74564253D01*
X156845185Y-74497214D01*
X156897989Y-74451459D01*
X156967147Y-74441515D01*
X157030703Y-74470540D01*
X157037181Y-74476572D01*
X163564719Y-81004111D01*
X163564720Y-81004112D01*
X163679458Y-81080777D01*
X163806933Y-81133578D01*
X163806938Y-81133580D01*
X163806942Y-81133580D01*
X163806943Y-81133581D01*
X163942269Y-81160500D01*
X163942272Y-81160500D01*
X163942273Y-81160500D01*
X164776453Y-81160500D01*
X164843492Y-81180185D01*
X164876769Y-81211614D01*
X164882791Y-81219901D01*
X164969892Y-81339788D01*
X165120213Y-81490109D01*
X165292179Y-81615048D01*
X165292181Y-81615049D01*
X165292184Y-81615051D01*
X165301493Y-81619794D01*
X165352290Y-81667766D01*
X165369087Y-81735587D01*
X165346552Y-81801722D01*
X165301505Y-81840760D01*
X165292446Y-81845376D01*
X165292440Y-81845380D01*
X165238282Y-81884727D01*
X165238282Y-81884728D01*
X165870591Y-82517037D01*
X165807007Y-82534075D01*
X165692993Y-82599901D01*
X165599901Y-82692993D01*
X165534075Y-82807007D01*
X165517037Y-82870591D01*
X164884728Y-82238282D01*
X164884727Y-82238282D01*
X164845380Y-82292439D01*
X164748904Y-82481782D01*
X164683242Y-82683869D01*
X164683242Y-82683872D01*
X164650000Y-82893753D01*
X164650000Y-83106246D01*
X164683242Y-83316127D01*
X164683242Y-83316130D01*
X164748904Y-83518217D01*
X164845375Y-83707550D01*
X164884728Y-83761716D01*
X165517037Y-83129408D01*
X165534075Y-83192993D01*
X165599901Y-83307007D01*
X165692993Y-83400099D01*
X165807007Y-83465925D01*
X165870590Y-83482962D01*
X165200370Y-84153181D01*
X165139047Y-84186666D01*
X165112698Y-84189500D01*
X165102134Y-84189500D01*
X165102123Y-84189501D01*
X165042516Y-84195908D01*
X164907671Y-84246202D01*
X164907664Y-84246206D01*
X164792455Y-84332452D01*
X164792452Y-84332455D01*
X164706206Y-84447664D01*
X164706202Y-84447671D01*
X164655908Y-84582517D01*
X164651242Y-84625925D01*
X164649501Y-84642123D01*
X164649500Y-84642135D01*
X164649500Y-86437870D01*
X164649501Y-86437876D01*
X164655908Y-86497483D01*
X164706202Y-86632328D01*
X164706206Y-86632335D01*
X164792452Y-86747544D01*
X164792455Y-86747547D01*
X164907664Y-86833793D01*
X164907671Y-86833797D01*
X165042517Y-86884091D01*
X165042516Y-86884091D01*
X165049444Y-86884835D01*
X165102127Y-86890500D01*
X166897872Y-86890499D01*
X166957483Y-86884091D01*
X167092331Y-86833796D01*
X167207546Y-86747546D01*
X167293796Y-86632331D01*
X167344091Y-86497483D01*
X167350500Y-86437873D01*
X167350500Y-86364500D01*
X167370185Y-86297461D01*
X167422989Y-86251706D01*
X167474500Y-86240500D01*
X169035501Y-86240500D01*
X169102540Y-86260185D01*
X169148295Y-86312989D01*
X169159501Y-86364500D01*
X169159501Y-86397876D01*
X169165908Y-86457483D01*
X169216202Y-86592328D01*
X169216206Y-86592335D01*
X169302452Y-86707544D01*
X169302455Y-86707547D01*
X169417664Y-86793793D01*
X169417671Y-86793797D01*
X169552517Y-86844091D01*
X169552516Y-86844091D01*
X169559444Y-86844835D01*
X169612127Y-86850500D01*
X171407872Y-86850499D01*
X171467483Y-86844091D01*
X171602331Y-86793796D01*
X171717546Y-86707546D01*
X171803796Y-86592331D01*
X171854091Y-86457483D01*
X171860500Y-86397873D01*
X171860499Y-85881517D01*
X171880183Y-85814479D01*
X171896813Y-85793842D01*
X172744114Y-84946543D01*
X172820775Y-84831811D01*
X172822539Y-84827554D01*
X172873578Y-84704332D01*
X172873580Y-84704328D01*
X172886730Y-84638221D01*
X172900500Y-84568996D01*
X172900500Y-80233822D01*
X172873581Y-80098495D01*
X172873580Y-80098494D01*
X172873580Y-80098490D01*
X172820775Y-79971007D01*
X172801118Y-79941588D01*
X172744114Y-79856275D01*
X172744112Y-79856272D01*
X172744111Y-79856271D01*
X171660238Y-78772399D01*
X171626753Y-78711076D01*
X171631737Y-78641384D01*
X171647600Y-78611834D01*
X171665051Y-78587816D01*
X171761557Y-78398412D01*
X171827246Y-78196243D01*
X171860500Y-77986287D01*
X171860500Y-77773713D01*
X171827246Y-77563757D01*
X171761557Y-77361588D01*
X171665051Y-77172184D01*
X171665049Y-77172181D01*
X171665048Y-77172179D01*
X171540109Y-77000213D01*
X171389786Y-76849890D01*
X171217820Y-76724951D01*
X171217115Y-76724591D01*
X171209054Y-76720485D01*
X171158259Y-76672512D01*
X171141463Y-76604692D01*
X171163999Y-76538556D01*
X171209054Y-76499515D01*
X171217816Y-76495051D01*
X171282128Y-76448326D01*
X171389786Y-76370109D01*
X171389788Y-76370106D01*
X171389792Y-76370104D01*
X171540104Y-76219792D01*
X171540106Y-76219788D01*
X171540109Y-76219786D01*
X171665048Y-76047820D01*
X171665047Y-76047820D01*
X171665051Y-76047816D01*
X171761557Y-75858412D01*
X171827246Y-75656243D01*
X171860500Y-75446287D01*
X171860500Y-75233713D01*
X171827246Y-75023757D01*
X171761557Y-74821588D01*
X171665051Y-74632184D01*
X171665049Y-74632181D01*
X171665048Y-74632179D01*
X171540109Y-74460213D01*
X171389786Y-74309890D01*
X171217820Y-74184951D01*
X171216010Y-74184029D01*
X171209054Y-74180485D01*
X171158259Y-74132512D01*
X171141463Y-74064692D01*
X171163999Y-73998556D01*
X171209054Y-73959515D01*
X171217816Y-73955051D01*
X171311729Y-73886820D01*
X171389786Y-73830109D01*
X171389788Y-73830106D01*
X171389792Y-73830104D01*
X171540104Y-73679792D01*
X171540106Y-73679788D01*
X171540109Y-73679786D01*
X171665048Y-73507820D01*
X171665047Y-73507820D01*
X171665051Y-73507816D01*
X171761557Y-73318412D01*
X171827246Y-73116243D01*
X171860500Y-72906287D01*
X171860500Y-72693713D01*
X171827246Y-72483757D01*
X171761557Y-72281588D01*
X171665051Y-72092184D01*
X171665049Y-72092181D01*
X171665048Y-72092179D01*
X171540109Y-71920213D01*
X171389786Y-71769890D01*
X171217820Y-71644951D01*
X171217115Y-71644591D01*
X171209054Y-71640485D01*
X171158259Y-71592512D01*
X171141463Y-71524692D01*
X171163999Y-71458556D01*
X171209054Y-71419515D01*
X171217816Y-71415051D01*
X171259028Y-71385109D01*
X171389786Y-71290109D01*
X171389788Y-71290106D01*
X171389792Y-71290104D01*
X171540104Y-71139792D01*
X171540106Y-71139788D01*
X171540109Y-71139786D01*
X171665048Y-70967820D01*
X171665047Y-70967820D01*
X171665051Y-70967816D01*
X171761557Y-70778412D01*
X171827246Y-70576243D01*
X171860500Y-70366287D01*
X171860500Y-70153713D01*
X171827246Y-69943757D01*
X171761557Y-69741588D01*
X171665051Y-69552184D01*
X171665049Y-69552181D01*
X171665048Y-69552179D01*
X171540109Y-69380213D01*
X171389786Y-69229890D01*
X171217820Y-69104951D01*
X171217115Y-69104591D01*
X171209054Y-69100485D01*
X171158259Y-69052512D01*
X171141463Y-68984692D01*
X171163999Y-68918556D01*
X171209054Y-68879515D01*
X171217816Y-68875051D01*
X171243001Y-68856753D01*
X171389786Y-68750109D01*
X171389788Y-68750106D01*
X171389792Y-68750104D01*
X171540104Y-68599792D01*
X171540106Y-68599788D01*
X171540109Y-68599786D01*
X171665048Y-68427820D01*
X171665047Y-68427820D01*
X171665051Y-68427816D01*
X171761557Y-68238412D01*
X171827246Y-68036243D01*
X171860500Y-67826287D01*
X171860500Y-67613713D01*
X171827246Y-67403757D01*
X171761557Y-67201588D01*
X171665051Y-67012184D01*
X171665049Y-67012181D01*
X171665048Y-67012179D01*
X171540109Y-66840213D01*
X171389786Y-66689890D01*
X171217820Y-66564951D01*
X171028414Y-66468444D01*
X171028413Y-66468443D01*
X171028412Y-66468443D01*
X170826243Y-66402754D01*
X170826241Y-66402753D01*
X170826240Y-66402753D01*
X170664957Y-66377208D01*
X170616287Y-66369500D01*
X170403713Y-66369500D01*
X170355042Y-66377208D01*
X170193760Y-66402753D01*
X169991585Y-66468444D01*
X169802179Y-66564951D01*
X169630213Y-66689890D01*
X169479892Y-66840211D01*
X169411573Y-66934247D01*
X169386770Y-66968385D01*
X169331442Y-67011051D01*
X169286453Y-67019500D01*
X167194486Y-67019500D01*
X167127447Y-66999815D01*
X167094167Y-66968384D01*
X167030107Y-66880211D01*
X166879786Y-66729890D01*
X166707820Y-66604951D01*
X166518414Y-66508444D01*
X166518413Y-66508443D01*
X166518412Y-66508443D01*
X166316243Y-66442754D01*
X166316241Y-66442753D01*
X166316240Y-66442753D01*
X166154957Y-66417208D01*
X166106287Y-66409500D01*
X165893713Y-66409500D01*
X165845042Y-66417208D01*
X165683760Y-66442753D01*
X165481585Y-66508444D01*
X165292179Y-66604951D01*
X165120213Y-66729890D01*
X164969890Y-66880213D01*
X164844951Y-67052179D01*
X164748444Y-67241585D01*
X164682753Y-67443760D01*
X164649500Y-67653713D01*
X164649500Y-67866287D01*
X164649499Y-67866287D01*
X164674284Y-68022771D01*
X164665329Y-68092064D01*
X164639492Y-68129849D01*
X164256162Y-68513181D01*
X164194839Y-68546666D01*
X164168481Y-68549500D01*
X161339253Y-68549500D01*
X161272214Y-68529815D01*
X161226459Y-68477011D01*
X161216515Y-68407853D01*
X161245540Y-68344297D01*
X161251572Y-68337819D01*
X163565112Y-66024279D01*
X163565114Y-66024277D01*
X163641775Y-65909545D01*
X163694580Y-65782062D01*
X163721500Y-65646728D01*
X163721500Y-65508740D01*
X163721500Y-64398929D01*
X163741185Y-64331890D01*
X163793989Y-64286135D01*
X163863147Y-64276191D01*
X163883819Y-64280998D01*
X163993873Y-64316758D01*
X164203754Y-64350000D01*
X164416246Y-64350000D01*
X164626127Y-64316757D01*
X164626130Y-64316757D01*
X164828217Y-64251095D01*
X165017554Y-64154622D01*
X165071716Y-64115270D01*
X165071717Y-64115270D01*
X164439409Y-63482962D01*
X164502993Y-63465925D01*
X164617007Y-63400099D01*
X164710099Y-63307007D01*
X164775925Y-63192993D01*
X164792962Y-63129408D01*
X165425270Y-63761717D01*
X165425270Y-63761716D01*
X165464622Y-63707554D01*
X165561095Y-63518217D01*
X165626757Y-63316130D01*
X165626757Y-63316127D01*
X165660000Y-63106246D01*
X165660000Y-62893753D01*
X165626757Y-62683872D01*
X165626757Y-62683869D01*
X165561095Y-62481782D01*
X165464624Y-62292449D01*
X165425270Y-62238282D01*
X165425269Y-62238282D01*
X164792962Y-62870590D01*
X164775925Y-62807007D01*
X164710099Y-62692993D01*
X164617007Y-62599901D01*
X164502993Y-62534075D01*
X164439407Y-62517036D01*
X165071716Y-61884728D01*
X165017550Y-61845375D01*
X164828217Y-61748904D01*
X164626129Y-61683242D01*
X164416246Y-61650000D01*
X164203754Y-61650000D01*
X163993872Y-61683242D01*
X163993869Y-61683242D01*
X163791782Y-61748904D01*
X163602447Y-61845376D01*
X163556513Y-61878748D01*
X163490706Y-61902226D01*
X163422652Y-61886399D01*
X163395949Y-61866109D01*
X162734727Y-61204887D01*
X162619989Y-61128222D01*
X162492514Y-61075421D01*
X162492504Y-61075418D01*
X162357178Y-61048500D01*
X162357176Y-61048500D01*
X162357175Y-61048500D01*
X160412007Y-61048500D01*
X160412003Y-61048500D01*
X160303590Y-61070065D01*
X160303589Y-61070065D01*
X160276681Y-61075418D01*
X160276671Y-61075420D01*
X160149190Y-61128224D01*
X160034454Y-61204887D01*
X159599849Y-61639492D01*
X159538526Y-61672977D01*
X159492771Y-61674284D01*
X159336287Y-61649500D01*
X159123713Y-61649500D01*
X159075042Y-61657208D01*
X158913760Y-61682753D01*
X158711585Y-61748444D01*
X158522179Y-61844951D01*
X158350215Y-61969889D01*
X158236673Y-62083431D01*
X158175350Y-62116915D01*
X158105658Y-62111931D01*
X158049725Y-62070059D01*
X158032810Y-62039082D01*
X157983797Y-61907671D01*
X157983793Y-61907664D01*
X157897547Y-61792455D01*
X157897544Y-61792452D01*
X157782335Y-61706206D01*
X157782328Y-61706202D01*
X157647482Y-61655908D01*
X157647483Y-61655908D01*
X157587883Y-61649501D01*
X157587881Y-61649500D01*
X157587873Y-61649500D01*
X157587864Y-61649500D01*
X155792129Y-61649500D01*
X155792123Y-61649501D01*
X155732516Y-61655908D01*
X155597671Y-61706202D01*
X155597664Y-61706206D01*
X155482455Y-61792452D01*
X155482452Y-61792455D01*
X155396206Y-61907664D01*
X155396202Y-61907671D01*
X155345908Y-62042517D01*
X155339501Y-62102116D01*
X155339500Y-62102135D01*
X155339500Y-62884216D01*
X155319815Y-62951255D01*
X155303180Y-62971897D01*
X153943190Y-64331890D01*
X153513899Y-64761181D01*
X153452576Y-64794666D01*
X153426218Y-64797500D01*
X143163230Y-64797500D01*
X143096191Y-64777815D01*
X143050436Y-64725011D01*
X143040492Y-64655853D01*
X143069517Y-64592297D01*
X143075549Y-64585819D01*
X143088186Y-64573182D01*
X143142712Y-64518656D01*
X143234814Y-64369334D01*
X143289999Y-64202797D01*
X143300500Y-64100009D01*
X143300499Y-62899992D01*
X143298887Y-62884216D01*
X143289999Y-62797203D01*
X143289998Y-62797200D01*
X143255467Y-62692993D01*
X143234814Y-62630666D01*
X143142712Y-62481344D01*
X143018656Y-62357288D01*
X142869334Y-62265186D01*
X142702797Y-62210001D01*
X142702795Y-62210000D01*
X142600016Y-62199500D01*
X142600009Y-62199500D01*
X142165783Y-62199500D01*
X142098744Y-62179815D01*
X142078102Y-62163181D01*
X142017056Y-62102135D01*
X146069500Y-62102135D01*
X146069500Y-63897870D01*
X146069501Y-63897876D01*
X146075908Y-63957483D01*
X146126202Y-64092328D01*
X146126206Y-64092335D01*
X146212452Y-64207544D01*
X146212455Y-64207547D01*
X146327664Y-64293793D01*
X146327671Y-64293797D01*
X146462517Y-64344091D01*
X146462516Y-64344091D01*
X146469444Y-64344835D01*
X146522127Y-64350500D01*
X148317872Y-64350499D01*
X148377483Y-64344091D01*
X148512331Y-64293796D01*
X148627546Y-64207546D01*
X148713796Y-64092331D01*
X148762810Y-63960916D01*
X148804681Y-63904984D01*
X148870145Y-63880566D01*
X148938418Y-63895417D01*
X148966673Y-63916569D01*
X149080213Y-64030109D01*
X149252179Y-64155048D01*
X149252181Y-64155049D01*
X149252184Y-64155051D01*
X149441588Y-64251557D01*
X149643757Y-64317246D01*
X149853713Y-64350500D01*
X149853714Y-64350500D01*
X150066286Y-64350500D01*
X150066287Y-64350500D01*
X150276243Y-64317246D01*
X150478412Y-64251557D01*
X150667816Y-64155051D01*
X150743566Y-64100016D01*
X150839786Y-64030109D01*
X150839788Y-64030106D01*
X150839792Y-64030104D01*
X150990104Y-63879792D01*
X150990106Y-63879788D01*
X150990109Y-63879786D01*
X151075890Y-63761717D01*
X151115051Y-63707816D01*
X151119793Y-63698508D01*
X151167763Y-63647711D01*
X151235583Y-63630911D01*
X151301719Y-63653445D01*
X151340763Y-63698500D01*
X151345373Y-63707547D01*
X151384728Y-63761716D01*
X152017037Y-63129408D01*
X152034075Y-63192993D01*
X152099901Y-63307007D01*
X152192993Y-63400099D01*
X152307007Y-63465925D01*
X152370590Y-63482962D01*
X151738282Y-64115269D01*
X151738282Y-64115270D01*
X151792449Y-64154624D01*
X151981782Y-64251095D01*
X152183870Y-64316757D01*
X152393754Y-64350000D01*
X152606246Y-64350000D01*
X152816127Y-64316757D01*
X152816130Y-64316757D01*
X153018217Y-64251095D01*
X153207554Y-64154622D01*
X153261716Y-64115270D01*
X153261717Y-64115270D01*
X152629408Y-63482962D01*
X152692993Y-63465925D01*
X152807007Y-63400099D01*
X152900099Y-63307007D01*
X152965925Y-63192993D01*
X152982962Y-63129409D01*
X153615270Y-63761717D01*
X153615270Y-63761716D01*
X153654622Y-63707554D01*
X153751095Y-63518217D01*
X153816757Y-63316130D01*
X153816757Y-63316127D01*
X153850000Y-63106246D01*
X153850000Y-62893753D01*
X153816757Y-62683872D01*
X153816757Y-62683869D01*
X153751095Y-62481782D01*
X153654624Y-62292449D01*
X153615270Y-62238282D01*
X153615269Y-62238282D01*
X152982962Y-62870590D01*
X152965925Y-62807007D01*
X152900099Y-62692993D01*
X152807007Y-62599901D01*
X152692993Y-62534075D01*
X152629409Y-62517037D01*
X153261716Y-61884728D01*
X153207550Y-61845375D01*
X153018217Y-61748904D01*
X152816129Y-61683242D01*
X152606246Y-61650000D01*
X152393754Y-61650000D01*
X152183872Y-61683242D01*
X152183869Y-61683242D01*
X151981782Y-61748904D01*
X151792439Y-61845380D01*
X151738282Y-61884727D01*
X151738282Y-61884728D01*
X152370591Y-62517037D01*
X152307007Y-62534075D01*
X152192993Y-62599901D01*
X152099901Y-62692993D01*
X152034075Y-62807007D01*
X152017037Y-62870591D01*
X151384728Y-62238282D01*
X151384727Y-62238282D01*
X151345380Y-62292440D01*
X151345376Y-62292446D01*
X151340760Y-62301505D01*
X151292781Y-62352297D01*
X151224959Y-62369087D01*
X151158826Y-62346543D01*
X151119794Y-62301493D01*
X151115051Y-62292184D01*
X151115049Y-62292181D01*
X151115048Y-62292179D01*
X150990109Y-62120213D01*
X150839786Y-61969890D01*
X150667820Y-61844951D01*
X150478414Y-61748444D01*
X150478413Y-61748443D01*
X150478412Y-61748443D01*
X150276243Y-61682754D01*
X150276241Y-61682753D01*
X150276240Y-61682753D01*
X150114957Y-61657208D01*
X150066287Y-61649500D01*
X149853713Y-61649500D01*
X149805042Y-61657208D01*
X149643760Y-61682753D01*
X149441585Y-61748444D01*
X149252179Y-61844951D01*
X149080215Y-61969889D01*
X148966673Y-62083431D01*
X148905350Y-62116915D01*
X148835658Y-62111931D01*
X148779725Y-62070059D01*
X148762810Y-62039082D01*
X148713797Y-61907671D01*
X148713793Y-61907664D01*
X148627547Y-61792455D01*
X148627544Y-61792452D01*
X148512335Y-61706206D01*
X148512328Y-61706202D01*
X148377482Y-61655908D01*
X148377483Y-61655908D01*
X148317883Y-61649501D01*
X148317881Y-61649500D01*
X148317873Y-61649500D01*
X148317864Y-61649500D01*
X146522129Y-61649500D01*
X146522123Y-61649501D01*
X146462516Y-61655908D01*
X146327671Y-61706202D01*
X146327664Y-61706206D01*
X146212455Y-61792452D01*
X146212452Y-61792455D01*
X146126206Y-61907664D01*
X146126202Y-61907671D01*
X146075908Y-62042517D01*
X146069501Y-62102116D01*
X146069500Y-62102135D01*
X142017056Y-62102135D01*
X141283209Y-61368289D01*
X141283206Y-61368285D01*
X141283206Y-61368286D01*
X141276139Y-61361219D01*
X141276139Y-61361218D01*
X141136782Y-61221861D01*
X141136781Y-61221860D01*
X141136780Y-61221859D01*
X140972920Y-61112371D01*
X140972911Y-61112366D01*
X140900315Y-61082296D01*
X140844165Y-61059038D01*
X140790836Y-61036949D01*
X140790832Y-61036948D01*
X140790828Y-61036946D01*
X140694188Y-61017724D01*
X140597544Y-60998500D01*
X140597541Y-60998500D01*
X134552283Y-60998500D01*
X134485244Y-60978815D01*
X134464602Y-60962181D01*
X130461426Y-56959006D01*
X130459018Y-56955612D01*
X130457055Y-56954406D01*
X130451995Y-56945712D01*
X130437377Y-56925107D01*
X130433914Y-56917914D01*
X130410908Y-56848484D01*
X130363485Y-56771599D01*
X130360685Y-56765782D01*
X130356020Y-56737422D01*
X130348436Y-56709704D01*
X130350420Y-56703379D01*
X130349345Y-56696838D01*
X130360753Y-56670457D01*
X130369359Y-56643040D01*
X130374447Y-56638792D01*
X130377079Y-56632709D01*
X130400935Y-56616686D01*
X130423001Y-56598271D01*
X130430755Y-56596659D01*
X130435081Y-56593754D01*
X130445772Y-56593537D01*
X130472415Y-56588000D01*
X132000698Y-56588000D01*
X132067737Y-56607685D01*
X132113492Y-56660489D01*
X132123171Y-56692602D01*
X132134761Y-56765782D01*
X132142754Y-56816243D01*
X132206440Y-57012248D01*
X132208444Y-57018414D01*
X132304951Y-57207820D01*
X132429890Y-57379786D01*
X132580213Y-57530109D01*
X132752179Y-57655048D01*
X132752181Y-57655049D01*
X132752184Y-57655051D01*
X132941588Y-57751557D01*
X133143757Y-57817246D01*
X133353713Y-57850500D01*
X133353714Y-57850500D01*
X133566286Y-57850500D01*
X133566287Y-57850500D01*
X133776243Y-57817246D01*
X133978412Y-57751557D01*
X134167816Y-57655051D01*
X134254478Y-57592088D01*
X134339784Y-57530110D01*
X134339784Y-57530109D01*
X134339792Y-57530104D01*
X134453717Y-57416178D01*
X134515036Y-57382696D01*
X134584728Y-57387680D01*
X134640662Y-57429551D01*
X134657577Y-57460528D01*
X134706646Y-57592088D01*
X134706649Y-57592093D01*
X134792809Y-57707187D01*
X134792812Y-57707190D01*
X134907906Y-57793350D01*
X134907913Y-57793354D01*
X135042620Y-57843596D01*
X135042627Y-57843598D01*
X135102155Y-57849999D01*
X135102172Y-57850000D01*
X135750000Y-57850000D01*
X135750000Y-56933012D01*
X135807007Y-56965925D01*
X135934174Y-57000000D01*
X136065826Y-57000000D01*
X136192993Y-56965925D01*
X136250000Y-56933012D01*
X136250000Y-57850000D01*
X136897828Y-57850000D01*
X136897844Y-57849999D01*
X136957372Y-57843598D01*
X136957379Y-57843596D01*
X137092086Y-57793354D01*
X137092093Y-57793350D01*
X137207187Y-57707190D01*
X137207190Y-57707187D01*
X137293350Y-57592093D01*
X137293354Y-57592086D01*
X137343596Y-57457379D01*
X137343598Y-57457372D01*
X137349999Y-57397844D01*
X137350000Y-57397827D01*
X137350000Y-56868872D01*
X168999500Y-56868872D01*
X168999500Y-57131127D01*
X169023571Y-57313956D01*
X169033730Y-57391116D01*
X169099479Y-57636495D01*
X169101602Y-57644418D01*
X169101605Y-57644428D01*
X169201953Y-57886690D01*
X169201958Y-57886700D01*
X169333075Y-58113803D01*
X169492718Y-58321851D01*
X169492726Y-58321860D01*
X169678140Y-58507274D01*
X169678148Y-58507281D01*
X169886196Y-58666924D01*
X170113299Y-58798041D01*
X170113309Y-58798046D01*
X170355571Y-58898394D01*
X170355581Y-58898398D01*
X170608884Y-58966270D01*
X170868880Y-59000500D01*
X170868887Y-59000500D01*
X171131113Y-59000500D01*
X171131120Y-59000500D01*
X171391116Y-58966270D01*
X171644419Y-58898398D01*
X171886697Y-58798043D01*
X172113803Y-58666924D01*
X172321851Y-58507282D01*
X172321855Y-58507277D01*
X172321860Y-58507274D01*
X172507274Y-58321860D01*
X172507277Y-58321855D01*
X172507282Y-58321851D01*
X172666924Y-58113803D01*
X172798043Y-57886697D01*
X172898398Y-57644419D01*
X172966270Y-57391116D01*
X173000500Y-57131120D01*
X173000500Y-56868880D01*
X172966270Y-56608884D01*
X172898398Y-56355581D01*
X172854665Y-56250000D01*
X172798046Y-56113309D01*
X172798041Y-56113299D01*
X172666924Y-55886196D01*
X172507281Y-55678148D01*
X172507274Y-55678140D01*
X172321860Y-55492726D01*
X172321851Y-55492718D01*
X172113803Y-55333075D01*
X171886700Y-55201958D01*
X171886690Y-55201953D01*
X171644428Y-55101605D01*
X171644421Y-55101603D01*
X171644419Y-55101602D01*
X171391116Y-55033730D01*
X171333339Y-55026123D01*
X171131127Y-54999500D01*
X171131120Y-54999500D01*
X170868880Y-54999500D01*
X170868872Y-54999500D01*
X170637772Y-55029926D01*
X170608884Y-55033730D01*
X170355581Y-55101602D01*
X170355571Y-55101605D01*
X170113309Y-55201953D01*
X170113299Y-55201958D01*
X169886196Y-55333075D01*
X169678148Y-55492718D01*
X169492718Y-55678148D01*
X169333075Y-55886196D01*
X169201958Y-56113299D01*
X169201953Y-56113309D01*
X169101605Y-56355571D01*
X169101602Y-56355581D01*
X169034052Y-56607685D01*
X169033730Y-56608885D01*
X168999500Y-56868872D01*
X137350000Y-56868872D01*
X137350000Y-56750000D01*
X136433012Y-56750000D01*
X136465925Y-56692993D01*
X136500000Y-56565826D01*
X136500000Y-56434174D01*
X136465925Y-56307007D01*
X136433012Y-56250000D01*
X137350000Y-56250000D01*
X137350000Y-55602172D01*
X137349999Y-55602155D01*
X137343598Y-55542627D01*
X137343596Y-55542620D01*
X137293354Y-55407913D01*
X137293350Y-55407906D01*
X137207190Y-55292812D01*
X137207187Y-55292809D01*
X137092093Y-55206649D01*
X137092086Y-55206645D01*
X136957379Y-55156403D01*
X136957372Y-55156401D01*
X136897844Y-55150000D01*
X136250000Y-55150000D01*
X136250000Y-56066988D01*
X136192993Y-56034075D01*
X136065826Y-56000000D01*
X135934174Y-56000000D01*
X135807007Y-56034075D01*
X135750000Y-56066988D01*
X135750000Y-55150000D01*
X135102155Y-55150000D01*
X135042627Y-55156401D01*
X135042620Y-55156403D01*
X134907913Y-55206645D01*
X134907906Y-55206649D01*
X134792812Y-55292809D01*
X134792809Y-55292812D01*
X134706649Y-55407906D01*
X134706646Y-55407912D01*
X134657577Y-55539471D01*
X134615705Y-55595404D01*
X134550241Y-55619821D01*
X134481968Y-55604969D01*
X134453714Y-55583818D01*
X134339786Y-55469890D01*
X134167820Y-55344951D01*
X133978414Y-55248444D01*
X133978413Y-55248443D01*
X133978412Y-55248443D01*
X133776243Y-55182754D01*
X133776241Y-55182753D01*
X133776240Y-55182753D01*
X133609544Y-55156351D01*
X133566287Y-55149500D01*
X133566286Y-55149500D01*
X133561475Y-55148738D01*
X133561641Y-55147683D01*
X133542148Y-55140252D01*
X133516750Y-55134727D01*
X133505431Y-55126253D01*
X133501151Y-55124622D01*
X133488496Y-55113576D01*
X133328979Y-54954059D01*
X133328959Y-54954037D01*
X133185285Y-54810363D01*
X133185281Y-54810360D01*
X133021420Y-54700871D01*
X133021411Y-54700866D01*
X132900272Y-54650689D01*
X132892665Y-54647538D01*
X132839336Y-54625449D01*
X132708882Y-54599500D01*
X132705013Y-54598730D01*
X132705004Y-54598728D01*
X132646042Y-54587000D01*
X132646041Y-54587000D01*
X129401459Y-54587000D01*
X129350588Y-54597118D01*
X129326400Y-54599500D01*
X129213331Y-54599500D01*
X129213312Y-54599501D01*
X129112247Y-54609825D01*
X128948484Y-54664092D01*
X128948481Y-54664093D01*
X128801648Y-54754661D01*
X128679661Y-54876648D01*
X128589093Y-55023481D01*
X128589091Y-55023486D01*
X128578389Y-55055782D01*
X128534826Y-55187247D01*
X128534826Y-55187248D01*
X128534825Y-55187248D01*
X128524500Y-55288315D01*
X128524500Y-55351064D01*
X128522117Y-55375256D01*
X128499500Y-55488956D01*
X128499500Y-55686044D01*
X128522117Y-55799747D01*
X128524500Y-55823936D01*
X128524500Y-55886667D01*
X128524501Y-55886687D01*
X128534825Y-55987752D01*
X128571109Y-56097249D01*
X128589092Y-56151516D01*
X128649837Y-56250000D01*
X128679661Y-56298351D01*
X128793629Y-56412319D01*
X128827114Y-56473642D01*
X128822130Y-56543334D01*
X128793629Y-56587681D01*
X128679661Y-56701648D01*
X128589093Y-56848481D01*
X128589091Y-56848486D01*
X128561719Y-56931088D01*
X128534826Y-57012247D01*
X128534826Y-57012248D01*
X128534825Y-57012248D01*
X128524500Y-57113315D01*
X128524500Y-57176064D01*
X128522117Y-57200255D01*
X128499500Y-57313956D01*
X128499500Y-57313960D01*
X128499500Y-57511040D01*
X128512583Y-57576819D01*
X128522118Y-57624753D01*
X128524500Y-57648941D01*
X128524500Y-57711667D01*
X128524501Y-57711687D01*
X128534825Y-57812752D01*
X128547334Y-57850500D01*
X128589092Y-57976516D01*
X128679660Y-58123350D01*
X128801650Y-58245340D01*
X128948484Y-58335908D01*
X129010329Y-58356401D01*
X129059006Y-58386426D01*
X132960398Y-62287819D01*
X132971010Y-62307255D01*
X132985511Y-62323989D01*
X132987427Y-62337320D01*
X132993883Y-62349142D01*
X132992303Y-62371228D01*
X132995455Y-62393147D01*
X132989859Y-62405398D01*
X132988899Y-62418834D01*
X132975628Y-62436560D01*
X132966430Y-62456703D01*
X132955098Y-62463985D01*
X132947027Y-62474767D01*
X132926281Y-62482504D01*
X132907652Y-62494477D01*
X132885733Y-62497628D01*
X132881563Y-62499184D01*
X132872717Y-62499500D01*
X132712231Y-62499500D01*
X132645192Y-62479815D01*
X132624550Y-62463182D01*
X132574193Y-62412825D01*
X132518656Y-62357288D01*
X132369334Y-62265186D01*
X132202797Y-62210001D01*
X132202795Y-62210000D01*
X132100010Y-62199500D01*
X130899998Y-62199500D01*
X130899981Y-62199501D01*
X130797203Y-62210000D01*
X130797200Y-62210001D01*
X130630668Y-62265185D01*
X130630663Y-62265187D01*
X130481342Y-62357289D01*
X130357289Y-62481342D01*
X130265187Y-62630663D01*
X130265186Y-62630666D01*
X130210001Y-62797203D01*
X130210001Y-62797204D01*
X130210000Y-62797204D01*
X130199500Y-62899983D01*
X130199500Y-64100001D01*
X130199501Y-64100018D01*
X130210000Y-64202796D01*
X130210001Y-64202799D01*
X130247764Y-64316758D01*
X130265186Y-64369334D01*
X130347837Y-64503334D01*
X130357289Y-64518657D01*
X130424451Y-64585819D01*
X130457936Y-64647142D01*
X130452952Y-64716834D01*
X130411080Y-64772767D01*
X130345616Y-64797184D01*
X130336770Y-64797500D01*
X128807469Y-64797500D01*
X128740430Y-64777815D01*
X128694675Y-64725011D01*
X128684731Y-64655853D01*
X128713756Y-64592297D01*
X128725781Y-64581260D01*
X128725921Y-64579474D01*
X128046447Y-63900000D01*
X128052661Y-63900000D01*
X128154394Y-63872741D01*
X128245606Y-63820080D01*
X128320080Y-63745606D01*
X128372741Y-63654394D01*
X128400000Y-63552661D01*
X128400000Y-63546448D01*
X129079474Y-64225922D01*
X129079474Y-64225921D01*
X129111859Y-64181349D01*
X129204755Y-63999031D01*
X129267990Y-63804417D01*
X129300000Y-63602317D01*
X129300000Y-63397682D01*
X129267990Y-63195582D01*
X129204755Y-63000968D01*
X129111859Y-62818650D01*
X129079474Y-62774077D01*
X129079474Y-62774076D01*
X128400000Y-63453551D01*
X128400000Y-63447339D01*
X128372741Y-63345606D01*
X128320080Y-63254394D01*
X128245606Y-63179920D01*
X128154394Y-63127259D01*
X128052661Y-63100000D01*
X128046446Y-63100000D01*
X128725922Y-62420524D01*
X128725921Y-62420523D01*
X128681359Y-62388147D01*
X128681350Y-62388141D01*
X128499031Y-62295244D01*
X128304417Y-62232009D01*
X128102317Y-62200000D01*
X127897683Y-62200000D01*
X127695582Y-62232009D01*
X127500968Y-62295244D01*
X127318644Y-62388143D01*
X127274077Y-62420523D01*
X127274077Y-62420524D01*
X127953554Y-63100000D01*
X127947339Y-63100000D01*
X127845606Y-63127259D01*
X127754394Y-63179920D01*
X127679920Y-63254394D01*
X127627259Y-63345606D01*
X127600000Y-63447339D01*
X127600000Y-63453553D01*
X126920524Y-62774077D01*
X126920523Y-62774077D01*
X126888143Y-62818644D01*
X126795244Y-63000968D01*
X126732009Y-63195582D01*
X126700000Y-63397682D01*
X126700000Y-63602317D01*
X126732009Y-63804417D01*
X126795244Y-63999031D01*
X126888141Y-64181350D01*
X126888147Y-64181359D01*
X126920523Y-64225921D01*
X126920524Y-64225922D01*
X127600000Y-63546446D01*
X127600000Y-63552661D01*
X127627259Y-63654394D01*
X127679920Y-63745606D01*
X127754394Y-63820080D01*
X127845606Y-63872741D01*
X127947339Y-63900000D01*
X127953553Y-63900000D01*
X127274076Y-64579474D01*
X127274509Y-64584975D01*
X127308081Y-64628512D01*
X127314060Y-64698126D01*
X127281454Y-64759921D01*
X127220615Y-64794278D01*
X127192530Y-64797500D01*
X116305535Y-64797500D01*
X116273472Y-64803876D01*
X116273473Y-64803877D01*
X116112251Y-64835946D01*
X116112245Y-64835948D01*
X115930169Y-64911366D01*
X115930160Y-64911371D01*
X115766300Y-65020859D01*
X115766296Y-65020862D01*
X108562180Y-72224979D01*
X108500857Y-72258464D01*
X108431165Y-72253480D01*
X108375232Y-72211608D01*
X108350815Y-72146144D01*
X108350499Y-72137322D01*
X108350499Y-70562128D01*
X108344091Y-70502517D01*
X108343049Y-70499724D01*
X108293797Y-70367671D01*
X108293793Y-70367664D01*
X108207547Y-70252455D01*
X108207544Y-70252452D01*
X108092335Y-70166206D01*
X108092328Y-70166202D01*
X107957482Y-70115908D01*
X107957483Y-70115908D01*
X107897883Y-70109501D01*
X107897881Y-70109500D01*
X107897873Y-70109500D01*
X107897864Y-70109500D01*
X106102129Y-70109500D01*
X106102123Y-70109501D01*
X106042516Y-70115908D01*
X105907671Y-70166202D01*
X105907664Y-70166206D01*
X105792455Y-70252452D01*
X105792452Y-70252455D01*
X105706206Y-70367664D01*
X105706202Y-70367671D01*
X105655908Y-70502517D01*
X105650786Y-70550167D01*
X105649501Y-70562123D01*
X105649500Y-70562135D01*
X105649500Y-72357870D01*
X105649501Y-72357876D01*
X105655908Y-72417483D01*
X105706202Y-72552328D01*
X105706206Y-72552335D01*
X105792452Y-72667544D01*
X105792455Y-72667547D01*
X105907664Y-72753793D01*
X105907671Y-72753797D01*
X106039082Y-72802810D01*
X106095016Y-72844681D01*
X106119433Y-72910145D01*
X106104582Y-72978418D01*
X106083431Y-73006673D01*
X105969889Y-73120215D01*
X105844951Y-73292179D01*
X105748444Y-73481585D01*
X105748443Y-73481587D01*
X105748443Y-73481588D01*
X105731579Y-73533489D01*
X105682753Y-73683760D01*
X105649500Y-73893713D01*
X105649500Y-74106286D01*
X105681748Y-74309896D01*
X105682754Y-74316243D01*
X105741555Y-74497214D01*
X105748444Y-74518414D01*
X105844951Y-74707820D01*
X105969890Y-74879786D01*
X106120213Y-75030109D01*
X106292182Y-75155050D01*
X106300946Y-75159516D01*
X106351742Y-75207491D01*
X106368536Y-75275312D01*
X106345998Y-75341447D01*
X106300946Y-75380484D01*
X106292182Y-75384949D01*
X106120213Y-75509890D01*
X106120209Y-75509894D01*
X105976923Y-75653181D01*
X105915600Y-75686666D01*
X105889242Y-75689500D01*
X103471276Y-75689500D01*
X103404237Y-75669815D01*
X103358482Y-75617011D01*
X103347986Y-75578752D01*
X103344091Y-75542516D01*
X103293797Y-75407671D01*
X103293793Y-75407664D01*
X103207547Y-75292455D01*
X103207544Y-75292452D01*
X103092335Y-75206206D01*
X103092328Y-75206202D01*
X102957482Y-75155908D01*
X102957483Y-75155908D01*
X102897883Y-75149501D01*
X102897881Y-75149500D01*
X102897873Y-75149500D01*
X102897864Y-75149500D01*
X101102129Y-75149500D01*
X101102123Y-75149501D01*
X101042516Y-75155908D01*
X100907671Y-75206202D01*
X100907664Y-75206206D01*
X100792455Y-75292452D01*
X100792452Y-75292455D01*
X100723766Y-75384208D01*
X100667832Y-75426079D01*
X100598141Y-75431063D01*
X100536818Y-75397577D01*
X100503334Y-75336254D01*
X100500500Y-75309897D01*
X100500500Y-59878711D01*
X110649500Y-59878711D01*
X110649500Y-60121288D01*
X110681161Y-60361785D01*
X110743947Y-60596104D01*
X110836773Y-60820205D01*
X110836776Y-60820212D01*
X110958064Y-61030289D01*
X110958066Y-61030292D01*
X110958067Y-61030293D01*
X111105733Y-61222736D01*
X111105739Y-61222743D01*
X111277256Y-61394260D01*
X111277262Y-61394265D01*
X111469711Y-61541936D01*
X111679788Y-61663224D01*
X111903900Y-61756054D01*
X112138211Y-61818838D01*
X112318586Y-61842584D01*
X112378711Y-61850500D01*
X112378712Y-61850500D01*
X112621289Y-61850500D01*
X112669388Y-61844167D01*
X112861789Y-61818838D01*
X113096100Y-61756054D01*
X113320212Y-61663224D01*
X113530289Y-61541936D01*
X113722738Y-61394265D01*
X113894265Y-61222738D01*
X114041936Y-61030289D01*
X114163224Y-60820212D01*
X114256054Y-60596100D01*
X114318838Y-60361789D01*
X114350500Y-60121288D01*
X114350500Y-59878712D01*
X114318838Y-59638211D01*
X114256054Y-59403900D01*
X114163224Y-59179788D01*
X114041936Y-58969711D01*
X113894265Y-58777262D01*
X113894260Y-58777256D01*
X113722743Y-58605739D01*
X113722736Y-58605733D01*
X113570847Y-58489185D01*
X113530293Y-58458067D01*
X113530292Y-58458066D01*
X113530289Y-58458064D01*
X113422228Y-58395675D01*
X118134500Y-58395675D01*
X118134500Y-58604324D01*
X118167137Y-58810389D01*
X118231612Y-59008820D01*
X118318723Y-59179785D01*
X118326330Y-59194714D01*
X118448965Y-59363505D01*
X118596495Y-59511035D01*
X118765286Y-59633670D01*
X118853116Y-59678421D01*
X118951179Y-59728387D01*
X118951181Y-59728387D01*
X118951184Y-59728389D01*
X119057545Y-59762948D01*
X119149610Y-59792862D01*
X119355676Y-59825500D01*
X119355681Y-59825500D01*
X119564324Y-59825500D01*
X119770389Y-59792862D01*
X119968816Y-59728389D01*
X120154714Y-59633670D01*
X120323505Y-59511035D01*
X120471032Y-59363507D01*
X120532352Y-59330025D01*
X120602043Y-59335009D01*
X120657977Y-59376880D01*
X120677087Y-59425430D01*
X120679620Y-59424832D01*
X120681403Y-59432379D01*
X120731645Y-59567086D01*
X120731649Y-59567093D01*
X120817809Y-59682187D01*
X120817812Y-59682190D01*
X120932906Y-59768350D01*
X120932913Y-59768354D01*
X121067620Y-59818596D01*
X121067627Y-59818598D01*
X121127155Y-59824999D01*
X121127172Y-59825000D01*
X121750000Y-59825000D01*
X121750000Y-58990747D01*
X121787708Y-59012518D01*
X121927591Y-59050000D01*
X122072409Y-59050000D01*
X122212292Y-59012518D01*
X122250000Y-58990747D01*
X122250000Y-59825000D01*
X122872828Y-59825000D01*
X122872844Y-59824999D01*
X122932372Y-59818598D01*
X122932379Y-59818596D01*
X123067086Y-59768354D01*
X123067093Y-59768350D01*
X123182187Y-59682190D01*
X123182190Y-59682187D01*
X123268350Y-59567093D01*
X123268354Y-59567086D01*
X123318596Y-59432379D01*
X123318598Y-59432372D01*
X123324999Y-59372844D01*
X123325000Y-59372827D01*
X123325000Y-58750000D01*
X122490748Y-58750000D01*
X122512518Y-58712292D01*
X122550000Y-58572409D01*
X122550000Y-58427591D01*
X122512518Y-58287708D01*
X122490748Y-58250000D01*
X123325000Y-58250000D01*
X123325000Y-57627172D01*
X123324999Y-57627155D01*
X123318598Y-57567627D01*
X123318596Y-57567620D01*
X123268354Y-57432913D01*
X123268350Y-57432906D01*
X123182190Y-57317812D01*
X123182187Y-57317809D01*
X123067093Y-57231649D01*
X123067086Y-57231645D01*
X122932379Y-57181403D01*
X122932372Y-57181401D01*
X122872844Y-57175000D01*
X122250000Y-57175000D01*
X122250000Y-58009252D01*
X122212292Y-57987482D01*
X122072409Y-57950000D01*
X121927591Y-57950000D01*
X121787708Y-57987482D01*
X121750000Y-58009252D01*
X121750000Y-57175000D01*
X121127155Y-57175000D01*
X121067627Y-57181401D01*
X121067620Y-57181403D01*
X120932913Y-57231645D01*
X120932906Y-57231649D01*
X120817812Y-57317809D01*
X120817809Y-57317812D01*
X120731649Y-57432906D01*
X120731645Y-57432913D01*
X120681403Y-57567620D01*
X120679620Y-57575168D01*
X120676850Y-57574513D01*
X120655235Y-57626647D01*
X120597829Y-57666476D01*
X120528003Y-57668946D01*
X120471029Y-57636489D01*
X120323506Y-57488966D01*
X120154714Y-57366330D01*
X119968820Y-57271612D01*
X119770389Y-57207137D01*
X119564324Y-57174500D01*
X119564319Y-57174500D01*
X119355681Y-57174500D01*
X119355676Y-57174500D01*
X119149610Y-57207137D01*
X118951179Y-57271612D01*
X118765285Y-57366330D01*
X118596493Y-57488966D01*
X118596492Y-57488967D01*
X118448971Y-57636489D01*
X118448966Y-57636493D01*
X118326330Y-57805285D01*
X118231612Y-57991179D01*
X118167137Y-58189610D01*
X118134500Y-58395675D01*
X113422228Y-58395675D01*
X113320212Y-58336776D01*
X113320205Y-58336773D01*
X113096104Y-58243947D01*
X112861785Y-58181161D01*
X112621289Y-58149500D01*
X112621288Y-58149500D01*
X112378712Y-58149500D01*
X112378711Y-58149500D01*
X112138214Y-58181161D01*
X111903895Y-58243947D01*
X111679794Y-58336773D01*
X111679785Y-58336777D01*
X111469706Y-58458067D01*
X111277263Y-58605733D01*
X111277256Y-58605739D01*
X111105739Y-58777256D01*
X111105733Y-58777263D01*
X110958067Y-58969706D01*
X110836777Y-59179785D01*
X110836773Y-59179794D01*
X110743947Y-59403895D01*
X110681161Y-59638214D01*
X110649500Y-59878711D01*
X100500500Y-59878711D01*
X100500500Y-57003051D01*
X100500649Y-56996966D01*
X100506942Y-56868872D01*
X101999500Y-56868872D01*
X101999500Y-57131127D01*
X102023571Y-57313956D01*
X102033730Y-57391116D01*
X102099479Y-57636495D01*
X102101602Y-57644418D01*
X102101605Y-57644428D01*
X102201953Y-57886690D01*
X102201958Y-57886700D01*
X102333075Y-58113803D01*
X102492718Y-58321851D01*
X102492726Y-58321860D01*
X102678140Y-58507274D01*
X102678148Y-58507281D01*
X102886196Y-58666924D01*
X103113299Y-58798041D01*
X103113309Y-58798046D01*
X103355571Y-58898394D01*
X103355581Y-58898398D01*
X103608884Y-58966270D01*
X103868880Y-59000500D01*
X103868887Y-59000500D01*
X104131113Y-59000500D01*
X104131120Y-59000500D01*
X104391116Y-58966270D01*
X104644419Y-58898398D01*
X104886697Y-58798043D01*
X105113803Y-58666924D01*
X105321851Y-58507282D01*
X105321855Y-58507277D01*
X105321860Y-58507274D01*
X105507274Y-58321860D01*
X105507277Y-58321855D01*
X105507282Y-58321851D01*
X105666924Y-58113803D01*
X105798043Y-57886697D01*
X105898398Y-57644419D01*
X105966270Y-57391116D01*
X106000500Y-57131120D01*
X106000500Y-56868880D01*
X105966270Y-56608884D01*
X105898398Y-56355581D01*
X105854665Y-56250000D01*
X105798046Y-56113309D01*
X105798041Y-56113299D01*
X105696293Y-55937066D01*
X105696292Y-55937065D01*
X105667200Y-55886676D01*
X105666924Y-55886197D01*
X105663057Y-55881158D01*
X105663053Y-55881153D01*
X118659500Y-55881153D01*
X118659500Y-56038846D01*
X118690261Y-56193489D01*
X118690264Y-56193501D01*
X118750602Y-56339172D01*
X118750609Y-56339185D01*
X118838210Y-56470288D01*
X118838213Y-56470292D01*
X118949707Y-56581786D01*
X118949711Y-56581789D01*
X119080814Y-56669390D01*
X119080827Y-56669397D01*
X119226498Y-56729735D01*
X119226503Y-56729737D01*
X119381153Y-56760499D01*
X119381156Y-56760500D01*
X119381158Y-56760500D01*
X119538844Y-56760500D01*
X119538845Y-56760499D01*
X119693497Y-56729737D01*
X119839179Y-56669394D01*
X119970289Y-56581789D01*
X120081789Y-56470289D01*
X120169394Y-56339179D01*
X120229737Y-56193497D01*
X120260500Y-56038842D01*
X120260500Y-55881158D01*
X120260500Y-55881155D01*
X120260499Y-55881153D01*
X121199500Y-55881153D01*
X121199500Y-56038846D01*
X121230261Y-56193489D01*
X121230264Y-56193501D01*
X121290602Y-56339172D01*
X121290609Y-56339185D01*
X121378210Y-56470288D01*
X121378213Y-56470292D01*
X121489707Y-56581786D01*
X121489711Y-56581789D01*
X121620814Y-56669390D01*
X121620827Y-56669397D01*
X121766498Y-56729735D01*
X121766503Y-56729737D01*
X121921153Y-56760499D01*
X121921156Y-56760500D01*
X121921158Y-56760500D01*
X122078844Y-56760500D01*
X122078845Y-56760499D01*
X122233497Y-56729737D01*
X122379179Y-56669394D01*
X122510289Y-56581789D01*
X122621789Y-56470289D01*
X122709394Y-56339179D01*
X122769737Y-56193497D01*
X122800500Y-56038842D01*
X122800500Y-55881158D01*
X122800500Y-55881155D01*
X122800499Y-55881153D01*
X122769738Y-55726510D01*
X122769737Y-55726503D01*
X122769735Y-55726498D01*
X122709397Y-55580827D01*
X122709390Y-55580814D01*
X122621789Y-55449711D01*
X122621786Y-55449707D01*
X122510292Y-55338213D01*
X122510288Y-55338210D01*
X122379185Y-55250609D01*
X122379172Y-55250602D01*
X122233501Y-55190264D01*
X122233489Y-55190261D01*
X122078845Y-55159500D01*
X122078842Y-55159500D01*
X121921158Y-55159500D01*
X121921155Y-55159500D01*
X121766510Y-55190261D01*
X121766498Y-55190264D01*
X121620827Y-55250602D01*
X121620814Y-55250609D01*
X121489711Y-55338210D01*
X121489707Y-55338213D01*
X121378213Y-55449707D01*
X121378210Y-55449711D01*
X121290609Y-55580814D01*
X121290602Y-55580827D01*
X121230264Y-55726498D01*
X121230261Y-55726510D01*
X121199500Y-55881153D01*
X120260499Y-55881153D01*
X120229738Y-55726510D01*
X120229737Y-55726503D01*
X120229735Y-55726498D01*
X120169397Y-55580827D01*
X120169390Y-55580814D01*
X120081789Y-55449711D01*
X120081786Y-55449707D01*
X119970292Y-55338213D01*
X119970288Y-55338210D01*
X119839185Y-55250609D01*
X119839172Y-55250602D01*
X119693501Y-55190264D01*
X119693489Y-55190261D01*
X119538845Y-55159500D01*
X119538842Y-55159500D01*
X119381158Y-55159500D01*
X119381155Y-55159500D01*
X119226510Y-55190261D01*
X119226498Y-55190264D01*
X119080827Y-55250602D01*
X119080814Y-55250609D01*
X118949711Y-55338210D01*
X118949707Y-55338213D01*
X118838213Y-55449707D01*
X118838210Y-55449711D01*
X118750609Y-55580814D01*
X118750602Y-55580827D01*
X118690264Y-55726498D01*
X118690261Y-55726510D01*
X118659500Y-55881153D01*
X105663053Y-55881153D01*
X105544391Y-55726510D01*
X105507282Y-55678149D01*
X105507281Y-55678148D01*
X105507274Y-55678140D01*
X105321860Y-55492726D01*
X105321851Y-55492718D01*
X105113803Y-55333075D01*
X104886700Y-55201958D01*
X104886690Y-55201953D01*
X104644428Y-55101605D01*
X104644421Y-55101603D01*
X104644419Y-55101602D01*
X104391116Y-55033730D01*
X104333339Y-55026123D01*
X104131127Y-54999500D01*
X104131120Y-54999500D01*
X103868880Y-54999500D01*
X103868872Y-54999500D01*
X103637772Y-55029926D01*
X103608884Y-55033730D01*
X103355581Y-55101602D01*
X103355571Y-55101605D01*
X103113309Y-55201953D01*
X103113299Y-55201958D01*
X102886196Y-55333075D01*
X102678148Y-55492718D01*
X102492718Y-55678148D01*
X102333075Y-55886196D01*
X102201958Y-56113299D01*
X102201953Y-56113309D01*
X102101605Y-56355571D01*
X102101602Y-56355581D01*
X102034052Y-56607685D01*
X102033730Y-56608885D01*
X101999500Y-56868872D01*
X100506942Y-56868872D01*
X100507440Y-56858736D01*
X100507440Y-56858735D01*
X100516741Y-56669397D01*
X100517052Y-56663068D01*
X100518245Y-56650962D01*
X100523329Y-56616686D01*
X100566849Y-56323296D01*
X100569218Y-56311385D01*
X100649710Y-55990043D01*
X100653240Y-55978411D01*
X100764835Y-55666525D01*
X100769476Y-55655318D01*
X100911124Y-55355828D01*
X100916840Y-55345136D01*
X101087145Y-55060998D01*
X101093888Y-55050905D01*
X101291232Y-54784818D01*
X101298935Y-54775433D01*
X101521405Y-54529975D01*
X101529975Y-54521405D01*
X101775433Y-54298935D01*
X101784818Y-54291232D01*
X102050905Y-54093888D01*
X102060998Y-54087145D01*
X102345136Y-53916840D01*
X102355828Y-53911124D01*
X102655318Y-53769476D01*
X102666525Y-53764835D01*
X102978412Y-53653239D01*
X102990043Y-53649710D01*
X103311385Y-53569218D01*
X103323296Y-53566849D01*
X103650962Y-53518244D01*
X103663068Y-53517052D01*
X103996967Y-53500648D01*
X104003051Y-53500500D01*
X104065892Y-53500500D01*
X170934108Y-53500500D01*
X170996949Y-53500500D01*
X171003032Y-53500648D01*
G37*
%TD.AperFunction*%
%TA.AperFunction,Conductor*%
G36*
X144529805Y-71054729D02*
G01*
X144585739Y-71096600D01*
X144610156Y-71162065D01*
X144601033Y-71218363D01*
X144537950Y-71370660D01*
X144537947Y-71370670D01*
X144499500Y-71563956D01*
X144499500Y-71563959D01*
X144499500Y-85098541D01*
X144499500Y-85098543D01*
X144499499Y-85098543D01*
X144537947Y-85291829D01*
X144537950Y-85291839D01*
X144613364Y-85473907D01*
X144613371Y-85473920D01*
X144722860Y-85637781D01*
X144722863Y-85637785D01*
X144866537Y-85781459D01*
X144866559Y-85781479D01*
X145957558Y-86872478D01*
X145991043Y-86933801D01*
X145987808Y-86998477D01*
X145935216Y-87160335D01*
X145935216Y-87160338D01*
X145899500Y-87385837D01*
X145899500Y-87614162D01*
X145935215Y-87839660D01*
X146005770Y-88056803D01*
X146109421Y-88260228D01*
X146243621Y-88444937D01*
X146405063Y-88606379D01*
X146589772Y-88740579D01*
X146685884Y-88789550D01*
X146793196Y-88844229D01*
X146793198Y-88844229D01*
X146793201Y-88844231D01*
X146909592Y-88882049D01*
X147010339Y-88914784D01*
X147235838Y-88950500D01*
X147235843Y-88950500D01*
X147984218Y-88950500D01*
X148051257Y-88970185D01*
X148071899Y-88986819D01*
X151003181Y-91918101D01*
X151036666Y-91979424D01*
X151039500Y-92005782D01*
X151039500Y-95879140D01*
X151019815Y-95946179D01*
X150967011Y-95991934D01*
X150897853Y-96001878D01*
X150834297Y-95972853D01*
X150799318Y-95922473D01*
X150793797Y-95907671D01*
X150793793Y-95907664D01*
X150707547Y-95792455D01*
X150707544Y-95792452D01*
X150592335Y-95706206D01*
X150592328Y-95706202D01*
X150457482Y-95655908D01*
X150457483Y-95655908D01*
X150397883Y-95649501D01*
X150397881Y-95649500D01*
X150397873Y-95649500D01*
X150397865Y-95649500D01*
X149615783Y-95649500D01*
X149548744Y-95629815D01*
X149528102Y-95613181D01*
X146637781Y-92722861D01*
X144212819Y-90297899D01*
X144179334Y-90236576D01*
X144176500Y-90210218D01*
X144176500Y-83072456D01*
X144138052Y-82879170D01*
X144138051Y-82879169D01*
X144138051Y-82879165D01*
X144124020Y-82845291D01*
X144062635Y-82697092D01*
X144062628Y-82697079D01*
X143953139Y-82533218D01*
X143953136Y-82533214D01*
X143810686Y-82390764D01*
X143810655Y-82390735D01*
X143011423Y-81591503D01*
X142977938Y-81530180D01*
X142975657Y-81514708D01*
X142975500Y-81513716D01*
X142975500Y-81513713D01*
X142942246Y-81303757D01*
X142876557Y-81101588D01*
X142780051Y-80912184D01*
X142780049Y-80912181D01*
X142780048Y-80912179D01*
X142655109Y-80740213D01*
X142504786Y-80589890D01*
X142332817Y-80464949D01*
X142323504Y-80460204D01*
X142272707Y-80412230D01*
X142255912Y-80344409D01*
X142278449Y-80278274D01*
X142323507Y-80239232D01*
X142332555Y-80234622D01*
X142386716Y-80195270D01*
X142386717Y-80195270D01*
X141754408Y-79562962D01*
X141817993Y-79545925D01*
X141932007Y-79480099D01*
X142025099Y-79387007D01*
X142090925Y-79272993D01*
X142107962Y-79209408D01*
X142740270Y-79841717D01*
X142740270Y-79841716D01*
X142779622Y-79787554D01*
X142876095Y-79598217D01*
X142941757Y-79396130D01*
X142941757Y-79396127D01*
X142975000Y-79186246D01*
X142975000Y-78973753D01*
X142941757Y-78763872D01*
X142941757Y-78763869D01*
X142876095Y-78561782D01*
X142779624Y-78372449D01*
X142740270Y-78318282D01*
X142740269Y-78318282D01*
X142107962Y-78950590D01*
X142090925Y-78887007D01*
X142025099Y-78772993D01*
X141932007Y-78679901D01*
X141817993Y-78614075D01*
X141754408Y-78597037D01*
X142386716Y-77964728D01*
X142332547Y-77925373D01*
X142332547Y-77925372D01*
X142323500Y-77920763D01*
X142272706Y-77872788D01*
X142255912Y-77804966D01*
X142278451Y-77738832D01*
X142323508Y-77699793D01*
X142332816Y-77695051D01*
X142441909Y-77615791D01*
X142504786Y-77570109D01*
X142504788Y-77570106D01*
X142504792Y-77570104D01*
X142655104Y-77419792D01*
X142655106Y-77419788D01*
X142655109Y-77419786D01*
X142780048Y-77247820D01*
X142780047Y-77247820D01*
X142780051Y-77247816D01*
X142876557Y-77058412D01*
X142942246Y-76856243D01*
X142975500Y-76646287D01*
X142975500Y-76433713D01*
X142942246Y-76223757D01*
X142876557Y-76021588D01*
X142780051Y-75832184D01*
X142780049Y-75832181D01*
X142780048Y-75832179D01*
X142655109Y-75660213D01*
X142504786Y-75509890D01*
X142332820Y-75384951D01*
X142331362Y-75384208D01*
X142324054Y-75380485D01*
X142273259Y-75332512D01*
X142256463Y-75264692D01*
X142278999Y-75198556D01*
X142324054Y-75159515D01*
X142332816Y-75155051D01*
X142419138Y-75092335D01*
X142504786Y-75030109D01*
X142504788Y-75030106D01*
X142504792Y-75030104D01*
X142655104Y-74879792D01*
X142655106Y-74879788D01*
X142655109Y-74879786D01*
X142780048Y-74707820D01*
X142780047Y-74707820D01*
X142780051Y-74707816D01*
X142876557Y-74518412D01*
X142942246Y-74316243D01*
X142975500Y-74106287D01*
X142975500Y-73893713D01*
X142942246Y-73683757D01*
X142876557Y-73481588D01*
X142780051Y-73292184D01*
X142780049Y-73292181D01*
X142780048Y-73292179D01*
X142655109Y-73120213D01*
X142504786Y-72969890D01*
X142332820Y-72844951D01*
X142143414Y-72748444D01*
X142143413Y-72748443D01*
X142143412Y-72748443D01*
X141941243Y-72682754D01*
X141941241Y-72682753D01*
X141941240Y-72682753D01*
X141779957Y-72657208D01*
X141731287Y-72649500D01*
X141518713Y-72649500D01*
X141470042Y-72657208D01*
X141308760Y-72682753D01*
X141207672Y-72715598D01*
X141152612Y-72733489D01*
X141106585Y-72748444D01*
X140917179Y-72844951D01*
X140745213Y-72969890D01*
X140594890Y-73120213D01*
X140469951Y-73292179D01*
X140373444Y-73481585D01*
X140373443Y-73481587D01*
X140373443Y-73481588D01*
X140356579Y-73533489D01*
X140307753Y-73683760D01*
X140274500Y-73893713D01*
X140274500Y-74096348D01*
X140254815Y-74163387D01*
X140238181Y-74184029D01*
X132339375Y-82082834D01*
X132339372Y-82082838D01*
X132246297Y-82222133D01*
X132246296Y-82222136D01*
X132216704Y-82293579D01*
X132216704Y-82293580D01*
X132182184Y-82376917D01*
X132182182Y-82376925D01*
X132149500Y-82541228D01*
X132149500Y-90889242D01*
X132129815Y-90956281D01*
X132113181Y-90976923D01*
X131969894Y-91120209D01*
X131969890Y-91120213D01*
X131844949Y-91292182D01*
X131840484Y-91300946D01*
X131792509Y-91351742D01*
X131724688Y-91368536D01*
X131658553Y-91345998D01*
X131619516Y-91300946D01*
X131615050Y-91292182D01*
X131490109Y-91120213D01*
X131339786Y-90969890D01*
X131167820Y-90844951D01*
X130978414Y-90748444D01*
X130978413Y-90748443D01*
X130978412Y-90748443D01*
X130776243Y-90682754D01*
X130776241Y-90682753D01*
X130776240Y-90682753D01*
X130614957Y-90657208D01*
X130566287Y-90649500D01*
X130363651Y-90649500D01*
X130296612Y-90629815D01*
X130275970Y-90613181D01*
X125386819Y-85724030D01*
X125353334Y-85662707D01*
X125350500Y-85636349D01*
X125350500Y-85321066D01*
X125370185Y-85254027D01*
X125422989Y-85208272D01*
X125492147Y-85198328D01*
X125547385Y-85220748D01*
X125645221Y-85291829D01*
X125677184Y-85315051D01*
X125866588Y-85411557D01*
X126068757Y-85477246D01*
X126278713Y-85510500D01*
X126278714Y-85510500D01*
X126491286Y-85510500D01*
X126491287Y-85510500D01*
X126701243Y-85477246D01*
X126903412Y-85411557D01*
X127092816Y-85315051D01*
X127147572Y-85275269D01*
X127264786Y-85190109D01*
X127264788Y-85190106D01*
X127264792Y-85190104D01*
X127415104Y-85039792D01*
X127415106Y-85039788D01*
X127415109Y-85039786D01*
X127540048Y-84867820D01*
X127540047Y-84867820D01*
X127540051Y-84867816D01*
X127636557Y-84678412D01*
X127702246Y-84476243D01*
X127735500Y-84266287D01*
X127735500Y-84053713D01*
X127710715Y-83897227D01*
X127719670Y-83827933D01*
X127745504Y-83790151D01*
X139678838Y-71856819D01*
X139740161Y-71823334D01*
X139766519Y-71820500D01*
X143440360Y-71820500D01*
X143531404Y-71802389D01*
X143575692Y-71793580D01*
X143660859Y-71758303D01*
X143703171Y-71740777D01*
X143703172Y-71740776D01*
X143703175Y-71740775D01*
X143817907Y-71664114D01*
X144398791Y-71083230D01*
X144460114Y-71049745D01*
X144529805Y-71054729D01*
G37*
%TD.AperFunction*%
%TA.AperFunction,Conductor*%
G36*
X141159075Y-79272993D02*
G01*
X141224901Y-79387007D01*
X141317993Y-79480099D01*
X141432007Y-79545925D01*
X141495590Y-79562962D01*
X140863282Y-80195269D01*
X140863282Y-80195270D01*
X140917452Y-80234626D01*
X140917451Y-80234626D01*
X140926495Y-80239234D01*
X140977292Y-80287208D01*
X140994087Y-80355029D01*
X140971550Y-80421164D01*
X140926499Y-80460202D01*
X140917182Y-80464949D01*
X140745213Y-80589890D01*
X140594890Y-80740213D01*
X140469951Y-80912179D01*
X140373444Y-81101585D01*
X140307753Y-81303760D01*
X140274500Y-81513713D01*
X140274500Y-81726286D01*
X140307753Y-81936239D01*
X140373444Y-82138414D01*
X140469951Y-82327820D01*
X140594890Y-82499786D01*
X140745213Y-82650109D01*
X140917179Y-82775048D01*
X140917181Y-82775049D01*
X140917184Y-82775051D01*
X140926493Y-82779794D01*
X140977290Y-82827766D01*
X140994087Y-82895587D01*
X140971552Y-82961722D01*
X140926505Y-83000760D01*
X140917446Y-83005376D01*
X140917440Y-83005380D01*
X140863282Y-83044727D01*
X140863282Y-83044728D01*
X141495591Y-83677037D01*
X141432007Y-83694075D01*
X141317993Y-83759901D01*
X141224901Y-83852993D01*
X141159075Y-83967007D01*
X141142037Y-84030591D01*
X140509728Y-83398282D01*
X140509727Y-83398282D01*
X140470380Y-83452439D01*
X140373904Y-83641782D01*
X140308242Y-83843869D01*
X140308242Y-83843872D01*
X140275000Y-84053753D01*
X140275000Y-84266246D01*
X140308242Y-84476127D01*
X140308242Y-84476130D01*
X140373904Y-84678217D01*
X140470375Y-84867550D01*
X140509728Y-84921716D01*
X141142037Y-84289408D01*
X141159075Y-84352993D01*
X141224901Y-84467007D01*
X141317993Y-84560099D01*
X141432007Y-84625925D01*
X141495589Y-84642962D01*
X140863282Y-85275269D01*
X140863282Y-85275270D01*
X140917449Y-85314624D01*
X141106782Y-85411095D01*
X141308870Y-85476757D01*
X141518754Y-85510000D01*
X141731246Y-85510000D01*
X141941127Y-85476757D01*
X141941133Y-85476756D01*
X142013180Y-85453346D01*
X142083021Y-85451349D01*
X142142855Y-85487429D01*
X142173684Y-85550129D01*
X142175500Y-85571276D01*
X142175500Y-90774544D01*
X142213947Y-90967829D01*
X142213950Y-90967839D01*
X142227065Y-90999501D01*
X142289364Y-91149907D01*
X142289371Y-91149920D01*
X142398860Y-91313781D01*
X142398863Y-91313785D01*
X142542537Y-91457459D01*
X142542559Y-91457479D01*
X144522899Y-93437819D01*
X144556384Y-93499142D01*
X144551400Y-93568834D01*
X144509528Y-93624767D01*
X144444064Y-93649184D01*
X144435218Y-93649500D01*
X130823651Y-93649500D01*
X130756612Y-93629815D01*
X130735970Y-93613181D01*
X130658088Y-93535299D01*
X130624603Y-93473976D01*
X130629587Y-93404284D01*
X130671459Y-93348351D01*
X130726371Y-93325145D01*
X130776243Y-93317246D01*
X130978412Y-93251557D01*
X131167816Y-93155051D01*
X131254138Y-93092335D01*
X131339786Y-93030109D01*
X131339788Y-93030106D01*
X131339792Y-93030104D01*
X131490104Y-92879792D01*
X131490106Y-92879788D01*
X131490109Y-92879786D01*
X131615048Y-92707820D01*
X131615047Y-92707820D01*
X131615051Y-92707816D01*
X131619514Y-92699054D01*
X131667488Y-92648259D01*
X131735308Y-92631463D01*
X131801444Y-92653999D01*
X131840486Y-92699056D01*
X131844951Y-92707820D01*
X131969890Y-92879786D01*
X132120213Y-93030109D01*
X132292179Y-93155048D01*
X132292181Y-93155049D01*
X132292184Y-93155051D01*
X132481588Y-93251557D01*
X132683757Y-93317246D01*
X132893713Y-93350500D01*
X132893714Y-93350500D01*
X133106286Y-93350500D01*
X133106287Y-93350500D01*
X133316243Y-93317246D01*
X133518412Y-93251557D01*
X133707816Y-93155051D01*
X133794138Y-93092335D01*
X133879786Y-93030109D01*
X133879788Y-93030106D01*
X133879792Y-93030104D01*
X134030104Y-92879792D01*
X134030106Y-92879788D01*
X134030109Y-92879786D01*
X134155048Y-92707820D01*
X134155047Y-92707820D01*
X134155051Y-92707816D01*
X134159514Y-92699054D01*
X134207488Y-92648259D01*
X134275308Y-92631463D01*
X134341444Y-92653999D01*
X134380486Y-92699056D01*
X134384951Y-92707820D01*
X134509890Y-92879786D01*
X134660213Y-93030109D01*
X134832179Y-93155048D01*
X134832181Y-93155049D01*
X134832184Y-93155051D01*
X135021588Y-93251557D01*
X135223757Y-93317246D01*
X135433713Y-93350500D01*
X135433714Y-93350500D01*
X135646286Y-93350500D01*
X135646287Y-93350500D01*
X135856243Y-93317246D01*
X136058412Y-93251557D01*
X136247816Y-93155051D01*
X136334138Y-93092335D01*
X136419786Y-93030109D01*
X136419788Y-93030106D01*
X136419792Y-93030104D01*
X136570104Y-92879792D01*
X136570106Y-92879788D01*
X136570109Y-92879786D01*
X136695048Y-92707820D01*
X136695047Y-92707820D01*
X136695051Y-92707816D01*
X136699514Y-92699054D01*
X136747488Y-92648259D01*
X136815308Y-92631463D01*
X136881444Y-92653999D01*
X136920486Y-92699056D01*
X136924951Y-92707820D01*
X137049890Y-92879786D01*
X137200213Y-93030109D01*
X137372179Y-93155048D01*
X137372181Y-93155049D01*
X137372184Y-93155051D01*
X137561588Y-93251557D01*
X137763757Y-93317246D01*
X137973713Y-93350500D01*
X137973714Y-93350500D01*
X138186286Y-93350500D01*
X138186287Y-93350500D01*
X138396243Y-93317246D01*
X138598412Y-93251557D01*
X138787816Y-93155051D01*
X138874138Y-93092335D01*
X138959786Y-93030109D01*
X138959788Y-93030106D01*
X138959792Y-93030104D01*
X139110104Y-92879792D01*
X139110106Y-92879788D01*
X139110109Y-92879786D01*
X139195890Y-92761717D01*
X139235051Y-92707816D01*
X139239793Y-92698508D01*
X139287763Y-92647711D01*
X139355583Y-92630911D01*
X139421719Y-92653445D01*
X139460763Y-92698500D01*
X139465373Y-92707547D01*
X139504728Y-92761716D01*
X140137037Y-92129408D01*
X140154075Y-92192993D01*
X140219901Y-92307007D01*
X140312993Y-92400099D01*
X140427007Y-92465925D01*
X140490590Y-92482962D01*
X139858282Y-93115269D01*
X139858282Y-93115270D01*
X139912449Y-93154624D01*
X140101782Y-93251095D01*
X140303870Y-93316757D01*
X140513754Y-93350000D01*
X140726246Y-93350000D01*
X140936127Y-93316757D01*
X140936130Y-93316757D01*
X141138217Y-93251095D01*
X141327554Y-93154622D01*
X141381716Y-93115270D01*
X141381717Y-93115270D01*
X140749408Y-92482962D01*
X140812993Y-92465925D01*
X140927007Y-92400099D01*
X141020099Y-92307007D01*
X141085925Y-92192993D01*
X141102962Y-92129408D01*
X141735270Y-92761717D01*
X141735270Y-92761716D01*
X141774622Y-92707554D01*
X141871095Y-92518217D01*
X141936757Y-92316130D01*
X141936757Y-92316127D01*
X141970000Y-92106246D01*
X141970000Y-91893753D01*
X141936757Y-91683872D01*
X141936757Y-91683869D01*
X141871095Y-91481782D01*
X141774624Y-91292449D01*
X141735270Y-91238282D01*
X141735269Y-91238282D01*
X141102962Y-91870590D01*
X141085925Y-91807007D01*
X141020099Y-91692993D01*
X140927007Y-91599901D01*
X140812993Y-91534075D01*
X140749409Y-91517037D01*
X141381716Y-90884728D01*
X141327550Y-90845375D01*
X141138217Y-90748904D01*
X140936129Y-90683242D01*
X140726246Y-90650000D01*
X140513754Y-90650000D01*
X140303872Y-90683242D01*
X140303869Y-90683242D01*
X140101782Y-90748904D01*
X139912439Y-90845380D01*
X139858282Y-90884727D01*
X139858282Y-90884728D01*
X140490591Y-91517037D01*
X140427007Y-91534075D01*
X140312993Y-91599901D01*
X140219901Y-91692993D01*
X140154075Y-91807007D01*
X140137037Y-91870590D01*
X139504728Y-91238282D01*
X139504727Y-91238282D01*
X139465380Y-91292440D01*
X139465376Y-91292446D01*
X139460760Y-91301505D01*
X139412781Y-91352297D01*
X139344959Y-91369087D01*
X139278826Y-91346543D01*
X139239794Y-91301493D01*
X139235051Y-91292184D01*
X139235049Y-91292181D01*
X139235048Y-91292179D01*
X139110109Y-91120213D01*
X138959786Y-90969890D01*
X138787820Y-90844951D01*
X138598414Y-90748444D01*
X138598413Y-90748443D01*
X138598412Y-90748443D01*
X138396243Y-90682754D01*
X138396241Y-90682753D01*
X138396240Y-90682753D01*
X138234957Y-90657208D01*
X138186287Y-90649500D01*
X137973713Y-90649500D01*
X137925042Y-90657208D01*
X137763760Y-90682753D01*
X137561585Y-90748444D01*
X137372179Y-90844951D01*
X137200213Y-90969890D01*
X137049890Y-91120213D01*
X136924949Y-91292182D01*
X136920484Y-91300946D01*
X136872509Y-91351742D01*
X136804688Y-91368536D01*
X136738553Y-91345998D01*
X136699516Y-91300946D01*
X136695050Y-91292182D01*
X136570109Y-91120213D01*
X136426819Y-90976923D01*
X136393334Y-90915600D01*
X136390500Y-90889242D01*
X136390500Y-83028650D01*
X136410185Y-82961611D01*
X136426814Y-82940974D01*
X140090138Y-79277649D01*
X140151461Y-79244165D01*
X140221153Y-79249149D01*
X140277086Y-79291021D01*
X140300292Y-79345933D01*
X140308242Y-79396127D01*
X140308242Y-79396130D01*
X140373904Y-79598217D01*
X140470375Y-79787550D01*
X140509728Y-79841716D01*
X141142037Y-79209408D01*
X141159075Y-79272993D01*
G37*
%TD.AperFunction*%
%TA.AperFunction,Conductor*%
G36*
X134631519Y-82298782D02*
G01*
X134687453Y-82340653D01*
X134711870Y-82406118D01*
X134709804Y-82439154D01*
X134689500Y-82541234D01*
X134689500Y-90889242D01*
X134669815Y-90956281D01*
X134653181Y-90976923D01*
X134509894Y-91120209D01*
X134509890Y-91120213D01*
X134384949Y-91292182D01*
X134380484Y-91300946D01*
X134332509Y-91351742D01*
X134264688Y-91368536D01*
X134198553Y-91345998D01*
X134159516Y-91300946D01*
X134155050Y-91292182D01*
X134030109Y-91120213D01*
X133886819Y-90976923D01*
X133853334Y-90915600D01*
X133850500Y-90889242D01*
X133850500Y-83028651D01*
X133870185Y-82961612D01*
X133886819Y-82940970D01*
X134183920Y-82643869D01*
X134500507Y-82327281D01*
X134561828Y-82293798D01*
X134631519Y-82298782D01*
G37*
%TD.AperFunction*%
%TA.AperFunction,Conductor*%
G36*
X169353492Y-81140185D02*
G01*
X169386769Y-81171614D01*
X169407147Y-81199661D01*
X169479892Y-81299788D01*
X169630213Y-81450109D01*
X169802179Y-81575048D01*
X169802181Y-81575049D01*
X169802184Y-81575051D01*
X169811493Y-81579794D01*
X169862290Y-81627766D01*
X169879087Y-81695587D01*
X169856552Y-81761722D01*
X169811505Y-81800760D01*
X169802446Y-81805376D01*
X169802440Y-81805380D01*
X169748282Y-81844727D01*
X169748282Y-81844728D01*
X170380591Y-82477037D01*
X170317007Y-82494075D01*
X170202993Y-82559901D01*
X170109901Y-82652993D01*
X170044075Y-82767007D01*
X170027037Y-82830591D01*
X169394728Y-82198282D01*
X169394727Y-82198282D01*
X169355380Y-82252439D01*
X169258904Y-82441782D01*
X169193242Y-82643869D01*
X169193242Y-82643872D01*
X169160000Y-82853753D01*
X169160000Y-83066246D01*
X169193242Y-83276127D01*
X169193242Y-83276130D01*
X169258904Y-83478217D01*
X169355375Y-83667550D01*
X169394728Y-83721716D01*
X170027037Y-83089408D01*
X170044075Y-83152993D01*
X170109901Y-83267007D01*
X170202993Y-83360099D01*
X170317007Y-83425925D01*
X170380589Y-83442962D01*
X169710370Y-84113181D01*
X169649047Y-84146666D01*
X169622698Y-84149500D01*
X169612134Y-84149500D01*
X169612123Y-84149501D01*
X169552516Y-84155908D01*
X169417671Y-84206202D01*
X169417664Y-84206206D01*
X169302455Y-84292452D01*
X169302452Y-84292455D01*
X169216206Y-84407664D01*
X169216202Y-84407671D01*
X169165908Y-84542517D01*
X169159501Y-84602116D01*
X169159500Y-84602135D01*
X169159500Y-84715500D01*
X169139815Y-84782539D01*
X169087011Y-84828294D01*
X169035500Y-84839500D01*
X167474499Y-84839500D01*
X167407460Y-84819815D01*
X167361705Y-84767011D01*
X167350499Y-84715500D01*
X167350499Y-84642129D01*
X167350498Y-84642123D01*
X167350497Y-84642116D01*
X167344091Y-84582517D01*
X167339047Y-84568994D01*
X167293797Y-84447671D01*
X167293793Y-84447664D01*
X167207547Y-84332455D01*
X167207544Y-84332452D01*
X167092335Y-84246206D01*
X167092328Y-84246202D01*
X166957482Y-84195908D01*
X166957483Y-84195908D01*
X166897883Y-84189501D01*
X166897881Y-84189500D01*
X166897873Y-84189500D01*
X166897865Y-84189500D01*
X166887309Y-84189500D01*
X166820270Y-84169815D01*
X166799628Y-84153181D01*
X166129408Y-83482962D01*
X166192993Y-83465925D01*
X166307007Y-83400099D01*
X166400099Y-83307007D01*
X166465925Y-83192993D01*
X166482962Y-83129408D01*
X167115270Y-83761717D01*
X167115270Y-83761716D01*
X167154622Y-83707554D01*
X167251095Y-83518217D01*
X167316757Y-83316130D01*
X167316757Y-83316127D01*
X167350000Y-83106246D01*
X167350000Y-82893755D01*
X167345965Y-82868280D01*
X167345965Y-82868279D01*
X167316757Y-82683872D01*
X167316757Y-82683869D01*
X167251095Y-82481782D01*
X167154624Y-82292449D01*
X167115270Y-82238282D01*
X167115269Y-82238282D01*
X166482962Y-82870590D01*
X166465925Y-82807007D01*
X166400099Y-82692993D01*
X166307007Y-82599901D01*
X166192993Y-82534075D01*
X166129409Y-82517037D01*
X166761716Y-81884728D01*
X166707547Y-81845373D01*
X166707547Y-81845372D01*
X166698500Y-81840763D01*
X166647706Y-81792788D01*
X166630912Y-81724966D01*
X166653451Y-81658832D01*
X166698508Y-81619793D01*
X166707816Y-81615051D01*
X166824632Y-81530180D01*
X166879786Y-81490109D01*
X166879788Y-81490106D01*
X166879792Y-81490104D01*
X167030104Y-81339792D01*
X167046453Y-81317289D01*
X167152292Y-81171615D01*
X167207622Y-81128949D01*
X167252610Y-81120500D01*
X169286453Y-81120500D01*
X169353492Y-81140185D01*
G37*
%TD.AperFunction*%
%TA.AperFunction,Conductor*%
G36*
X100705703Y-82024513D02*
G01*
X100742430Y-82079906D01*
X100743381Y-82082834D01*
X100748444Y-82098414D01*
X100844951Y-82287820D01*
X100969890Y-82459786D01*
X101120213Y-82610109D01*
X101292179Y-82735048D01*
X101292181Y-82735049D01*
X101292184Y-82735051D01*
X101301493Y-82739794D01*
X101352290Y-82787766D01*
X101369087Y-82855587D01*
X101346552Y-82921722D01*
X101301505Y-82960760D01*
X101292446Y-82965376D01*
X101292440Y-82965380D01*
X101238282Y-83004727D01*
X101238282Y-83004728D01*
X101870591Y-83637037D01*
X101807007Y-83654075D01*
X101692993Y-83719901D01*
X101599901Y-83812993D01*
X101534075Y-83927007D01*
X101517037Y-83990591D01*
X100884728Y-83358282D01*
X100884727Y-83358282D01*
X100845380Y-83412439D01*
X100748904Y-83601782D01*
X100742431Y-83621706D01*
X100702994Y-83679381D01*
X100638635Y-83706580D01*
X100569789Y-83694665D01*
X100518313Y-83647421D01*
X100500500Y-83583388D01*
X100500500Y-82118226D01*
X100520185Y-82051187D01*
X100572989Y-82005432D01*
X100642147Y-81995488D01*
X100705703Y-82024513D01*
G37*
%TD.AperFunction*%
%TA.AperFunction,Conductor*%
G36*
X151947560Y-69959455D02*
G01*
X151978486Y-69966783D01*
X151980842Y-69969228D01*
X151984101Y-69970185D01*
X152004911Y-69994201D01*
X152026972Y-70017091D01*
X152028496Y-70021419D01*
X152029856Y-70022989D01*
X152033425Y-70035418D01*
X152038694Y-70050381D01*
X152068407Y-70200226D01*
X152062138Y-70269814D01*
X152061338Y-70271794D01*
X152052456Y-70293238D01*
X152052455Y-70293239D01*
X152037000Y-70410638D01*
X152037000Y-70689363D01*
X152052453Y-70806753D01*
X152052457Y-70806765D01*
X152061066Y-70827550D01*
X152068533Y-70897019D01*
X152061066Y-70922450D01*
X152052457Y-70943234D01*
X152052455Y-70943239D01*
X152037000Y-71060638D01*
X152037000Y-71339363D01*
X152052453Y-71456753D01*
X152052457Y-71456765D01*
X152061066Y-71477550D01*
X152068533Y-71547019D01*
X152068083Y-71549385D01*
X152065700Y-71561261D01*
X152052456Y-71593238D01*
X152039405Y-71692369D01*
X152038588Y-71696444D01*
X152024198Y-71723845D01*
X152011681Y-71752141D01*
X152008099Y-71754503D01*
X152006104Y-71758303D01*
X151979185Y-71773575D01*
X151953357Y-71790612D01*
X151949067Y-71790663D01*
X151945334Y-71792781D01*
X151914428Y-71791075D01*
X151883492Y-71791443D01*
X151876356Y-71788973D01*
X151875570Y-71788930D01*
X151874963Y-71788491D01*
X151869557Y-71786620D01*
X151733501Y-71730264D01*
X151733489Y-71730261D01*
X151578845Y-71699500D01*
X151578842Y-71699500D01*
X151421158Y-71699500D01*
X151421155Y-71699500D01*
X151266510Y-71730261D01*
X151266503Y-71730263D01*
X151122967Y-71789716D01*
X151053498Y-71797184D01*
X150991019Y-71765908D01*
X150987835Y-71762835D01*
X150975000Y-71750000D01*
X150250000Y-71750000D01*
X150250000Y-72537499D01*
X150286640Y-72537499D01*
X150286654Y-72537498D01*
X150387652Y-72527180D01*
X150537509Y-72477523D01*
X150607337Y-72475121D01*
X150667379Y-72510853D01*
X150698572Y-72573373D01*
X150698942Y-72576041D01*
X150730261Y-72733489D01*
X150730264Y-72733501D01*
X150790602Y-72879172D01*
X150790609Y-72879185D01*
X150878210Y-73010288D01*
X150878213Y-73010292D01*
X150989707Y-73121786D01*
X150989711Y-73121789D01*
X151120814Y-73209390D01*
X151120827Y-73209397D01*
X151222952Y-73251698D01*
X151277356Y-73295538D01*
X151299421Y-73361833D01*
X151299500Y-73366259D01*
X151299500Y-73378846D01*
X151330261Y-73533489D01*
X151330264Y-73533501D01*
X151390602Y-73679172D01*
X151390609Y-73679185D01*
X151478210Y-73810288D01*
X151478213Y-73810292D01*
X151589707Y-73921786D01*
X151589711Y-73921789D01*
X151720814Y-74009390D01*
X151720827Y-74009397D01*
X151822612Y-74051557D01*
X151866503Y-74069737D01*
X151976199Y-74091557D01*
X152021153Y-74100499D01*
X152021156Y-74100500D01*
X152021158Y-74100500D01*
X152178844Y-74100500D01*
X152178845Y-74100499D01*
X152333497Y-74069737D01*
X152479179Y-74009394D01*
X152610289Y-73921789D01*
X152645258Y-73886820D01*
X152706580Y-73853334D01*
X152732940Y-73850500D01*
X153358427Y-73850500D01*
X153358435Y-73850499D01*
X153589000Y-73850499D01*
X153656039Y-73870184D01*
X153701794Y-73922988D01*
X153713000Y-73974499D01*
X153713000Y-74157480D01*
X153693315Y-74224519D01*
X153676681Y-74245161D01*
X152933660Y-74988181D01*
X152872337Y-75021666D01*
X152845980Y-75024500D01*
X152613331Y-75024500D01*
X152613312Y-75024501D01*
X152512247Y-75034825D01*
X152348484Y-75089092D01*
X152348481Y-75089093D01*
X152201651Y-75179659D01*
X152087327Y-75293983D01*
X152026004Y-75327467D01*
X151956312Y-75322483D01*
X151911965Y-75293982D01*
X151798038Y-75180055D01*
X151798034Y-75180052D01*
X151651311Y-75089551D01*
X151651300Y-75089546D01*
X151487652Y-75035319D01*
X151386654Y-75025000D01*
X151337500Y-75025000D01*
X151337500Y-76974999D01*
X151386640Y-76974999D01*
X151386654Y-76974998D01*
X151487652Y-76964680D01*
X151651300Y-76910453D01*
X151651311Y-76910448D01*
X151798034Y-76819947D01*
X151798038Y-76819944D01*
X151850319Y-76767664D01*
X151911642Y-76734179D01*
X151981334Y-76739163D01*
X152037267Y-76781035D01*
X152061684Y-76846499D01*
X152062000Y-76855345D01*
X152062000Y-77183849D01*
X152042315Y-77250888D01*
X152025681Y-77271530D01*
X148284030Y-81013181D01*
X148222707Y-81046666D01*
X148196349Y-81049500D01*
X147235838Y-81049500D01*
X147010339Y-81085215D01*
X146793193Y-81155771D01*
X146680794Y-81213042D01*
X146612125Y-81225938D01*
X146547385Y-81199661D01*
X146507128Y-81142555D01*
X146500500Y-81102557D01*
X146500500Y-76286654D01*
X150100001Y-76286654D01*
X150110319Y-76387652D01*
X150164546Y-76551300D01*
X150164551Y-76551311D01*
X150255052Y-76698034D01*
X150255055Y-76698038D01*
X150376961Y-76819944D01*
X150376965Y-76819947D01*
X150523688Y-76910448D01*
X150523699Y-76910453D01*
X150687347Y-76964680D01*
X150788351Y-76974999D01*
X150837499Y-76974998D01*
X150837500Y-76974998D01*
X150837500Y-76250000D01*
X150100001Y-76250000D01*
X150100001Y-76286654D01*
X146500500Y-76286654D01*
X146500500Y-75713345D01*
X150100000Y-75713345D01*
X150100000Y-75750000D01*
X150837500Y-75750000D01*
X150837500Y-75025000D01*
X150837499Y-75024999D01*
X150788361Y-75025000D01*
X150788343Y-75025001D01*
X150687347Y-75035319D01*
X150523699Y-75089546D01*
X150523688Y-75089551D01*
X150376965Y-75180052D01*
X150376961Y-75180055D01*
X150255055Y-75301961D01*
X150255052Y-75301965D01*
X150164551Y-75448688D01*
X150164546Y-75448699D01*
X150110319Y-75612347D01*
X150100000Y-75713345D01*
X146500500Y-75713345D01*
X146500500Y-72128281D01*
X146509144Y-72098840D01*
X146515668Y-72068854D01*
X146519422Y-72063838D01*
X146520185Y-72061242D01*
X146536809Y-72040610D01*
X146688908Y-71888511D01*
X146750226Y-71855030D01*
X146819917Y-71860014D01*
X146875851Y-71901885D01*
X146894983Y-71943957D01*
X146895689Y-71943724D01*
X146952046Y-72113800D01*
X146952051Y-72113811D01*
X147042552Y-72260534D01*
X147042555Y-72260538D01*
X147164461Y-72382444D01*
X147164465Y-72382447D01*
X147311188Y-72472948D01*
X147311199Y-72472953D01*
X147474847Y-72527180D01*
X147575852Y-72537499D01*
X147612500Y-72537499D01*
X148112500Y-72537499D01*
X148149140Y-72537499D01*
X148149154Y-72537498D01*
X148250152Y-72527180D01*
X148413800Y-72472953D01*
X148413811Y-72472948D01*
X148560534Y-72382447D01*
X148560538Y-72382444D01*
X148682444Y-72260538D01*
X148682447Y-72260534D01*
X148772948Y-72113811D01*
X148772953Y-72113800D01*
X148813544Y-71991305D01*
X148853316Y-71933860D01*
X148917832Y-71907037D01*
X148986608Y-71919352D01*
X149037808Y-71966895D01*
X149048956Y-71991305D01*
X149089546Y-72113800D01*
X149089551Y-72113811D01*
X149180052Y-72260534D01*
X149180055Y-72260538D01*
X149301961Y-72382444D01*
X149301965Y-72382447D01*
X149448688Y-72472948D01*
X149448699Y-72472953D01*
X149612347Y-72527180D01*
X149713352Y-72537499D01*
X149750000Y-72537499D01*
X149750000Y-71750000D01*
X149025000Y-71750000D01*
X149018930Y-71756070D01*
X148957607Y-71789555D01*
X148887915Y-71784569D01*
X148843569Y-71756069D01*
X148837500Y-71750000D01*
X148112500Y-71750000D01*
X148112500Y-72537499D01*
X147612500Y-72537499D01*
X147612500Y-71624000D01*
X147632185Y-71556961D01*
X147684989Y-71511206D01*
X147736500Y-71500000D01*
X147862500Y-71500000D01*
X147862500Y-71374000D01*
X147882185Y-71306961D01*
X147934989Y-71261206D01*
X147986500Y-71250000D01*
X148837498Y-71250000D01*
X148843567Y-71243931D01*
X148904889Y-71210445D01*
X148974581Y-71215429D01*
X149018930Y-71243930D01*
X149025000Y-71250000D01*
X150974999Y-71250000D01*
X150974999Y-71150860D01*
X150974998Y-71150845D01*
X150964680Y-71049847D01*
X150910453Y-70886199D01*
X150910448Y-70886188D01*
X150819947Y-70739465D01*
X150819944Y-70739461D01*
X150806017Y-70725534D01*
X150772532Y-70664211D01*
X150777516Y-70594519D01*
X150806017Y-70550172D01*
X150820340Y-70535850D01*
X150910908Y-70389016D01*
X150965174Y-70225253D01*
X150975500Y-70124177D01*
X150975500Y-70074500D01*
X150995185Y-70007461D01*
X151047989Y-69961706D01*
X151099500Y-69950500D01*
X151917062Y-69950500D01*
X151947560Y-69959455D01*
G37*
%TD.AperFunction*%
%TA.AperFunction,Conductor*%
G36*
X160432168Y-73342825D02*
G01*
X164639492Y-77550149D01*
X164672977Y-77611472D01*
X164674284Y-77657227D01*
X164649500Y-77813712D01*
X164649500Y-78026286D01*
X164682753Y-78236239D01*
X164706129Y-78308182D01*
X164706932Y-78336301D01*
X164710936Y-78364147D01*
X164707916Y-78370758D01*
X164708124Y-78378023D01*
X164693597Y-78402112D01*
X164681911Y-78427703D01*
X164675797Y-78431632D01*
X164672044Y-78437856D01*
X164646797Y-78450268D01*
X164623133Y-78465477D01*
X164612862Y-78466953D01*
X164609343Y-78468684D01*
X164588198Y-78470500D01*
X164450444Y-78470500D01*
X164383405Y-78450815D01*
X164362763Y-78434181D01*
X159903823Y-73975241D01*
X159870338Y-73913918D01*
X159875322Y-73844226D01*
X159917194Y-73788293D01*
X159933530Y-73778990D01*
X159933304Y-73778599D01*
X159940336Y-73774539D01*
X159940338Y-73774536D01*
X159940341Y-73774536D01*
X160065782Y-73678282D01*
X160162036Y-73552841D01*
X160222544Y-73406762D01*
X160222544Y-73406754D01*
X160224647Y-73398912D01*
X160227995Y-73399809D01*
X160249705Y-73350554D01*
X160307977Y-73312003D01*
X160377840Y-73311076D01*
X160432168Y-73342825D01*
G37*
%TD.AperFunction*%
%TA.AperFunction,Conductor*%
G36*
X157676687Y-67407921D02*
G01*
X157705982Y-67413888D01*
X157709857Y-67417661D01*
X157715046Y-67419185D01*
X157734618Y-67441772D01*
X157756040Y-67462632D01*
X157758756Y-67469629D01*
X157760801Y-67471989D01*
X157764010Y-67483163D01*
X157768812Y-67495534D01*
X157770165Y-67501380D01*
X157777456Y-67556762D01*
X157789992Y-67587028D01*
X157792309Y-67597034D01*
X157788251Y-67666786D01*
X157786066Y-67672450D01*
X157777457Y-67693234D01*
X157777455Y-67693239D01*
X157762000Y-67810638D01*
X157762000Y-68089363D01*
X157777453Y-68206753D01*
X157777457Y-68206765D01*
X157786066Y-68227550D01*
X157793533Y-68297019D01*
X157786066Y-68322450D01*
X157777457Y-68343234D01*
X157777455Y-68343239D01*
X157762000Y-68460638D01*
X157762000Y-68739363D01*
X157777453Y-68856753D01*
X157777457Y-68856765D01*
X157786066Y-68877550D01*
X157793533Y-68947019D01*
X157786066Y-68972450D01*
X157777457Y-68993234D01*
X157777455Y-68993239D01*
X157762000Y-69110638D01*
X157762000Y-69389363D01*
X157777453Y-69506753D01*
X157777457Y-69506765D01*
X157786066Y-69527550D01*
X157793533Y-69597019D01*
X157786066Y-69622450D01*
X157777457Y-69643234D01*
X157777455Y-69643239D01*
X157762000Y-69760638D01*
X157762000Y-70039363D01*
X157777453Y-70156753D01*
X157777457Y-70156765D01*
X157786066Y-70177550D01*
X157794242Y-70242646D01*
X157792025Y-70258064D01*
X157777456Y-70293238D01*
X157762000Y-70410639D01*
X157762000Y-70466905D01*
X157760738Y-70475683D01*
X157749759Y-70499724D01*
X157742315Y-70525076D01*
X157735475Y-70531002D01*
X157731714Y-70539239D01*
X157709478Y-70553529D01*
X157689511Y-70570831D01*
X157685454Y-70572598D01*
X157669455Y-70579224D01*
X157605464Y-70621983D01*
X157605463Y-70621984D01*
X157554720Y-70655888D01*
X157554719Y-70655889D01*
X157037181Y-71173428D01*
X156975858Y-71206913D01*
X156906166Y-71201929D01*
X156850233Y-71160057D01*
X156825816Y-71094593D01*
X156825500Y-71085747D01*
X156825500Y-69932212D01*
X156806162Y-69834998D01*
X156798580Y-69796880D01*
X156797434Y-69794114D01*
X156745775Y-69669397D01*
X156669114Y-69554665D01*
X156669112Y-69554662D01*
X156669111Y-69554661D01*
X154725630Y-67611181D01*
X154692145Y-67549858D01*
X154697129Y-67480166D01*
X154739001Y-67424233D01*
X154804465Y-67399816D01*
X154813311Y-67399500D01*
X157648007Y-67399500D01*
X157676687Y-67407921D01*
G37*
%TD.AperFunction*%
%TA.AperFunction,Conductor*%
G36*
X154693584Y-69564025D02*
G01*
X154712988Y-69579853D01*
X155388181Y-70255046D01*
X155421666Y-70316369D01*
X155424500Y-70342727D01*
X155424500Y-71060746D01*
X155404815Y-71127785D01*
X155352011Y-71173540D01*
X155282853Y-71183484D01*
X155219297Y-71154459D01*
X155212819Y-71148427D01*
X154720279Y-70655887D01*
X154628434Y-70594519D01*
X154605545Y-70579225D01*
X154605543Y-70579224D01*
X154589543Y-70572596D01*
X154535141Y-70528753D01*
X154514274Y-70475773D01*
X154512999Y-70466951D01*
X154512999Y-70410640D01*
X154497544Y-70293238D01*
X154482720Y-70257450D01*
X154480499Y-70242082D01*
X154483335Y-70222248D01*
X154481194Y-70202328D01*
X154488664Y-70176890D01*
X154497055Y-70156632D01*
X154497055Y-70156630D01*
X154504512Y-70100000D01*
X154462000Y-70100000D01*
X154432618Y-70091372D01*
X154402683Y-70084892D01*
X154398570Y-70081374D01*
X154394961Y-70080315D01*
X154374407Y-70063769D01*
X154368608Y-70057981D01*
X154340782Y-70021718D01*
X154303960Y-69993463D01*
X154298254Y-69987769D01*
X154285196Y-69963913D01*
X154269158Y-69941949D01*
X154268667Y-69933715D01*
X154264707Y-69926480D01*
X154266620Y-69899349D01*
X154265003Y-69872203D01*
X154269041Y-69865010D01*
X154269622Y-69856783D01*
X154285895Y-69834998D01*
X154299214Y-69811282D01*
X154310351Y-69801631D01*
X154340782Y-69778282D01*
X154354321Y-69760638D01*
X154363625Y-69748513D01*
X154420053Y-69707310D01*
X154462000Y-69700000D01*
X154504510Y-69700000D01*
X154504511Y-69699998D01*
X154502368Y-69683718D01*
X154513134Y-69614682D01*
X154559515Y-69562427D01*
X154626784Y-69543543D01*
X154693584Y-69564025D01*
G37*
%TD.AperFunction*%
%TA.AperFunction,Conductor*%
G36*
X160571444Y-63653999D02*
G01*
X160610486Y-63699056D01*
X160614951Y-63707820D01*
X160739890Y-63879786D01*
X160890211Y-64030107D01*
X160961200Y-64081682D01*
X161018385Y-64123229D01*
X161061051Y-64178558D01*
X161069500Y-64223547D01*
X161069500Y-65637272D01*
X161049815Y-65704311D01*
X161033181Y-65724953D01*
X160097769Y-66660365D01*
X160036446Y-66693850D01*
X159966754Y-66688866D01*
X159947989Y-66678474D01*
X159947381Y-66679528D01*
X159940343Y-66675465D01*
X159794262Y-66614956D01*
X159794260Y-66614955D01*
X159676870Y-66599501D01*
X159676867Y-66599500D01*
X159676861Y-66599500D01*
X159676854Y-66599500D01*
X159341518Y-66599500D01*
X159274479Y-66579815D01*
X159253837Y-66563181D01*
X158845546Y-66154888D01*
X158845545Y-66154887D01*
X158730807Y-66078222D01*
X158603332Y-66025421D01*
X158603322Y-66025418D01*
X158467996Y-65998500D01*
X158467994Y-65998500D01*
X158467993Y-65998500D01*
X155405782Y-65998500D01*
X155338743Y-65978815D01*
X155292988Y-65926011D01*
X155283044Y-65856853D01*
X155312069Y-65793297D01*
X155318101Y-65786819D01*
X156718102Y-64386818D01*
X156779425Y-64353333D01*
X156805783Y-64350499D01*
X157587871Y-64350499D01*
X157587872Y-64350499D01*
X157647483Y-64344091D01*
X157782331Y-64293796D01*
X157897546Y-64207546D01*
X157983796Y-64092331D01*
X158032810Y-63960916D01*
X158074681Y-63904984D01*
X158140145Y-63880566D01*
X158208418Y-63895417D01*
X158236673Y-63916569D01*
X158350213Y-64030109D01*
X158522179Y-64155048D01*
X158522181Y-64155049D01*
X158522184Y-64155051D01*
X158711588Y-64251557D01*
X158913757Y-64317246D01*
X159123713Y-64350500D01*
X159123714Y-64350500D01*
X159336286Y-64350500D01*
X159336287Y-64350500D01*
X159546243Y-64317246D01*
X159748412Y-64251557D01*
X159937816Y-64155051D01*
X160013566Y-64100016D01*
X160109786Y-64030109D01*
X160109788Y-64030106D01*
X160109792Y-64030104D01*
X160260104Y-63879792D01*
X160260106Y-63879788D01*
X160260109Y-63879786D01*
X160385048Y-63707820D01*
X160385047Y-63707820D01*
X160385051Y-63707816D01*
X160389514Y-63699054D01*
X160437488Y-63648259D01*
X160505308Y-63631463D01*
X160571444Y-63653999D01*
G37*
%TD.AperFunction*%
%TD*%
M02*
