%TF.GenerationSoftware,KiCad,Pcbnew,9.0.2-9.0.2-0~ubuntu24.04.1*%
%TF.CreationDate,2026-05-17T14:10:11+02:00*%
%TF.ProjectId,g031_sht40,67303331-5f73-4687-9434-302e6b696361,0.1*%
%TF.SameCoordinates,Original*%
%TF.FileFunction,Soldermask,Top*%
%TF.FilePolarity,Negative*%
%FSLAX46Y46*%
G04 Gerber Fmt 4.6, Leading zero omitted, Abs format (unit mm)*
G04 Created by KiCad (PCBNEW 9.0.2-9.0.2-0~ubuntu24.04.1) date 2026-05-17 14:10:11*
%MOMM*%
%LPD*%
G01*
G04 APERTURE LIST*
G04 Aperture macros list*
%AMRoundRect*
0 Rectangle with rounded corners*
0 $1 Rounding radius*
0 $2 $3 $4 $5 $6 $7 $8 $9 X,Y pos of 4 corners*
0 Add a 4 corners polygon primitive as box body*
4,1,4,$2,$3,$4,$5,$6,$7,$8,$9,$2,$3,0*
0 Add four circle primitives for the rounded corners*
1,1,$1+$1,$2,$3*
1,1,$1+$1,$4,$5*
1,1,$1+$1,$6,$7*
1,1,$1+$1,$8,$9*
0 Add four rect primitives between the rounded corners*
20,1,$1+$1,$2,$3,$4,$5,0*
20,1,$1+$1,$4,$5,$6,$7,0*
20,1,$1+$1,$6,$7,$8,$9,0*
20,1,$1+$1,$8,$9,$2,$3,0*%
G04 Aperture macros list end*
%ADD10C,3.200000*%
%ADD11R,1.700000X1.700000*%
%ADD12C,1.700000*%
%ADD13RoundRect,0.237500X-0.237500X0.300000X-0.237500X-0.300000X0.237500X-0.300000X0.237500X0.300000X0*%
%ADD14C,3.500000*%
%ADD15C,1.100000*%
%ADD16R,1.650000X1.650000*%
%ADD17C,1.650000*%
%ADD18O,3.200000X1.900000*%
%ADD19RoundRect,0.237500X0.250000X0.237500X-0.250000X0.237500X-0.250000X-0.237500X0.250000X-0.237500X0*%
%ADD20RoundRect,0.250000X0.550000X0.550000X-0.550000X0.550000X-0.550000X-0.550000X0.550000X-0.550000X0*%
%ADD21C,1.600000*%
%ADD22RoundRect,0.100000X-0.637500X-0.100000X0.637500X-0.100000X0.637500X0.100000X-0.637500X0.100000X0*%
%ADD23RoundRect,0.237500X0.287500X0.237500X-0.287500X0.237500X-0.287500X-0.237500X0.287500X-0.237500X0*%
%ADD24RoundRect,0.237500X0.237500X-0.250000X0.237500X0.250000X-0.237500X0.250000X-0.237500X-0.250000X0*%
%ADD25RoundRect,0.237500X-0.250000X-0.237500X0.250000X-0.237500X0.250000X0.237500X-0.250000X0.237500X0*%
G04 APERTURE END LIST*
D10*
%TO.C,H5*%
X112500000Y-60000000D03*
%TD*%
D11*
%TO.C,J2*%
X127920000Y-92000000D03*
D12*
X130460000Y-92000000D03*
X133000000Y-92000000D03*
X135540000Y-92000000D03*
X138080000Y-92000000D03*
X140620000Y-92000000D03*
%TD*%
D13*
%TO.C,C3*%
X150000000Y-69775000D03*
X150000000Y-71500000D03*
%TD*%
D11*
%TO.C,J6*%
X156690000Y-63000000D03*
D12*
X159230000Y-63000000D03*
X161770000Y-63000000D03*
X164310000Y-63000000D03*
%TD*%
D14*
%TO.C,H1*%
X104000000Y-57000000D03*
%TD*%
D11*
%TO.C,J8*%
X166000000Y-85540000D03*
D12*
X166000000Y-83000000D03*
X166000000Y-80460000D03*
X166000000Y-77920000D03*
X166000000Y-75380000D03*
X166000000Y-72840000D03*
X166000000Y-70300000D03*
X166000000Y-67760000D03*
%TD*%
D14*
%TO.C,H4*%
X171000000Y-96000000D03*
%TD*%
D15*
%TO.C,J1*%
X122000000Y-55960000D03*
X119460000Y-55960000D03*
D16*
X122000000Y-58500000D03*
D17*
X119460000Y-58500000D03*
%TD*%
D14*
%TO.C,H3*%
X104000000Y-96000000D03*
%TD*%
D11*
%TO.C,J5*%
X147420000Y-63000000D03*
D12*
X149960000Y-63000000D03*
X152500000Y-63000000D03*
%TD*%
D18*
%TO.C,SW1*%
X160500000Y-87500000D03*
X148000000Y-87500000D03*
X160500000Y-82500000D03*
X148000000Y-82500000D03*
%TD*%
D14*
%TO.C,H2*%
X171000000Y-57000000D03*
%TD*%
D19*
%TO.C,R2*%
X152912500Y-76000000D03*
X151087500Y-76000000D03*
%TD*%
D11*
%TO.C,J7*%
X102000000Y-76500000D03*
D12*
X102000000Y-79040000D03*
X102000000Y-81580000D03*
X102000000Y-84120000D03*
%TD*%
D20*
%TO.C,C1*%
X142000000Y-63500000D03*
D21*
X138500000Y-63500000D03*
%TD*%
D22*
%TO.C,U3*%
X153275000Y-67300000D03*
X153275000Y-67950000D03*
X153275000Y-68600000D03*
X153275000Y-69250000D03*
X153275000Y-69900000D03*
X153275000Y-70550000D03*
X153275000Y-71200000D03*
X153275000Y-71850000D03*
X153275000Y-72500000D03*
X153275000Y-73150000D03*
X159000000Y-73150000D03*
X159000000Y-72500000D03*
X159000000Y-71850000D03*
X159000000Y-71200000D03*
X159000000Y-70550000D03*
X159000000Y-69900000D03*
X159000000Y-69250000D03*
X159000000Y-68600000D03*
X159000000Y-67950000D03*
X159000000Y-67300000D03*
%TD*%
D11*
%TO.C,U4*%
X170510000Y-85500000D03*
D12*
X170510000Y-82960000D03*
X170510000Y-80420000D03*
X170510000Y-77880000D03*
X170510000Y-75340000D03*
X170510000Y-72800000D03*
X170510000Y-70260000D03*
X170510000Y-67720000D03*
%TD*%
D23*
%TO.C,D1*%
X157875000Y-97500000D03*
X156125000Y-97500000D03*
%TD*%
D24*
%TO.C,R1*%
X129500000Y-57412500D03*
X129500000Y-55587500D03*
%TD*%
D20*
%TO.C,C4*%
X131500000Y-63500000D03*
D21*
X128000000Y-63500000D03*
%TD*%
D10*
%TO.C,H6*%
X112500000Y-93000000D03*
%TD*%
D15*
%TO.C,J4*%
X119460000Y-97040000D03*
X122000000Y-97040000D03*
D16*
X119460000Y-94500000D03*
D17*
X122000000Y-94500000D03*
%TD*%
D11*
%TO.C,JP1*%
X149500000Y-97000000D03*
D12*
X152040000Y-97000000D03*
%TD*%
D11*
%TO.C,U1*%
X126385000Y-74000000D03*
D12*
X126385000Y-76540000D03*
X126385000Y-79080000D03*
X126385000Y-81620000D03*
X126385000Y-84160000D03*
X141625000Y-84160000D03*
X141625000Y-81620000D03*
X141625000Y-79080000D03*
X141625000Y-76540000D03*
X141625000Y-74000000D03*
%TD*%
D25*
%TO.C,R3*%
X161087500Y-97500000D03*
X162912500Y-97500000D03*
%TD*%
D11*
%TO.C,U2*%
X107000000Y-71460000D03*
D12*
X107000000Y-74000000D03*
X107000000Y-76540000D03*
X107000000Y-79080000D03*
X107000000Y-81620000D03*
%TD*%
D13*
%TO.C,C2*%
X147862500Y-69775000D03*
X147862500Y-71500000D03*
%TD*%
D11*
%TO.C,J3*%
X136000000Y-56500000D03*
D12*
X133460000Y-56500000D03*
%TD*%
M02*
